<svg width="24" height="24" viewBox="0 0 24 24" fill="none" xmlns="http://www.w3.org/2000/svg">
<path d="M12 1C18.0751 1 23 5.92487 23 12C23 18.0751 18.0751 23 12 23C5.92487 23 1 18.0751 1 12C1 5.92487 5.92487 1 12 1ZM12 6.5C11.4359 6.5 10.9709 6.92464 10.9074 7.47172L10.9 7.6V10.9H7.6C6.99249 10.9 6.5 11.3925 6.5 12C6.5 12.5641 6.92465 13.0291 7.47172 13.0926L7.6 13.1H10.9V16.4C10.9 17.0075 11.3925 17.5 12 17.5C12.5641 17.5 13.0291 17.0754 13.0926 16.5283L13.1 16.4V13.1H16.4C17.0075 13.1 17.5 12.6075 17.5 12C17.5 11.4359 17.0754 10.9709 16.5283 10.9074L16.4 10.9H13.1V7.6C13.1 6.99248 12.6075 6.5 12 6.5Z" fill="#BDBDBD"/>
</svg>
