<svg width="24" height="24" viewBox="0 0 24 24" fill="none" xmlns="http://www.w3.org/2000/svg">
<path d="M5.81288 4.06553C2.39541 7.48261 2.39541 13.0233 5.81288 16.4404C6.14706 16.7866 5.98137 17.3646 5.51454 17.4811C5.30535 17.5332 5.08418 17.4739 4.92908 17.3242C1.0236 13.419 1.0236 7.08708 4.92908 3.18173C5.27512 2.84754 5.85331 3.01323 5.96977 3.48007C6.02181 3.68925 5.96262 3.91055 5.81288 4.06553ZM8.4653 6.71808C6.51339 8.6705 6.51339 11.8355 8.4653 13.788C8.80598 14.1287 8.65012 14.7103 8.18481 14.8349C7.96887 14.8928 7.73838 14.8311 7.58035 14.6729C5.13877 12.2321 5.13877 8.27394 7.58035 5.833C7.92091 5.49244 8.50254 5.64831 8.62729 6.11361C8.68519 6.32956 8.62346 6.55991 8.4653 6.71808ZM15.5353 5.833C15.7794 5.58823 16.176 5.58823 16.4203 5.833C18.8618 8.27394 18.8618 12.2321 16.4203 14.6729C16.0796 15.0136 15.4979 14.8577 15.3733 14.3924C15.3154 14.1765 15.3771 13.9461 15.5353 13.788C17.4872 11.8355 17.4872 8.6705 15.5353 6.71808C15.2904 6.47382 15.2904 6.07726 15.5353 5.833ZM18.1877 3.183C18.4319 2.939 18.8274 2.939 19.0715 3.183C22.9761 7.0881 22.9761 13.4191 19.0715 17.3242C18.7255 17.6585 18.1473 17.4927 18.0308 17.0258C17.9787 16.8168 18.038 16.5955 18.1877 16.4404C21.6052 13.0233 21.6052 7.48261 18.1877 4.06553C17.9437 3.82152 17.9437 3.42586 18.1877 3.18173V3.183ZM9.50037 10.253C9.50075 8.32853 11.5844 7.12624 13.2509 8.08886C14.9172 9.05162 14.9167 11.4572 13.2497 12.419C13.0541 12.5318 12.844 12.6178 12.6252 12.6742V19.6279C12.6231 20.109 12.1009 20.4073 11.6853 20.165C11.4942 20.0534 11.3763 19.8492 11.3754 19.6279V12.6742C10.2713 12.3891 9.49999 11.3932 9.50037 10.253Z" fill="#BDBDBD" stroke="#BDBDBD" stroke-width="0.510203"/>
</svg>
