<svg width="24" height="24" viewBox="0 0 24 24" fill="none" xmlns="http://www.w3.org/2000/svg">
<rect x="5.25754" y="5.25732" width="13.4849" height="13.4857" rx="6.74247" fill="#BDBDBD"/>
<path d="M15.5862 14.8368L12.7495 11.9997L15.5862 9.16258C15.6355 9.11333 15.6745 9.0549 15.7012 8.99056C15.7278 8.92622 15.7417 8.85726 15.7417 8.78762C15.7417 8.71797 15.7278 8.64902 15.7012 8.58468C15.6745 8.52033 15.6355 8.4619 15.5862 8.41266C15.537 8.36341 15.4787 8.32426 15.4143 8.29761C15.35 8.27096 15.2809 8.25732 15.2113 8.25732C15.1416 8.25732 15.0726 8.27096 15.0082 8.29761C14.9439 8.32426 14.8856 8.36341 14.8363 8.41266L11.9996 11.2497L9.16289 8.41307C9.06283 8.31656 8.92898 8.26319 8.78997 8.26444C8.65096 8.2657 8.51799 8.32148 8.41969 8.41978C8.32139 8.51808 8.26551 8.65105 8.26425 8.79006C8.263 8.92907 8.31647 9.06293 8.41297 9.16298L11.2501 12.0005L8.41297 14.8376C8.31352 14.9371 8.25754 15.0719 8.25754 15.2126C8.25754 15.3532 8.31352 15.4882 8.41297 15.5876C8.51243 15.6871 8.64728 15.743 8.78793 15.743C8.92859 15.743 9.06344 15.6871 9.16289 15.5876L11.9996 12.7497L14.8371 15.5867C14.9366 15.6862 15.0714 15.7421 15.2121 15.7421C15.3527 15.7421 15.4876 15.6862 15.587 15.5867C15.6865 15.4873 15.7425 15.3524 15.7425 15.2118C15.7425 15.0711 15.6865 14.9363 15.587 14.8368H15.5862Z" fill="white"/>
</svg>
