<svg width="24" height="24" viewBox="0 0 24 24" fill="none" xmlns="http://www.w3.org/2000/svg">
<path d="M10.3632 6.01561L17.9843 13.6367L10.2525 21.3686C9.89317 21.728 9.42005 21.9473 8.91782 21.9917L8.72829 22H3.08857C2.52749 22 2.06549 21.5754 2.00639 21.03L2 20.9114V15.2716C2 14.7635 2.17944 14.2738 2.50323 13.8874L2.63135 13.7474L10.3632 6.01561ZM13.7474 2.63136C14.545 1.83385 15.8119 1.79188 16.6588 2.50544L16.7959 2.63136L21.3686 7.20406C22.1661 8.00157 22.208 9.2685 21.4945 10.1154L21.3686 10.2526L19.5085 12.1125L11.8874 4.49138L13.7474 2.63136Z" fill="#BDBDBD"/>
</svg>
