<svg width="24" height="24" viewBox="0 0 24 24" fill="none" xmlns="http://www.w3.org/2000/svg">
<path fill-rule="evenodd" clip-rule="evenodd" d="M13.5333 2.03363C12.6865 1.18671 11.3135 1.18671 10.4667 2.03363L2.03333 10.4667C1.18652 11.3137 1.18652 12.6867 2.03333 13.5336L10.4667 21.9667C11.3135 22.8137 12.6865 22.8137 13.5333 21.9667L21.9667 13.5336C22.8135 12.6867 22.8135 11.3137 21.9667 10.4667L13.5333 2.03363ZM17.2035 11.4557C17.1964 11.4648 17.1893 11.475 17.1824 11.4841C17.1621 11.5092 17.1409 11.5324 17.1177 11.5558L14.4961 14.1774C14.3081 14.3642 14.0626 14.4582 13.8171 14.4582C13.5717 14.4582 13.3262 14.3642 13.1383 14.1774C12.7634 13.8024 12.7634 13.1955 13.1383 12.8205L14.1223 11.8366H11.5853C10.8872 11.8366 10.3195 12.4042 10.3195 13.1025V15.1904C10.3195 15.7206 9.89014 16.1501 9.35974 16.1501C8.82935 16.1501 8.40002 15.7206 8.40002 15.1904V13.1025C8.40002 11.3456 9.82849 9.91718 11.5853 9.91718H14.1233L13.1393 8.93304C12.7645 8.55927 12.7645 7.95111 13.1393 7.57635C13.5151 7.2016 14.1223 7.2016 14.4971 7.57635L17.1196 10.1989C17.1262 10.2048 17.1318 10.2114 17.1375 10.218L17.1439 10.2253C17.1571 10.2394 17.1702 10.2536 17.1824 10.2687C17.1924 10.2812 17.2009 10.2932 17.2098 10.3054L17.2157 10.3132C17.2238 10.3232 17.2318 10.3334 17.2389 10.3444L17.2535 10.3688L17.2682 10.393C17.2753 10.404 17.2814 10.4142 17.2874 10.4252L17.2986 10.4492C17.3025 10.4577 17.3064 10.4665 17.3107 10.4748C17.3167 10.487 17.3228 10.499 17.3278 10.5112C17.3339 10.5263 17.3389 10.5424 17.345 10.5585C17.3483 10.5671 17.3517 10.5756 17.3547 10.5847L17.3591 10.5991C17.3625 10.61 17.365 10.621 17.3674 10.6323L17.3712 10.6476C17.3743 10.6616 17.3783 10.6757 17.3813 10.6899C17.3854 10.7082 17.3875 10.7272 17.3904 10.7465C17.3909 10.7526 17.3918 10.7587 17.3929 10.7648C17.394 10.7707 17.395 10.7768 17.3955 10.7829C17.4015 10.8456 17.4015 10.9091 17.3955 10.9728L17.3894 11.0131L17.3849 11.0422L17.3813 11.0649C17.3793 11.0756 17.3765 11.0864 17.3735 11.0971L17.3693 11.1132C17.3651 11.1274 17.3622 11.1415 17.3582 11.1557C17.354 11.1718 17.348 11.1879 17.3419 11.2031L17.332 11.2316L17.3268 11.2446L17.3153 11.27L17.3065 11.288L17.299 11.3039C17.2948 11.3127 17.2908 11.3212 17.2864 11.3295L17.2737 11.3503L17.2611 11.3708C17.254 11.384 17.246 11.3972 17.2379 11.4094C17.2278 11.4255 17.2157 11.4406 17.2035 11.4557Z" fill="#292929"/>
</svg>
