<svg width="24" height="24" viewBox="0 0 24 24" fill="none" xmlns="http://www.w3.org/2000/svg">
<path fill-rule="evenodd" clip-rule="evenodd" d="M11.9999 21.1277C8.99424 21.1277 6.32789 19.6749 4.66473 17.4332C5.04286 17.417 5.37964 17.3942 5.66161 17.3708C6.34942 17.3138 7.06901 17.0239 7.51509 16.392C8.05114 15.6326 8.3781 14.7558 8.56061 14.1486C8.74447 13.5369 8.67781 12.9141 8.52091 12.3638C8.39818 11.9332 8.25841 11.3792 8.17776 10.853C8.09341 10.303 8.08859 9.86989 8.16756 9.63186C8.19358 9.55351 8.27587 9.44332 8.48089 9.32096C8.68095 9.20155 8.94832 9.10068 9.2493 9.01919C9.84943 8.85672 10.4934 8.7946 10.778 8.77405C10.8803 8.76666 11.017 8.75584 11.1596 8.7198C11.5566 8.6194 12.498 8.29618 13.4435 7.34794C13.9369 6.85312 14.1612 6.18858 14.1836 5.53972C14.2038 4.94864 14.2106 4.09777 14.1493 3.12686C18.1532 4.09328 21.1276 7.69928 21.1276 12C21.1276 12.1892 21.1218 12.377 21.1105 12.5632C19.0892 12.1834 17.1533 11.9234 15.9278 11.7761C14.9955 11.664 13.9181 11.8266 13.1851 12.6045C12.9261 12.8794 12.7084 13.1668 12.5256 13.4509C11.5487 14.9697 12.3886 16.728 13.6336 17.6881L14.6722 18.489C14.9227 18.6822 15.0779 18.9842 15.0966 19.3147C15.1152 19.6441 15.1448 20.068 15.1917 20.554C14.1982 20.9249 13.1228 21.1277 11.9999 21.1277ZM11.9999 1C5.92477 1 0.999908 5.92486 0.999908 12C0.999908 18.0751 5.92477 23 11.9999 23C18.075 23 22.9999 18.0751 22.9999 12C22.9999 5.92486 18.075 1 11.9999 1Z" fill="#BDBDBD"/>
</svg>
