<svg width="24" height="24" viewBox="0 0 24 24" fill="none" xmlns="http://www.w3.org/2000/svg">
<path fill-rule="evenodd" clip-rule="evenodd" d="M2.99988 10.4517C2.99988 5.48109 7.0293 1.45166 11.9999 1.45166C16.9705 1.45166 20.9999 5.48109 20.9999 10.4517C20.9999 13.6766 19.3358 16.3894 17.5264 18.3914C15.7114 20.3998 13.6834 21.7681 12.8014 22.3174C12.3066 22.6255 11.6932 22.6255 11.1984 22.3174C10.3163 21.7681 8.28829 20.3998 6.47332 18.3914C4.66399 16.3894 2.99988 13.6766 2.99988 10.4517ZM11.9999 14.144C14.0391 14.144 15.6922 12.4909 15.6922 10.4517C15.6922 8.41244 14.0391 6.75936 11.9999 6.75936C9.96066 6.75936 8.30758 8.41248 8.30758 10.4517C8.30758 12.4908 9.96066 14.144 11.9999 14.144Z" fill="#BDBDBD"/>
</svg>
