<svg width="24" height="24" viewBox="0 0 24 24" fill="none" xmlns="http://www.w3.org/2000/svg">
<path fill-rule="evenodd" clip-rule="evenodd" d="M21.0565 4.0913C20.3565 4.06087 18.1695 4 12 4C5.83039 4 3.64778 4.06087 2.94343 4.0913C2.66082 4.10435 2.26952 4.23913 2.12169 4.65217C2.05213 4.85652 1.99561 5.13913 1.99561 5.51739C1.99561 5.89565 2.04778 6.17826 2.12169 6.38261C2.26517 6.79565 2.65648 6.93043 2.94343 6.94348C3.64343 6.97391 5.83039 7.03478 12 7.03478C18.1695 7.03478 20.3521 6.97391 21.0565 6.94348C21.3391 6.93043 21.7304 6.79565 21.8782 6.38261C21.9478 6.17826 22.0043 5.89565 22.0043 5.51739C22.0043 5.13913 21.9521 4.85652 21.8782 4.65217C21.7347 4.23913 21.3434 4.10435 21.0565 4.0913Z" fill="#BDBDBD"/>
<path fill-rule="evenodd" clip-rule="evenodd" d="M15.0435 13.2608C18.8435 13.2608 20.4348 13.2086 21.0609 13.1782C21.4304 13.1608 21.8522 12.939 21.9435 12.4521C21.9783 12.2738 22 12.039 22 11.739C22 11.439 21.9783 11.2042 21.9435 11.026C21.8522 10.539 21.4304 10.3216 21.0609 10.2999C20.4304 10.2651 18.8435 10.2173 15.0435 10.2173C11.2435 10.2173 9.65217 10.2695 9.02609 10.2999C8.65652 10.3173 8.23478 10.539 8.14348 11.026C8.1087 11.2042 8.08696 11.439 8.08696 11.739C8.08696 12.039 8.1087 12.2738 8.14348 12.4521C8.23478 12.939 8.65652 13.1564 9.02609 13.1782C9.65652 13.2129 11.2435 13.2608 15.0435 13.2608Z" fill="#BDBDBD"/>
<path fill-rule="evenodd" clip-rule="evenodd" d="M21.0611 19.8218C20.3828 19.8522 18.4437 19.9131 13.3045 19.9131C8.16541 19.9131 6.22628 19.8565 5.54802 19.8218C5.23063 19.8087 4.82193 19.6391 4.70019 19.1913C4.64802 18.9957 4.60889 18.7348 4.60889 18.387C4.60889 18.0391 4.64802 17.7783 4.70019 17.587C4.82193 17.1391 5.23063 16.9739 5.54802 16.9565C6.22628 16.9261 8.16541 16.8652 13.3045 16.8652C18.4437 16.8652 20.3828 16.9218 21.0611 16.9565C21.3785 16.9696 21.7871 17.1391 21.9089 17.587C21.9611 17.7826 22.0002 18.0435 22.0002 18.387C22.0002 18.7305 21.9611 18.9957 21.9089 19.1913C21.7871 19.6391 21.3785 19.8044 21.0611 19.8218Z" fill="#BDBDBD"/>
</svg>
