<svg width="16" height="16" viewBox="0 0 24 24" fill="none" xmlns="http://www.w3.org/2000/svg">
<path d="M20 3C21.1046 3 22 3.89543 22 5V19C22 20.1046 21.1046 21 20 21H4C2.89543 21 2 20.1046 2 19V5C2 3.89543 2.89543 3 4 3H20ZM17 15H7C6.44772 15 6 15.4477 6 16C6 16.5523 6.44772 17 7 17H17C17.5523 17 18 16.5523 18 16C18 15.4477 17.5523 15 17 15ZM10 7H8C6.94564 7 6.08183 7.81588 6.00549 8.85074L6 9V11C6 12.0544 6.81588 12.9182 7.85074 12.9945L8 13H10C11.0544 13 11.9182 12.1841 11.9945 11.1493L12 11V9C12 7.94564 11.1841 7.08183 10.1493 7.00549L10 7ZM17 11H14C13.4477 11 13 11.4477 13 12C13 12.5128 13.386 12.9355 13.8834 12.9933L14 13H17C17.5523 13 18 12.5523 18 12C18 11.4872 17.614 11.0645 17.1166 11.0067L17 11ZM10 9V11H8V9H10ZM17 7H14C13.4477 7 13 7.44772 13 8C13 8.55228 13.4477 9 14 9H17C17.5523 9 18 8.55228 18 8C18 7.44772 17.5523 7 17 7Z" fill="#525252"/>
</svg>
