<svg width="24" height="24" viewBox="0 0 24 24" fill="none" xmlns="http://www.w3.org/2000/svg">
<path fill-rule="evenodd" clip-rule="evenodd" d="M11.9998 3.18164C15.4054 3.18164 18.2455 5.78793 18.5346 9.18079L18.7387 11.583C18.8323 12.6544 19.1724 13.6918 19.7379 14.6102L20.3714 15.6349C21.0049 16.6638 20.6605 17.7267 19.4615 17.8883C18.0882 18.0711 15.8008 18.2327 11.9955 18.2327C8.19026 18.2327 5.90284 18.0711 4.52954 17.8883C3.33056 17.7267 2.98192 16.6638 3.61968 15.6349L4.25318 14.6102C4.81866 13.6918 5.16305 12.6587 5.25233 11.583L5.45641 9.18079C5.74553 5.78793 8.58566 3.18164 11.9913 3.18164H11.9998ZM11.9998 19.5252C10.601 19.5252 9.40199 19.5039 8.36883 19.4657C9.0491 20.7794 10.4181 21.6765 11.9998 21.6765C13.5814 21.6765 14.9505 20.7794 15.6307 19.4657C14.5976 19.5039 13.3986 19.5252 11.9998 19.5252Z" fill="#BDBDBD"/>
</svg>
