<svg width="24" height="24" viewBox="0 0 24 24" fill="none" xmlns="http://www.w3.org/2000/svg">
<path fill-rule="evenodd" clip-rule="evenodd" d="M7.11111 2C4.28831 2 2 4.28832 2 7.11111V7.70324C2 7.73676 2.00249 7.77 2.00738 7.80271C2.25538 15.6859 8.72356 22 16.6667 22H16.8889C19.7117 22 22 19.7117 22 16.8889V16.636C22 15.8182 21.5021 15.0828 20.7428 14.7791L18.0027 13.6831C17.0948 13.3199 16.0578 13.5327 15.3664 14.2242L13.999 15.5915C13.9386 15.652 13.8707 15.6591 13.8293 15.6465C11.2131 14.852 9.14796 12.7869 8.35347 10.1707C8.34089 10.1293 8.34804 10.0614 8.40849 10.001L9.77582 8.63364C10.4672 7.94222 10.6801 6.90524 10.3169 5.99733L9.22089 3.25722C8.9172 2.4979 8.18178 2 7.36395 2H7.11111Z" fill="#BDBDBD"/>
</svg>
