<svg width="24" height="24" viewBox="0 0 24 24" fill="none" xmlns="http://www.w3.org/2000/svg">
<path d="M21.0005 2.67999C20.9163 2.65192 20.8303 2.63789 20.7426 2.63789C17.9115 2.63789 15.1085 2.21164 12.4054 1.36968C12.2475 1.32056 12.0844 1.32232 11.9265 1.36968C9.21471 2.23445 6.37132 2.67297 3.45075 2.67297C3.00345 2.67297 2.66666 3.03607 2.66666 3.48336V3.5202C2.66666 11.6996 2.64035 18.1581 11.7424 22.5837C11.8546 22.6381 11.9511 22.6644 12.0721 22.6644C12.1932 22.6644 12.3177 22.6381 12.43 22.582C21.5618 18.0932 21.5618 11.6311 21.5618 3.44828C21.5618 3.10273 21.3285 2.7905 21.0005 2.67823V2.67999ZM17.2415 10.3963L15.2769 12.3135L15.7277 14.9464C15.7452 15.013 15.7557 15.092 15.7557 15.1657C15.7557 15.6129 15.3926 15.9848 14.9453 15.9848H14.9418C14.8138 15.9848 14.684 15.9445 14.5665 15.8813L12.1353 14.5991L9.70586 15.8743C9.43397 16.0181 9.10245 15.9936 8.85337 15.8112C8.60428 15.6305 8.47974 15.3235 8.53237 15.0201L8.99545 12.3135L7.02911 10.3963C6.80984 10.1823 6.72915 9.85951 6.82563 9.56657C6.92035 9.27364 7.17294 9.06139 7.47815 9.01579L10.1953 8.62112L11.4108 6.16012C11.5459 5.88297 11.8283 5.70931 12.1353 5.70931C12.4423 5.70931 12.7247 5.88297 12.8615 6.16012L14.0771 8.62112L16.7942 9.01579C17.0994 9.06139 17.352 9.27364 17.4467 9.56657C17.5414 9.85951 17.4625 10.1823 17.2415 10.3963Z" fill="#BDBDBD"/>
</svg>
