<svg width="24" height="24" viewBox="0 0 24 24" fill="none" xmlns="http://www.w3.org/2000/svg">
<path fill-rule="evenodd" clip-rule="evenodd" d="M11.2978 2.12816C11.7505 1.95728 12.2495 1.95728 12.7022 2.12816L19.7022 4.76993C20.4829 5.06452 21 5.81554 21 6.65456V12.0515C21 15.4823 19.074 18.6186 16.0249 20.1529L12.6708 21.8406C12.2485 22.0531 11.7515 22.0531 11.3292 21.8406L7.97508 20.1529C4.92602 18.6186 3 15.4823 3 12.0515V6.65456C3 5.81554 3.51715 5.06452 4.29775 4.76993L11.2978 2.12816ZM12 4.01279L5 6.65456V12.0515C5 14.7199 6.49802 17.1593 8.8695 18.3525L12 19.9278V4.01279Z" fill="#BDBDBD"/>
</svg>
