<svg width="16" height="16" viewBox="0 0 16 16" fill="none" xmlns="http://www.w3.org/2000/svg">
<path d="M6.718 1.74276C6.94333 1.2361 7.63733 1.21143 7.90933 1.66676L7.94867 1.74276L8.64333 3.3061C9.24992 4.67071 10.2587 5.81761 11.5347 6.59343L11.7493 6.71943L12.9827 7.41277C13.0807 7.46766 13.1635 7.54621 13.2234 7.64127C13.2833 7.73633 13.3185 7.84487 13.3257 7.95701C13.3329 8.06914 13.312 8.1813 13.2647 8.28326C13.2175 8.38522 13.1455 8.47375 13.0553 8.54076L12.9833 8.58743L11.7493 9.28076C10.4476 10.013 9.40046 11.1253 8.748 12.4688L8.64333 12.6941L7.94867 14.2574C7.72333 14.7641 7.02933 14.7888 6.75733 14.3334L6.718 14.2574L6.02333 12.6941C5.41675 11.3295 4.40801 10.1826 3.132 9.40676L2.91733 9.28076L1.684 8.58743C1.58595 8.53254 1.5032 8.45399 1.44329 8.35893C1.38337 8.26387 1.3482 8.15532 1.34098 8.04319C1.33375 7.93106 1.35471 7.8189 1.40193 7.71693C1.44915 7.61497 1.52114 7.52645 1.61133 7.45943L1.68333 7.41277L2.91733 6.71943C4.21908 5.9872 5.26621 4.87494 5.91867 3.53143L6.02333 3.3061L6.718 1.74276ZM12.814 1.4141C13.1449 2.16583 13.7092 2.79094 14.4233 3.19676C14.53 3.25676 14.53 3.4101 14.4233 3.4701C13.7089 3.87599 13.1443 4.50135 12.8133 5.25343C12.8007 5.28174 12.7801 5.30579 12.7541 5.32266C12.728 5.33953 12.6977 5.3485 12.6667 5.3485C12.6357 5.3485 12.6053 5.33953 12.5793 5.32266C12.5532 5.30579 12.5327 5.28174 12.52 5.25343C12.1889 4.5016 11.6243 3.87648 10.91 3.47076C10.8859 3.45701 10.8658 3.43713 10.8519 3.41312C10.838 3.38912 10.8306 3.36186 10.8306 3.3341C10.8306 3.30634 10.838 3.27908 10.8519 3.25507C10.8658 3.23107 10.8859 3.21118 10.91 3.19743C11.6245 2.79137 12.1891 2.16576 12.52 1.41343C12.5327 1.38512 12.5532 1.36108 12.5793 1.34421C12.6053 1.32734 12.6357 1.31836 12.6667 1.31836C12.6977 1.31836 12.728 1.32734 12.7541 1.34421C12.7801 1.36108 12.8007 1.38512 12.8133 1.41343L12.814 1.4141Z" fill="#BDBDBD"/>
</svg>
