<svg width="16" height="16" viewBox="0 0 16 16" fill="none" xmlns="http://www.w3.org/2000/svg">
<path d="M8.03374 1C6.0092 1 4.72699 1.21033 3.98466 1.35055C3.17485 1.56088 2.70245 2.26197 2.63497 3.03318C2.56748 4.01471 2.5 5.83756 2.5 8.71205C2.5 11.0257 2.5 12.498 2.56748 13.4795C2.56748 14.1105 2.83742 14.6714 3.3773 14.8817C3.84969 15.092 4.45706 15.0219 4.92945 14.6714L7.22393 13.0588C7.69632 12.7083 8.30368 12.7083 8.77607 13.0588L11.0706 14.6013C11.5429 14.9518 12.1503 15.092 12.6227 14.8116C13.1626 14.5311 13.365 14.0404 13.4325 13.4094C13.5 12.4279 13.5 10.9556 13.5 8.64194C13.5 5.76745 13.4325 3.9446 13.365 2.96307C13.2975 2.19186 12.8926 1.49077 12.0828 1.28044C11.3405 1.21033 10.0583 1 8.03374 1Z" fill="#BDBDBD"/>
</svg>
