<svg width="16" height="16" viewBox="0 0 16 16" fill="none" xmlns="http://www.w3.org/2000/svg">
<g clip-path="url(#clip0_11228_38500)">
<path d="M4.72021 4.08176L4.79806 4.15031L11.7525 11.1588C11.8437 11.2506 11.9121 11.3627 11.9522 11.4861C11.9923 11.6095 12.0029 11.7407 11.9833 11.869C11.9637 11.9974 11.9143 12.1192 11.8392 12.2247C11.764 12.3302 11.6653 12.4164 11.5509 12.4762L11.4559 12.5175L2.94512 15.6786C1.3454 16.2733 -0.212512 14.7576 0.273467 13.1477L0.314443 13.0271L3.44994 4.44932C3.4914 4.33569 3.55713 4.23264 3.64248 4.14745C3.72783 4.06227 3.83072 3.99703 3.94386 3.95637C4.057 3.91571 4.17762 3.90061 4.2972 3.91214C4.41677 3.92368 4.53236 3.96156 4.6358 4.02311L4.72021 4.08176ZM12.1213 7.66983C12.8679 7.70947 13.8915 7.86806 14.7815 8.4066C14.9619 8.51441 15.0945 8.68785 15.1519 8.89119C15.2092 9.09453 15.1871 9.31231 15.0899 9.49967C14.9928 9.68704 14.828 9.82972 14.6296 9.89835C14.4312 9.96698 14.2143 9.95633 14.0235 9.86859L13.9382 9.82316C13.3793 9.48451 12.6647 9.35235 12.0353 9.31931C11.776 9.30419 11.5159 9.30529 11.2567 9.32262L10.9978 9.34822C10.784 9.37603 10.5679 9.31782 10.3964 9.18621C10.2249 9.05461 10.1118 8.86019 10.0815 8.64509C10.0512 8.42999 10.1062 8.21153 10.2346 8.03702C10.363 7.86251 10.5545 7.74602 10.7675 7.71278C11.2163 7.65434 11.6697 7.63968 12.1213 7.669M13.7809 5.36781C13.9897 5.36825 14.1905 5.44901 14.3422 5.5936C14.4939 5.73819 14.5852 5.9357 14.5973 6.1458C14.6094 6.3559 14.5415 6.56275 14.4075 6.7241C14.2734 6.88545 14.0833 6.98914 13.8759 7.014L13.7809 7.01978H13.2006C12.9918 7.01934 12.7911 6.93858 12.6393 6.79399C12.4876 6.6494 12.3964 6.45189 12.3842 6.24179C12.3721 6.03169 12.44 5.82484 12.5741 5.66349C12.7081 5.50214 12.8982 5.39845 13.1056 5.3736L13.2006 5.36781H13.7809ZM11.1731 4.73428C11.3142 4.87651 11.399 5.06574 11.4115 5.26648C11.4241 5.46722 11.3635 5.66566 11.2412 5.82458L11.1731 5.90222L10.3036 6.77859C10.1561 6.92673 9.95825 7.01273 9.75014 7.01914C9.54202 7.02555 9.33928 6.95187 9.18311 6.81308C9.02694 6.67428 8.92904 6.48078 8.90929 6.27187C8.88955 6.06296 8.94944 5.85431 9.0768 5.68829L9.14482 5.61065L10.0135 4.73511C10.0896 4.65831 10.18 4.59739 10.2795 4.55582C10.379 4.51426 10.4856 4.49286 10.5933 4.49286C10.701 4.49286 10.8077 4.51426 10.9072 4.55582C11.0066 4.59739 11.097 4.65749 11.1731 4.73428ZM9.05303 0.385486C9.42018 1.49726 9.2235 2.71476 8.99403 3.56552C8.85612 4.09592 8.66671 4.61134 8.42856 5.10432C8.33151 5.30039 8.16116 5.44956 7.95498 5.51904C7.74881 5.58851 7.52369 5.57259 7.32916 5.47478C7.13463 5.37697 6.98662 5.20527 6.91769 4.99747C6.84876 4.78967 6.86456 4.56278 6.96161 4.36672C7.15665 3.97438 7.29761 3.55313 7.41235 3.13105C7.59838 2.44383 7.6918 1.69797 7.54839 1.08675L7.4984 0.908333C7.46268 0.805035 7.44768 0.695615 7.45426 0.586426C7.46085 0.477237 7.48888 0.370454 7.53675 0.272275C7.58461 0.174096 7.65135 0.0864774 7.73308 0.0145053C7.81482 -0.0574669 7.90992 -0.112359 8.01288 -0.146984C8.11583 -0.181609 8.22458 -0.195277 8.33282 -0.187196C8.44106 -0.179115 8.54663 -0.149444 8.6434 -0.0999071C8.74017 -0.0503701 8.82621 0.0180468 8.89653 0.101372C8.96685 0.184697 9.02005 0.28127 9.05303 0.385486ZM13.4908 2.39923C13.6444 2.55413 13.7307 2.76418 13.7307 2.9832C13.7307 3.20222 13.6444 3.41228 13.4908 3.56717L12.9114 4.15114C12.8358 4.23003 12.7453 4.29296 12.6453 4.33624C12.5454 4.37953 12.4378 4.40232 12.329 4.40327C12.2202 4.40423 12.1123 4.38333 12.0116 4.34179C11.9108 4.30026 11.8193 4.23893 11.7424 4.16138C11.6654 4.08382 11.6046 3.9916 11.5634 3.89009C11.5222 3.78858 11.5014 3.67982 11.5024 3.57014C11.5033 3.46047 11.5259 3.35208 11.5689 3.25131C11.6118 3.15054 11.6743 3.0594 11.7525 2.9832L12.332 2.39923C12.4856 2.24438 12.694 2.15739 12.9114 2.15739C13.1287 2.15739 13.3371 2.24438 13.4908 2.39923Z" fill="#BDBDBD"/>
</g>
<defs>
<clipPath id="clip0_11228_38500">
<rect width="16" height="16" fill="white"/>
</clipPath>
</defs>
</svg>
