<svg width="16" height="16" viewBox="0 0 16 16" fill="none" xmlns="http://www.w3.org/2000/svg">
<g clip-path="url(#clip0_10370_17592)">
<path fill-rule="evenodd" clip-rule="evenodd" d="M15.3863 11.0767C15.3863 14.4733 12.3086 16.0001 7.99999 16.0001C3.69142 16.0001 0.613708 14.4733 0.613708 11.1007C0.613708 7.40814 2.46057 5.53729 6.15314 3.66643L4.84571 1.231C4.7677 1.10902 4.72426 0.968149 4.72002 0.823417C4.71579 0.678685 4.75091 0.535516 4.82164 0.409177C4.89238 0.282837 4.99608 0.178064 5.12168 0.106029C5.24728 0.0339937 5.39008 -0.00260193 5.53485 0.000143899H10.7543C10.89 0.00361589 11.0226 0.0415573 11.1395 0.110397C11.2565 0.179237 11.3541 0.276712 11.423 0.393648C11.4919 0.510584 11.53 0.643135 11.5335 0.778826C11.5371 0.914517 11.5061 1.04889 11.4434 1.16929L9.84685 3.66643C13.5383 5.51214 15.3863 7.383 15.3863 11.0767ZM8.71428 5.58529C8.71428 5.49148 8.6958 5.3986 8.65991 5.31194C8.62401 5.22528 8.5714 5.14654 8.50507 5.08021C8.43874 5.01388 8.36 4.96127 8.27334 4.92537C8.18668 4.88948 8.0938 4.871 7.99999 4.871C7.90619 4.871 7.81331 4.88948 7.72665 4.92537C7.63999 4.96127 7.56125 5.01388 7.49492 5.08021C7.42859 5.14654 7.37598 5.22528 7.34008 5.31194C7.30418 5.3986 7.28571 5.49148 7.28571 5.58529V6.30186C6.80158 6.32051 6.34091 6.51526 5.99021 6.84955C5.63952 7.18383 5.42292 7.63465 5.38111 8.11733C5.3393 8.60002 5.47514 9.08136 5.76312 9.47097C6.05111 9.86059 6.47142 10.1317 6.94514 10.2333L8.62857 10.6013C8.80111 10.6384 8.95379 10.7381 9.05717 10.8812C9.16055 11.0242 9.20731 11.2005 9.18842 11.376C9.16954 11.5515 9.08636 11.7138 8.95491 11.8315C8.82346 11.9493 8.65306 12.0143 8.47657 12.0139H7.52342C7.37566 12.0141 7.23146 11.9685 7.1107 11.8833C6.98993 11.7982 6.89855 11.6777 6.84914 11.5384C6.82028 11.4471 6.77334 11.3624 6.7111 11.2896C6.64886 11.2167 6.5726 11.1571 6.48685 11.1144C6.40111 11.0716 6.30764 11.0465 6.212 11.0406C6.11636 11.0347 6.02051 11.0481 5.93016 11.08C5.83981 11.1119 5.7568 11.1617 5.68608 11.2263C5.61536 11.291 5.55837 11.3692 5.5185 11.4563C5.47863 11.5435 5.45669 11.6377 5.45401 11.7335C5.45132 11.8293 5.46793 11.9246 5.50285 12.0139C5.63719 12.3934 5.87564 12.7275 6.19092 12.9779C6.5062 13.2283 6.8856 13.3849 7.28571 13.4299V14.1567C7.28571 14.2505 7.30418 14.3434 7.34008 14.4301C7.37598 14.5167 7.42859 14.5955 7.49492 14.6618C7.56125 14.7281 7.63999 14.7807 7.72665 14.8166C7.81331 14.8525 7.90619 14.871 7.99999 14.871C8.0938 14.871 8.18668 14.8525 8.27334 14.8166C8.36 14.7807 8.43874 14.7281 8.50507 14.6618C8.5714 14.5955 8.62401 14.5167 8.65991 14.4301C8.6958 14.3434 8.71428 14.2505 8.71428 14.1567V13.4299C9.21857 13.3725 9.68617 13.1382 10.0339 12.7684C10.3816 12.3987 10.5869 11.9177 10.6132 11.4108C10.6396 10.9039 10.4852 10.4042 10.1777 10.0004C9.87014 9.59669 9.42935 9.31513 8.93371 9.20586L7.25028 8.83786C7.1137 8.8099 6.99246 8.732 6.91026 8.6194C6.82807 8.50679 6.79083 8.36757 6.80583 8.22897C6.82084 8.09036 6.887 7.96234 6.99139 7.86993C7.09578 7.77752 7.23088 7.72737 7.37028 7.72929H8.47657C8.62445 7.72855 8.76888 7.77395 8.88974 7.85917C9.0106 7.94439 9.10188 8.06518 9.15085 8.20471C9.21732 8.37889 9.34926 8.52017 9.51848 8.5984C9.68771 8.67662 9.8808 8.68558 10.0565 8.62337C10.2323 8.56116 10.3767 8.43271 10.4591 8.26544C10.5414 8.09817 10.555 7.90535 10.4971 7.72814C10.363 7.34859 10.1245 7.01453 9.80921 6.76428C9.49387 6.51403 9.11439 6.35772 8.71428 6.31329V5.58529Z" fill="#BDBDBD"/>
</g>
<defs>
<clipPath id="clip0_10370_17592">
<rect width="16" height="16" fill="white"/>
</clipPath>
</defs>
</svg>
