<svg width="16" height="16" viewBox="0 0 16 16" fill="none" xmlns="http://www.w3.org/2000/svg">
<path d="M7.01797 4.40937L11.5906 8.98207L6.95156 13.6212C6.73594 13.8368 6.45206 13.9685 6.15073 13.995L6.03701 14.0001H2.65316C2.31651 14.0001 2.03931 13.7453 2.00385 13.4181L2.00002 13.3469V9.96302C2.00002 9.65813 2.10768 9.36433 2.30196 9.13244L2.37883 9.04848L7.01797 4.40937ZM9.04848 2.37882C9.52702 1.90031 10.2872 1.87513 10.7953 2.30326L10.8776 2.37882L13.6212 5.12245C14.0997 5.60096 14.1249 6.36112 13.6968 6.86929L13.6212 6.95156L12.5052 8.06753L7.93251 3.49483L9.04848 2.37882Z" fill="#BDBDBD"/>
</svg>
