<svg width="16" height="16" viewBox="0 0 16 16" fill="none" xmlns="http://www.w3.org/2000/svg">
<path d="M1.83334 14C1.5572 14 1.33334 13.7761 1.33334 13.5V13.1667C1.33334 12.8905 1.5572 12.6667 1.83334 12.6667H3.50001C3.77615 12.6667 4.00001 12.4428 4.00001 12.1667V10.5C4.00001 10.2239 3.77615 10 3.50001 10H3.16668C2.89053 10 2.66668 9.77614 2.66668 9.5V9.16667C2.66668 8.89052 2.89053 8.66667 3.16668 8.66667H3.64032C3.88597 8.66667 4.09173 8.48704 4.15561 8.24984C4.33303 7.59101 4.67283 7.01051 5.17501 6.50833C5.67719 6.00616 6.25769 5.66635 6.91652 5.48893C7.15371 5.42505 7.33334 5.21929 7.33334 4.97364V2.5C7.33334 2.22386 7.5572 2 7.83334 2H11.5C11.7762 2 12 2.22386 12 2.5V4.16667C12 4.44281 11.7762 4.66667 11.5 4.66667H9.06249C8.84389 4.66667 8.66668 4.84388 8.66668 5.06248C8.66668 5.25694 8.80861 5.42044 8.99746 5.46679C9.6919 5.63722 10.3011 5.98441 10.825 6.50833C11.3272 7.01051 11.667 7.59101 11.8444 8.24984C11.9083 8.48704 12.1141 8.66667 12.3597 8.66667H12.8333C13.1095 8.66667 13.3333 8.89052 13.3333 9.16667V9.5C13.3333 9.77614 13.1095 10 12.8333 10H12.5C12.2239 10 12 10.2239 12 10.5V12.1667C12 12.4428 12.2239 12.6667 12.5 12.6667H14.1667C14.4428 12.6667 14.6667 12.8905 14.6667 13.1667V13.5C14.6667 13.7761 14.4428 14 14.1667 14H1.83334ZM5.33334 12.1667C5.33334 12.4428 5.5572 12.6667 5.83334 12.6667H6.83334C7.10949 12.6667 7.33334 12.4428 7.33334 12.1667V10.5C7.33334 10.2239 7.10949 10 6.83334 10H5.83334C5.5572 10 5.33334 10.2239 5.33334 10.5V12.1667ZM8.66668 12.1667C8.66668 12.4428 8.89053 12.6667 9.16668 12.6667H10.1667C10.4428 12.6667 10.6667 12.4428 10.6667 12.1667V10.5C10.6667 10.2239 10.4428 10 10.1667 10H9.16668C8.89053 10 8.66668 10.2239 8.66668 10.5V12.1667ZM5.66904 8.06332C5.51389 8.35233 5.75454 8.66667 6.08257 8.66667H9.91745C10.2455 8.66667 10.4861 8.35233 10.331 8.06332C10.1576 7.74036 9.9195 7.46092 9.61668 7.225C9.1389 6.85278 8.60001 6.66667 8.00001 6.66667C7.40001 6.66667 6.86112 6.85278 6.38334 7.225C6.08052 7.46092 5.84242 7.74036 5.66904 8.06332Z" fill="#BDBDBD"/>
<path d="M5.66904 8.06332C5.51389 8.35233 5.75454 8.66667 6.08257 8.66667H9.91745C10.2455 8.66667 10.4861 8.35233 10.331 8.06332C10.1576 7.74036 9.9195 7.46092 9.61668 7.225C9.1389 6.85278 8.60001 6.66667 8.00001 6.66667C7.40001 6.66667 6.86112 6.85278 6.38334 7.225C6.08052 7.46092 5.84242 7.74036 5.66904 8.06332Z" fill="#BDBDBD"/>
</svg>
