<svg width="16" height="16" viewBox="0 0 16 16" fill="none" xmlns="http://www.w3.org/2000/svg">
<path fill-rule="evenodd" clip-rule="evenodd" d="M8.00004 1C11.8661 1 15 4.1339 15 8C15 11.8661 11.8661 15 8.00004 15C4.13394 15 1.00004 11.8661 1.00004 8C1.00004 4.1339 4.13394 1 8.00004 1ZM9.38884 9.575C9.01784 9.9026 8.53274 10.1 8.00004 10.1C7.48845 10.1009 6.99429 9.91412 6.61124 9.575C6.472 9.4521 6.28965 9.38954 6.10428 9.4011C5.91892 9.41265 5.74574 9.49736 5.62284 9.6366C5.49994 9.77584 5.43739 9.9582 5.44894 10.1436C5.46049 10.3289 5.5452 10.5021 5.68444 10.625C6.30114 11.1689 7.11244 11.5 8.00004 11.5C8.85291 11.5012 9.67667 11.1899 10.3156 10.625C10.4549 10.5021 10.5396 10.3289 10.5511 10.1436C10.5627 9.9582 10.5001 9.77584 10.3772 9.6366C10.2543 9.49736 10.0812 9.41265 9.8958 9.4011C9.71044 9.38954 9.52808 9.4521 9.38884 9.575ZM5.55004 5.2C4.78914 5.2 4.17944 5.676 3.87424 6.2864C3.79401 6.4461 3.7779 6.63043 3.82921 6.80163C3.88052 6.97282 3.99537 7.11791 4.15021 7.20715C4.30506 7.29638 4.48817 7.32302 4.66202 7.28158C4.83587 7.24015 4.98729 7.13379 5.08524 6.9843L5.12584 6.9136C5.23924 6.6868 5.41284 6.6 5.55004 6.6C5.66904 6.6 5.81744 6.6665 5.92874 6.8352L5.97424 6.9136C6.05827 7.07809 6.20391 7.2027 6.37942 7.26028C6.55493 7.31785 6.74608 7.30372 6.91122 7.22097C7.07636 7.13822 7.2021 6.99355 7.26103 6.81849C7.31996 6.64343 7.30731 6.45217 7.22584 6.2864C6.91994 5.676 6.31094 5.2 5.55004 5.2ZM10.45 5.2C9.68914 5.2 9.08014 5.676 8.77424 6.2864C8.69401 6.4461 8.6779 6.63043 8.72921 6.80163C8.78052 6.97282 8.89537 7.11791 9.05021 7.20715C9.20506 7.29638 9.38817 7.32302 9.56202 7.28158C9.73587 7.24015 9.88729 7.13379 9.98524 6.9843L10.0258 6.9136C10.1392 6.6868 10.3128 6.6 10.45 6.6C10.569 6.6 10.7174 6.6665 10.8287 6.8352L10.8742 6.9136C10.915 6.99651 10.9717 7.07053 11.0412 7.1314C11.1107 7.19228 11.1916 7.23879 11.2791 7.26826C11.3667 7.29774 11.4592 7.30959 11.5514 7.30314C11.6435 7.29668 11.7335 7.27205 11.8161 7.23067C11.8987 7.18928 11.9723 7.13195 12.0326 7.06199C12.0929 6.99203 12.1388 6.91082 12.1676 6.82304C12.1964 6.73526 12.2075 6.64265 12.2004 6.55055C12.1932 6.45844 12.1679 6.36867 12.1258 6.2864C11.8206 5.676 11.2109 5.2 10.45 5.2Z" fill="#989898"/>
</svg>
