<svg width="16" height="16" viewBox="0 0 16 16" fill="none" xmlns="http://www.w3.org/2000/svg">
<path d="M14 13.3335C14.1699 13.3337 14.3334 13.3988 14.4569 13.5154C14.5805 13.6321 14.6548 13.7915 14.6648 13.9611C14.6747 14.1307 14.6195 14.2978 14.5105 14.4281C14.4014 14.5584 14.2467 14.6421 14.078 14.6622L14 14.6669H2C1.83008 14.6667 1.66664 14.6016 1.54309 14.485C1.41953 14.3683 1.34518 14.2089 1.33522 14.0393C1.32526 13.8696 1.38045 13.7026 1.48951 13.5723C1.59857 13.442 1.75327 13.3583 1.922 13.3382L2 13.3335H14ZM5.28667 2.78485L9.662 6.35819L12.7107 5.78819C13.0778 5.71962 13.4568 5.75522 13.8047 5.89096C14.1526 6.02669 14.4556 6.25713 14.6793 6.55619L14.7873 6.70219C14.9073 6.87352 14.998 7.05152 14.9507 7.28085C14.8784 7.63422 14.7091 7.96048 14.4619 8.22306C14.2146 8.48564 13.8991 8.67417 13.5507 8.76752L3.472 11.4669C3.27429 11.5198 3.06511 11.5107 2.87269 11.441C2.68027 11.3713 2.51389 11.2442 2.396 11.0769L0.619999 8.55552C0.589226 8.51163 0.569493 8.46096 0.562472 8.40782C0.555452 8.35468 0.561351 8.30063 0.57967 8.25025C0.597989 8.19987 0.628187 8.15466 0.667703 8.11844C0.707219 8.08222 0.754888 8.05606 0.806666 8.04219L1.88867 7.75152C2.04773 7.70883 2.21488 7.70609 2.37526 7.74354C2.53564 7.78099 2.68429 7.85747 2.808 7.96619L3.30533 8.40352L3.312 8.40485L6.112 7.31152C6.11301 7.31114 6.11392 7.31052 6.11464 7.30972C6.11536 7.30891 6.11588 7.30794 6.11614 7.30689C6.1164 7.30584 6.11641 7.30474 6.11615 7.30369C6.11589 7.30264 6.11538 7.30167 6.11467 7.30085L2.96467 3.46419C2.92933 3.4211 2.90536 3.36985 2.89494 3.31511C2.88452 3.26037 2.88799 3.2039 2.90504 3.15084C2.92208 3.09779 2.95215 3.04986 2.9925 3.01143C3.03284 2.973 3.08218 2.9453 3.136 2.93085L4.396 2.59352C4.549 2.5526 4.70954 2.54861 4.86439 2.58188C5.01923 2.61514 5.16397 2.68471 5.28667 2.78485Z" fill="#BDBDBD"/>
</svg>
