<svg width="16" height="16" viewBox="0 0 16 16" fill="none" xmlns="http://www.w3.org/2000/svg">
<path fill-rule="evenodd" clip-rule="evenodd" d="M3.33333 1C2.04467 1 1 2.04467 1 3.33333V12.6667C1 13.9553 2.04467 15 3.33333 15H12.6667C13.9553 15 15 13.9553 15 12.6667V3.33333C15 2.04467 13.9553 1 12.6667 1H3.33333ZM8.36108 3.91659C8.91337 3.91659 9.36108 4.3643 9.36108 4.91659V6.63871H11.0835C11.6358 6.63871 12.0835 7.08643 12.0835 7.63871V8.36093C12.0835 8.91322 11.6358 9.36093 11.0835 9.36093H9.36108V11.0833C9.36108 11.6355 8.91337 12.0833 8.36108 12.0833H7.63886C7.08658 12.0833 6.63886 11.6355 6.63886 11.0833V9.36093H4.91683C4.36454 9.36093 3.91683 8.91322 3.91683 8.36093V7.63871C3.91683 7.08643 4.36454 6.63871 4.91683 6.63871H6.63886V4.91659C6.63886 4.3643 7.08658 3.91659 7.63886 3.91659H8.36108Z" fill="#BDBDBD"/>
</svg>
