<svg width="16" height="16" viewBox="0 0 16 16" fill="none" xmlns="http://www.w3.org/2000/svg">
<g clip-path="url(#clip0_10370_17591)">
<path fill-rule="evenodd" clip-rule="evenodd" d="M8 14.2293C5.94879 14.2293 4.12913 13.2378 2.99412 11.708C3.25217 11.6969 3.482 11.6814 3.67444 11.6654C4.14383 11.6265 4.63491 11.4287 4.93934 10.9974C5.30517 10.4792 5.5283 9.88081 5.65285 9.46642C5.77833 9.04897 5.73284 8.62395 5.62576 8.24841C5.542 7.95452 5.44662 7.57643 5.39158 7.21734C5.33401 6.84196 5.33072 6.54641 5.38461 6.38398C5.40238 6.3305 5.45853 6.2553 5.59845 6.1718C5.73498 6.09031 5.91745 6.02147 6.12285 5.96585C6.53241 5.85498 6.9719 5.81259 7.16612 5.79856C7.23596 5.79351 7.3292 5.78614 7.42657 5.76154C7.69749 5.69302 8.33995 5.47244 8.9852 4.82531C9.32189 4.48763 9.47501 4.03411 9.49024 3.5913C9.50407 3.18791 9.50871 2.60723 9.46686 1.94464C12.1993 2.60417 14.2292 5.06509 14.2292 8.00011C14.2292 8.1292 14.2252 8.25736 14.2175 8.38446C12.8381 8.12527 11.5169 7.94785 10.6806 7.84732C10.0443 7.77081 9.30909 7.88179 8.8088 8.41267C8.63206 8.60025 8.48348 8.79642 8.35877 8.99026C7.69209 10.0268 8.26524 11.2267 9.11493 11.882L9.82371 12.4285C9.99465 12.5604 10.1006 12.7664 10.1133 12.992C10.126 13.2168 10.1463 13.5061 10.1783 13.8378C9.50024 14.0909 8.76629 14.2293 8 14.2293ZM8 0.493164C3.85403 0.493164 0.493057 3.85414 0.493057 8.00011C0.493057 12.1461 3.85403 15.5071 8 15.5071C12.146 15.5071 15.5069 12.1461 15.5069 8.00011C15.5069 3.85414 12.146 0.493164 8 0.493164Z" fill="#BDBDBD"/>
</g>
<defs>
<clipPath id="clip0_10370_17591">
<rect width="16" height="16" fill="white"/>
</clipPath>
</defs>
</svg>
