<svg width="16" height="16" viewBox="0 0 16 16" fill="none" xmlns="http://www.w3.org/2000/svg">
<path fill-rule="evenodd" clip-rule="evenodd" d="M1.42856 13.2857V2.57143C1.42856 1.15127 2.57983 0 3.99999 0H12C13.4201 0 14.5714 1.15127 14.5714 2.57143V11.4286C14.5714 11.9019 14.1876 12.2857 13.7143 12.2857H13.4286V14.2857H13.7143C14.1876 14.2857 14.5714 14.6695 14.5714 15.1429C14.5714 15.6162 14.1876 16 13.7143 16H4.14284C2.64378 16 1.42856 14.7848 1.42856 13.2857ZM11.7143 12.2857H4.14284C3.59056 12.2857 3.14284 12.7335 3.14284 13.2857C3.14284 13.8379 3.59056 14.2857 4.14284 14.2857H11.7143V12.2857ZM12.3551 5.45403C12.2569 5.26426 12.0611 5.14509 11.8474 5.14509H9.20168C8.88609 5.14509 8.63025 5.40093 8.63025 5.71651C8.63025 6.03211 8.88609 6.28794 9.20168 6.28794H10.7424L8.57002 9.35489C8.44652 9.52923 8.4306 9.7579 8.52874 9.94767C8.62687 10.1374 8.82267 10.2566 9.03632 10.2566H12.0128C12.3284 10.2566 12.5842 10.0008 12.5842 9.68519C12.5842 9.3696 12.3284 9.11376 12.0128 9.11376H10.1413L12.3138 6.04681C12.4372 5.87248 12.4531 5.64381 12.3551 5.45403ZM6.64441 3.00498C6.50417 2.58427 6.11046 2.3005 5.66699 2.3005C5.22353 2.3005 4.82982 2.58427 4.68959 3.00498L3.91646 5.32435C3.91347 5.33265 3.91067 5.34104 3.90807 5.34951L3.47128 6.65991C3.37147 6.9593 3.53328 7.28291 3.83267 7.38271C4.13208 7.4825 4.45569 7.3207 4.55548 7.0213L4.8662 6.08914H6.46778L6.7785 7.0213C6.87831 7.3207 7.20192 7.4825 7.50131 7.38271C7.80071 7.28291 7.96251 6.9593 7.86272 6.65991L7.42592 5.34952C7.42331 5.34104 7.42051 5.33265 7.41753 5.32435L6.64441 3.00498ZM5.24715 4.94629L5.66699 3.68678L6.08683 4.94629H5.24715Z" fill="#BDBDBD"/>
</svg>
