<svg width="16" height="16" viewBox="0 0 16 16" fill="none" xmlns="http://www.w3.org/2000/svg">
<path fill-rule="evenodd" clip-rule="evenodd" d="M1.57131 6.89908C1.57131 3.36496 4.44947 0.5 7.99988 0.5C11.5503 0.5 14.4285 3.36496 14.4285 6.89908C14.4285 9.19207 13.2398 11.1209 11.9474 12.5443C10.651 13.9723 9.20243 14.9452 8.57237 15.3357C8.21896 15.5548 7.78079 15.5548 7.42739 15.3357C6.79733 14.9452 5.34875 13.9723 4.05233 12.5443C2.75996 11.1209 1.57131 9.19207 1.57131 6.89908ZM7.99988 9.52437C9.45647 9.52437 10.6372 8.34898 10.6372 6.89908C10.6372 5.44917 9.45647 4.27382 7.99988 4.27382C6.54329 4.27382 5.36252 5.44921 5.36252 6.89908C5.36252 8.34895 6.54329 9.52437 7.99988 9.52437Z" fill="#BDBDBD"/>
</svg>
