<svg width="16" height="16" viewBox="0 0 16 16" fill="none" xmlns="http://www.w3.org/2000/svg">
<path fill-rule="evenodd" clip-rule="evenodd" d="M5.17746 0C5.65086 0 6.03461 0.383755 6.03461 0.857143V3.80159C6.70553 3.77406 7.3846 3.75558 7.99912 3.75558C8.6142 3.75558 9.29391 3.77409 9.96542 3.80167V0.857143C9.96542 0.383755 10.3492 0 10.8226 0C11.2959 0 11.6797 0.383755 11.6797 0.857143V3.88968C11.775 3.89544 11.8684 3.9012 11.9597 3.90695C13.3145 3.99224 14.4581 4.93337 14.7052 6.2284C15.0874 8.23247 14.7316 9.89318 13.878 11.1654C13.1078 12.3131 11.962 13.1011 10.6899 13.5483C10.671 13.8471 10.6479 14.1399 10.6255 14.4232L10.6252 14.4273C10.6036 14.7002 10.5828 14.9639 10.5663 15.2222C10.5488 15.4952 10.3402 15.7176 10.0688 15.7525C9.88495 15.7761 9.69577 15.8072 9.49128 15.8409L9.47292 15.8439C9.03259 15.9165 8.52598 16 7.99992 16C7.47389 16 6.96732 15.9165 6.527 15.8439L6.50857 15.8409C6.30408 15.8072 6.1149 15.7761 5.93105 15.7525C5.65964 15.7176 5.45102 15.4952 5.43356 15.2222C5.41704 14.9639 5.39623 14.7002 5.37468 14.4273L5.37437 14.4233C5.35197 14.1398 5.32882 13.8469 5.30988 13.5479C4.03838 13.1006 2.89292 12.3127 2.12279 11.1653C1.26918 9.89347 0.912823 8.23331 1.29384 6.22979C1.54025 4.93407 2.68418 3.99221 4.03954 3.90689C4.1311 3.90113 4.22479 3.89535 4.32032 3.88958V0.857143C4.32032 0.383755 4.70408 0 5.17746 0Z" fill="#BDBDBD"/>
</svg>
