<svg width="16" height="16" viewBox="0 0 16 16" fill="none" xmlns="http://www.w3.org/2000/svg">
<path d="M13.9179 1.88276C13.8627 1.86434 13.8063 1.85513 13.7487 1.85513C11.8906 1.85513 10.0509 1.57537 8.27679 1.02277C8.17317 0.990535 8.06611 0.991686 7.96249 1.02277C6.18265 1.59034 4.31646 1.87815 2.39962 1.87815C2.10605 1.87815 1.88501 2.11646 1.88501 2.41003V2.43421C1.88501 7.80252 1.86774 12.0414 7.84161 14.9461C7.91529 14.9818 7.97861 14.999 8.05805 14.999C8.13748 14.999 8.21922 14.9818 8.2929 14.9449C14.2863 11.9988 14.2863 7.75762 14.2863 2.38701C14.2863 2.16021 14.1332 1.95529 13.9179 1.88161V1.88276ZM11.4508 6.94713L10.1614 8.20546L10.4573 9.93349C10.4688 9.97724 10.4757 10.029 10.4757 10.0774C10.4757 10.371 10.2374 10.615 9.94381 10.615H9.9415C9.85746 10.615 9.77227 10.5886 9.69513 10.5471L8.09949 9.70555L6.505 10.5425C6.32656 10.6369 6.10897 10.6208 5.94549 10.5011C5.78201 10.3825 5.70027 10.181 5.73481 9.98185L6.03874 8.20546L4.74819 6.94713C4.60428 6.80668 4.55132 6.59485 4.61464 6.40259C4.67681 6.21033 4.84259 6.07103 5.04291 6.0411L6.8262 5.78206L7.62402 4.16685C7.71267 3.98495 7.89802 3.87098 8.09949 3.87098C8.30096 3.87098 8.48631 3.98495 8.57611 4.16685L9.37393 5.78206L11.1572 6.0411C11.3575 6.07103 11.5233 6.21033 11.5855 6.40259C11.6477 6.59485 11.5959 6.80668 11.4508 6.94713Z" fill="#BDBDBD"/>
</svg>
