<svg width="16" height="16" viewBox="0 0 16 16" fill="none" xmlns="http://www.w3.org/2000/svg">
<path fill-rule="evenodd" clip-rule="evenodd" d="M8.99996 0.75C8.56646 0.75 8.18914 0.907269 7.88152 1.21489C7.57389 1.52251 7.41663 1.89984 7.41663 2.33333C7.41663 2.76683 7.57389 3.14416 7.88152 3.45178C8.04039 3.61065 8.21786 3.72942 8.41205 3.80714C8.27972 3.76912 8.14214 3.75 7.99996 3.75C7.81791 3.75 7.62607 3.7792 7.42585 3.83381C7.22447 3.88873 6.92433 4.00328 6.53446 4.17036L4.20347 5.17358C3.92827 5.29202 3.74996 5.56288 3.74996 5.86248V8.16667C3.74996 8.58088 4.08575 8.91667 4.49996 8.91667H4.83329C5.24751 8.91667 5.58329 8.58088 5.58329 8.16667V6.74203C5.58329 6.63893 5.64659 6.5464 5.74268 6.50903L5.77582 6.49614C5.9596 6.42468 6.14991 6.58415 6.11169 6.77759L5.31927 10.7892C5.29232 10.9257 5.15918 11.0139 5.02302 10.9855L2.81104 10.5247C2.40323 10.4398 2.00433 10.7034 1.92263 11.1119L1.8526 11.462C1.77152 11.8674 2.03376 12.262 2.4389 12.3442L6.07152 13.0812C6.47079 13.1622 6.86171 12.9097 6.952 12.5124L7.31535 10.9137C7.35835 10.7245 7.59107 10.6542 7.73155 10.788L8.33904 11.3666C8.38858 11.4138 8.41663 11.4792 8.41663 11.5476V14.8333C8.41663 15.2475 8.75241 15.5833 9.16663 15.5833H9.49996C9.91417 15.5833 10.25 15.2475 10.25 14.8333V10.5476C10.25 10.3424 10.1658 10.1461 10.0172 10.0045L8.97186 9.00896C8.90977 8.94982 8.88231 8.86298 8.89913 8.77889L9.04505 8.0493C9.06455 7.95178 9.1382 7.87445 9.25268 7.83906C9.36948 7.80294 9.50139 7.82093 9.59765 7.89249C9.87399 8.0979 10.1751 8.27827 10.5004 8.43387C11.0186 8.68169 11.5665 8.83414 12.1428 8.89113C12.5814 8.93452 12.9166 8.57327 12.9166 8.16667V7.83333C12.9166 7.41147 12.5776 7.10389 12.2018 7.05271C11.7997 6.99796 11.4349 6.86998 11.1046 6.6696C10.6421 6.38893 10.2795 6.03307 10.0125 5.60174L9.34661 4.5363L9.34593 4.53519C9.20311 4.30186 9.01379 4.11269 8.78032 3.97001C8.70642 3.92485 8.63035 3.88658 8.55225 3.85527C8.69371 3.89609 8.84316 3.91667 8.99996 3.91667C9.43346 3.91667 9.81078 3.7594 10.1184 3.45178C10.426 3.14416 10.5833 2.76683 10.5833 2.33333C10.5833 1.89984 10.426 1.52251 10.1184 1.21489C9.81078 0.907269 9.43346 0.75 8.99996 0.75Z" fill="#BDBDBD"/>
</svg>
