<svg width="16" height="16" viewBox="0 0 16 16" fill="none" xmlns="http://www.w3.org/2000/svg">
<path d="M7.26543 1.42229C7.3403 1.2938 7.44756 1.18719 7.5765 1.11309C7.70544 1.03899 7.85156 1 8.00027 1C8.14898 1 8.2951 1.03899 8.42404 1.11309C8.55298 1.18719 8.66023 1.2938 8.73511 1.42229L10.6369 4.68688L14.3301 5.48704C14.4754 5.51861 14.6098 5.58771 14.7201 5.68745C14.8303 5.78718 14.9125 5.91408 14.9584 6.05547C15.0043 6.19687 15.0124 6.34783 14.9818 6.49331C14.9512 6.63879 14.883 6.77371 14.7839 6.8846L12.2664 9.70217L12.6475 13.4614C12.6625 13.6095 12.6384 13.7588 12.5777 13.8947C12.5169 14.0305 12.4216 14.148 12.3012 14.2354C12.1808 14.3229 12.0396 14.3772 11.8917 14.393C11.7437 14.4089 11.5942 14.3856 11.4581 14.3255L8.00027 12.8014L4.54244 14.3255C4.4063 14.3856 4.25679 14.4089 4.10885 14.393C3.9609 14.3772 3.81969 14.3229 3.69932 14.2354C3.57895 14.148 3.48363 14.0305 3.42287 13.8947C3.36211 13.7588 3.33805 13.6095 3.35308 13.4614L3.73411 9.70217L1.2166 6.88528C1.11741 6.77439 1.04905 6.63943 1.01834 6.49386C0.987623 6.34829 0.99563 6.19721 1.04156 6.0557C1.08749 5.91419 1.16974 5.78721 1.28009 5.68742C1.39044 5.58764 1.52503 5.51855 1.67043 5.48704L5.36369 4.68688L7.26543 1.42229Z" fill="#BDBDBD"/>
</svg>
