<svg width="16" height="16" viewBox="0 0 16 16" fill="none" xmlns="http://www.w3.org/2000/svg">
<path d="M10.1109 5.19359H11.8095C12.2234 5.19353 12.6323 5.2844 13.0072 5.45978C13.382 5.63516 13.7138 5.89077 13.979 6.20852C14.2442 6.52628 14.4364 6.89842 14.5419 7.29863C14.6474 7.69883 14.6637 8.11734 14.5896 8.52453L13.9468 12.0561C13.8284 12.7068 13.4855 13.2954 12.9777 13.7192C12.47 14.1431 11.8296 14.3753 11.1682 14.3756H5.16673V5.8999L6.45292 1.81179C6.66198 1.32444 7.2016 0.882295 7.88248 1.01367C8.96243 1.22062 10.1109 2.06183 10.1109 3.42782V5.19359ZM3.75412 5.8999C3.19215 5.8999 2.65319 6.12314 2.25582 6.52051C1.85844 6.91789 1.6352 7.45684 1.6352 8.01882V12.2567C1.6352 12.8186 1.85844 13.3576 2.25582 13.755C2.65319 14.1523 3.19215 14.3756 3.75412 14.3756V5.8999Z" fill="#BDBDBD"/>
</svg>
