<svg width="16" height="16" viewBox="0 0 16 16" fill="none" xmlns="http://www.w3.org/2000/svg">
<path fill-rule="evenodd" clip-rule="evenodd" d="M8.00005 1.00977C7.58005 1.00977 7.21483 1.0402 6.8983 1.09498C5.79656 1.27151 5.29742 2.32456 5.38873 3.31065C5.50438 4.56457 5.68699 6.36632 5.88786 7.54111C6.00351 8.20459 6.46004 8.78894 7.19656 8.87416C7.42178 8.89851 7.68352 8.91677 8.00005 8.91677C8.31657 8.91677 8.5844 8.89851 8.80353 8.87416C9.54006 8.78894 9.99658 8.1985 10.1122 7.54111C10.3131 6.36632 10.4957 4.56457 10.6114 3.31065C10.7027 2.31847 10.1975 1.26542 9.10179 1.09498C8.78527 1.0402 8.42005 1.00977 8.00005 1.00977Z" fill="#BDBDBD"/>
<path d="M7.81291 15.0097C9.15761 15.0097 10.2477 13.9196 10.2477 12.5749C10.2477 11.2302 9.15761 10.1401 7.81291 10.1401C6.46821 10.1401 5.37811 11.2302 5.37811 12.5749C5.37811 13.9196 6.46821 15.0097 7.81291 15.0097Z" fill="#BDBDBD"/>
</svg>
