<svg width="24" height="24" viewBox="0 0 24 24" fill="none" xmlns="http://www.w3.org/2000/svg">
<path d="M22.0206 11.1802L13.4453 11.1795L13.4447 2.60421C13.4447 2.45535 13.4154 2.30802 13.3584 2.17049C13.3014 2.03296 13.2181 1.90783 13.1129 1.80258C13.0076 1.69732 12.8825 1.61401 12.745 1.55704C12.6074 1.50008 12.4601 1.47079 12.3112 1.47079C12.1624 1.47079 12.0151 1.49977 11.8775 1.55674C11.74 1.6137 11.615 1.69747 11.5098 1.80273C11.4045 1.90799 11.3207 2.03296 11.2638 2.17049C11.2068 2.30802 11.1778 2.45535 11.1778 2.60421L11.1783 11.1794L2.60372 11.1795C2.30664 11.1849 2.02367 11.3066 1.81547 11.5186C1.60727 11.7306 1.4906 12.0158 1.4906 12.313C1.4906 12.6101 1.60712 12.8955 1.81532 13.1075C2.02351 13.3195 2.30664 13.441 2.60372 13.4464L11.1803 13.447L11.1803 22.0229C11.1803 22.3236 11.2995 22.612 11.5121 22.8246C11.7247 23.0372 12.0132 23.1565 12.3139 23.1565C12.6145 23.1565 12.9028 23.0372 13.1153 22.8246C13.3279 22.612 13.4473 22.3237 13.4473 22.0231L13.4454 13.4465L22.0218 13.4458C22.3225 13.4458 22.6107 13.3264 22.8233 13.1138C23.0359 12.9012 23.1553 12.613 23.1553 12.3123C23.1553 12.0117 23.0361 11.7233 22.8235 11.5107C22.6109 11.2981 22.3225 11.1789 22.0218 11.1789L22.0206 11.1802Z" fill="#fff"/>
</svg>
