<svg width="24" height="24" viewBox="0 0 24 24" fill="none" xmlns="http://www.w3.org/2000/svg">
<path d="M12.3108 15.2744L19.2288 8.35742C19.3408 8.24522 19.4739 8.15595 19.6204 8.09521C19.7668 8.03448 19.9237 8.00342 20.0823 8.00342C20.2408 8.00342 20.3977 8.03448 20.5442 8.09521C20.6906 8.15595 20.8238 8.24522 20.9358 8.35742C21.1558 8.58712 21.2786 8.8929 21.2786 9.21094C21.2786 9.52898 21.1558 9.83475 20.9358 10.0645L13.1648 17.8335C13.0532 17.9461 12.9205 18.0352 12.7742 18.0962C12.6278 18.1572 12.4708 18.189 12.3123 18.189C12.1537 18.189 11.9969 18.1572 11.8506 18.0962C11.7043 18.0352 11.5713 17.9461 11.4597 17.8335L3.68677 10.0605C3.46041 9.83418 3.33325 9.52716 3.33325 9.20703C3.33325 8.88691 3.46041 8.57988 3.68677 8.35352C3.91313 8.12715 4.22016 8 4.54028 8C4.86041 8 5.16744 8.12715 5.3938 8.35352L12.3108 15.2744Z" fill="#BDBDBD"/>
</svg>
