<svg width="24" height="24" viewBox="0 0 24 24" fill="none" xmlns="http://www.w3.org/2000/svg">
<path d="M12.301 9.81494L5.38306 16.7319C5.27104 16.8441 5.13791 16.9334 4.99146 16.9941C4.845 17.0549 4.68809 17.0859 4.52954 17.0859C4.37099 17.0859 4.21408 17.0549 4.06763 16.9941C3.92117 16.9334 3.78804 16.8441 3.67603 16.7319C3.45605 16.5022 3.33325 16.1965 3.33325 15.8784C3.33325 15.5604 3.45605 15.2546 3.67603 15.0249L11.447 7.25586C11.5586 7.14323 11.6913 7.05418 11.8376 6.99316C11.984 6.93215 12.141 6.90039 12.2996 6.90039C12.4581 6.90039 12.6149 6.93215 12.7612 6.99316C12.9076 7.05418 13.0405 7.14323 13.1521 7.25586L20.925 15.0288C21.1514 15.2552 21.2786 15.5622 21.2786 15.8823C21.2786 16.2024 21.1514 16.5095 20.925 16.7358C20.6987 16.9622 20.3917 17.0894 20.0715 17.0894C19.7514 17.0894 19.4444 16.9622 19.218 16.7358L12.301 9.81494Z" fill="#BDBDBD"/>
</svg>
