<svg width="24" height="24" viewBox="0 0 24 24" fill="none" xmlns="http://www.w3.org/2000/svg">
<path d="M13.8737 6.50071L9.18564 11.7694C9.06324 11.9081 8.99463 12.096 8.99463 12.2913C8.99463 12.4867 9.06324 12.674 9.18564 12.8127L13.8737 18.0814C13.9968 18.2198 14.1638 18.2978 14.3379 18.2979C14.512 18.2979 14.6789 18.2202 14.802 18.0819C14.9252 17.9436 14.9945 17.7557 14.9946 17.56C14.9947 17.3643 14.9258 17.177 14.8027 17.0386L10.5792 12.2918L14.8027 7.54504C14.9207 7.40542 14.9854 7.21922 14.9832 7.02667C14.9809 6.83412 14.9119 6.65002 14.7908 6.51386C14.6696 6.3777 14.5061 6.30039 14.3347 6.29791C14.1634 6.29543 13.998 6.3681 13.8737 6.50071Z" fill="#BDBDBD"/>
</svg>
