<svg width="24" height="24" viewBox="0 0 24 24" fill="none" xmlns="http://www.w3.org/2000/svg">
<path d="M17.9983 14.3693L12.7296 9.68125C12.5909 9.55885 12.4031 9.49023 12.2077 9.49023C12.0124 9.49023 11.825 9.55885 11.6863 9.68125L6.41762 14.3693C6.27918 14.4924 6.20127 14.6594 6.20117 14.8335C6.20107 15.0076 6.27881 15.1745 6.41712 15.2976C6.55543 15.4208 6.74334 15.4901 6.93903 15.4902C7.13472 15.4903 7.32199 15.4214 7.46044 15.2983L12.2072 11.0748L16.954 15.2983C17.0936 15.4163 17.2798 15.481 17.4724 15.4788C17.6649 15.4766 17.849 15.4075 17.9852 15.2864C18.1213 15.1652 18.1986 15.0017 18.2011 14.8303C18.2036 14.659 18.1309 14.4936 17.9983 14.3693Z" fill="#BDBDBD"/>
</svg>
