<svg width="24" height="24" viewBox="0 0 24 24" fill="none" xmlns="http://www.w3.org/2000/svg">
<path d="M5.78886 10.6316L11.0575 15.3197C11.1962 15.4421 11.3841 15.5107 11.5795 15.5107C11.7748 15.5107 11.9622 15.4421 12.1009 15.3197L17.3695 10.6316C17.508 10.5086 17.5859 10.3416 17.586 10.1675C17.5861 9.99336 17.5084 9.82652 17.3701 9.70333C17.2317 9.58015 17.0438 9.51083 16.8481 9.51074C16.6524 9.51066 16.4652 9.5796 16.3267 9.70266L11.58 13.9261L6.83319 9.70266C6.69356 9.58466 6.50736 9.52001 6.31482 9.52222C6.12227 9.52442 5.93817 9.59343 5.80201 9.71458C5.66584 9.83573 5.58854 9.99931 5.58606 10.1706C5.58358 10.342 5.65624 10.5074 5.78886 10.6316Z" fill="#BDBDBD"/>
</svg>
