<svg width="24" height="24" viewBox="0 0 24 24" fill="none" xmlns="http://www.w3.org/2000/svg">
<path d="M20.6416 18.8396L13.8205 12.0175L20.6416 5.19532C20.76 5.07691 20.8539 4.93641 20.918 4.78169C20.9821 4.62697 21.0154 4.46116 21.0154 4.2937C21.0154 4.12623 20.9821 3.96042 20.918 3.8057C20.8539 3.65099 20.76 3.51049 20.6416 3.39207C20.5232 3.27366 20.3829 3.17951 20.2282 3.11542C20.0735 3.05133 19.9074 3.01855 19.74 3.01855C19.5725 3.01855 19.4065 3.05133 19.2517 3.11542C19.097 3.17951 18.9568 3.27366 18.8384 3.39207L12.0172 10.214L5.19606 3.39305C4.95546 3.16099 4.63359 3.03266 4.29932 3.03568C3.96506 3.0387 3.64532 3.17283 3.40895 3.40919C3.17258 3.64556 3.03821 3.96531 3.03519 4.29957C3.03217 4.63383 3.16074 4.9557 3.3928 5.1963L10.2149 12.0194L3.3928 18.8415C3.15365 19.0807 3.01904 19.405 3.01904 19.7432C3.01904 20.0814 3.15365 20.4059 3.3928 20.645C3.63196 20.8842 3.95622 21.0186 4.29443 21.0186C4.63264 21.0186 4.95691 20.8842 5.19606 20.645L12.0172 13.821L18.8403 20.6428C19.0795 20.882 19.4037 21.0164 19.7419 21.0164C20.0802 21.0164 20.4044 20.882 20.6436 20.6428C20.8827 20.4037 21.0173 20.0794 21.0173 19.7412C21.0173 19.403 20.8827 19.0787 20.6436 18.8396H20.6416Z" fill="#BDBDBD"/>
</svg>
