<svg width="24" height="24" viewBox="0 0 24 24" fill="none" xmlns="http://www.w3.org/2000/svg">
<path d="M11.3022 14.3254C11.3022 14.7108 11.6146 15.0231 11.9999 15.0231C12.3852 15.0231 12.6976 14.7108 12.6976 14.3254V12.6976H14.3257C14.711 12.6976 15.0233 12.3852 15.0233 11.9999C15.0233 11.6146 14.711 11.3022 14.3257 11.3022H12.6976V9.67433C12.6976 9.28902 12.3852 8.97666 11.9999 8.97666C11.6146 8.97666 11.3022 9.28902 11.3022 9.67433V11.3022H9.67456C9.28925 11.3022 8.97689 11.6146 8.97689 11.9999C8.97689 12.3852 9.28925 12.6976 9.67456 12.6976H11.3022V14.3254Z" fill="#BDBDBD"/>
<path fill-rule="evenodd" clip-rule="evenodd" d="M4.35686 12.6976C4.68874 16.3791 7.62061 19.3109 11.3022 19.6427V21.3021C11.3022 21.6874 11.6146 21.9998 11.9999 21.9998C12.3852 21.9998 12.6976 21.6874 12.6976 21.3021V19.6427C16.3792 19.3109 19.311 16.3791 19.6429 12.6976H21.3023C21.6876 12.6976 22 12.3852 22 11.9999C22 11.6146 21.6876 11.3022 21.3023 11.3022H19.643C19.3113 7.62043 16.3793 4.68839 12.6976 4.35661V2.69767C12.6976 2.31236 12.3852 2 11.9999 2C11.6146 2 11.3022 2.31236 11.3022 2.69767V4.35661C7.62046 4.68839 4.68849 7.62043 4.35682 11.3022H2.6979C2.31258 11.3022 2.00023 11.6146 2.00023 11.9999C2.00023 12.3852 2.31258 12.6976 2.6979 12.6976H4.35686ZM11.9999 5.72089L11.9828 5.72068C8.52849 5.72987 5.72999 8.52844 5.72091 11.9828L5.72112 11.9999L5.72091 12.0169C5.73023 15.4768 8.53785 18.2787 11.9999 18.2787C15.4677 18.2787 18.2789 15.4675 18.2789 11.9997C18.2789 8.53755 15.4769 5.72989 12.017 5.72068L11.9999 5.72089Z" fill="#BDBDBD"/>
<path d="M11.3022 14.3254C11.3022 14.7108 11.6146 15.0231 11.9999 15.0231C12.3852 15.0231 12.6976 14.7108 12.6976 14.3254V12.6976H14.3257C14.711 12.6976 15.0233 12.3852 15.0233 11.9999C15.0233 11.6146 14.711 11.3022 14.3257 11.3022H12.6976V9.67433C12.6976 9.28902 12.3852 8.97666 11.9999 8.97666C11.6146 8.97666 11.3022 9.28902 11.3022 9.67433V11.3022H9.67456C9.28925 11.3022 8.97689 11.6146 8.97689 11.9999C8.97689 12.3852 9.28925 12.6976 9.67456 12.6976H11.3022V14.3254Z" stroke="#BDBDBD" stroke-width="0.6" stroke-linecap="round"/>
<path fill-rule="evenodd" clip-rule="evenodd" d="M4.35686 12.6976C4.68874 16.3791 7.62061 19.3109 11.3022 19.6427V21.3021C11.3022 21.6874 11.6146 21.9998 11.9999 21.9998C12.3852 21.9998 12.6976 21.6874 12.6976 21.3021V19.6427C16.3792 19.3109 19.311 16.3791 19.6429 12.6976H21.3023C21.6876 12.6976 22 12.3852 22 11.9999C22 11.6146 21.6876 11.3022 21.3023 11.3022H19.643C19.3113 7.62043 16.3793 4.68839 12.6976 4.35661V2.69767C12.6976 2.31236 12.3852 2 11.9999 2C11.6146 2 11.3022 2.31236 11.3022 2.69767V4.35661C7.62046 4.68839 4.68849 7.62043 4.35682 11.3022H2.6979C2.31258 11.3022 2.00023 11.6146 2.00023 11.9999C2.00023 12.3852 2.31258 12.6976 2.6979 12.6976H4.35686ZM11.9999 5.72089L11.9828 5.72068C8.52849 5.72987 5.72999 8.52844 5.72091 11.9828L5.72112 11.9999L5.72091 12.0169C5.73023 15.4768 8.53785 18.2787 11.9999 18.2787C15.4677 18.2787 18.2789 15.4675 18.2789 11.9997C18.2789 8.53755 15.4769 5.72989 12.017 5.72068L11.9999 5.72089Z" stroke="#BDBDBD" stroke-width="0.6" stroke-linecap="round"/>
</svg>
