<svg width="145" height="145" viewBox="0 0 145 145" fill="none" xmlns="http://www.w3.org/2000/svg">
<g clip-path="url(#clip0_12381_83945)">
<path d="M0.9375 32.0625C0.9375 14.3894 15.2644 0.0625 32.9375 0.0625H112.938C130.611 0.0625 144.938 14.3894 144.938 32.0625V112.063C144.938 129.736 130.611 144.062 112.937 144.062H32.9375C15.2644 144.062 0.9375 129.736 0.9375 112.062V32.0625Z" fill="#292929"/>
<path d="M78.0401 71.6145C72.3977 71.5233 67.1204 68.9986 63.957 64.8619C62.6643 63.1737 62.9836 60.7707 64.6718 59.478C66.3599 58.1853 68.7629 58.5046 70.0556 60.1928C71.8198 62.4893 74.8464 63.8885 78.1771 63.9493C81.5077 64.0102 84.5951 62.7174 86.4353 60.4818C87.7889 58.8544 90.207 58.6111 91.8344 59.9647C93.4769 61.3183 93.7051 63.7364 92.3515 65.3637C89.036 69.3788 83.6977 71.721 78.0401 71.6145Z" fill="white"/>
<path d="M92.0478 113.985C90.1316 113.955 88.2153 113.62 86.2686 112.966C86.2382 112.966 86.2078 112.951 86.1926 112.936C72.5048 108.1 59.6687 97.3472 50.0568 82.686C43.5019 72.6027 41.0229 61.2418 43.2282 51.4779C46.2091 37.4403 58.2086 26.6725 72.4439 25.2581C83.0595 24.0414 93.3558 27.8892 100.717 35.7977C108.154 43.7975 111.378 54.9454 109.355 65.6219C107.089 79.2641 97.6598 89.4387 88.2 98.7007C86.5575 100.313 83.9264 100.282 82.3143 98.6399C80.7022 96.9974 80.7326 94.3663 82.3752 92.7541C91.2114 84.1156 99.3023 75.4315 101.143 64.2227C101.143 64.1923 101.143 64.1467 101.158 64.1163C102.724 55.8884 100.337 47.6148 94.6029 41.4553C89.0669 35.4935 81.3258 32.6039 73.3412 33.5164C73.3108 33.5164 73.2956 33.5164 73.2652 33.5164C62.7408 34.5506 53.5091 42.8241 51.3191 53.2116C51.3191 53.2268 51.3191 53.2573 51.3191 53.2725C49.5853 60.8464 51.6537 69.9107 56.992 78.1082C65.6 91.2333 76.9304 100.815 88.8844 105.058C93.0516 106.427 96.7777 105.423 100.96 101.818C102.694 100.328 105.325 100.526 106.815 102.26C108.306 104.009 108.108 106.624 106.374 108.115C101.766 112.069 96.9602 114.016 92.0174 113.94L92.0478 113.985Z" fill="white"/>
<path d="M40.2146 118.519C39.591 118.519 38.9676 118.351 38.3744 118.047C36.3365 116.998 35.5455 114.488 36.5949 112.435C37.2641 111.158 37.9181 109.865 38.5873 108.572C38.8154 108.131 39.0435 107.69 39.2717 107.234C40.169 105.454 41.0207 103.781 41.9789 102.61C42.4655 102.032 43.8799 100.314 46.3437 100.223C46.5414 100.223 46.7392 100.223 46.9369 100.238C49.0205 100.466 50.3588 101.622 51.2409 102.382C51.469 102.58 51.6819 102.763 51.8492 102.884C51.9557 102.96 52.047 103.036 52.1382 103.112C54.9974 105.515 59.0734 105.348 61.6588 104.162C63.7424 103.219 66.2214 104.131 67.1643 106.23C68.1073 108.314 67.1948 110.793 65.096 111.736C60.1988 113.956 52.853 114.199 47.2562 109.865C47.0585 110.26 46.8608 110.641 46.6783 110.975C46.4349 111.462 46.1916 111.933 45.9635 112.374C45.3095 113.652 44.6404 114.945 43.9712 116.237C43.226 117.682 41.7354 118.503 40.1994 118.473L40.2146 118.519Z" fill="white"/>
</g>
<defs>
<clipPath id="clip0_12381_83945">
<path d="M0.9375 32.0625C0.9375 14.3894 15.2644 0.0625 32.9375 0.0625H112.938C130.611 0.0625 144.938 14.3894 144.938 32.0625V112.063C144.938 129.736 130.611 144.062 112.937 144.062H32.9375C15.2644 144.062 0.9375 129.736 0.9375 112.062V32.0625Z" fill="white"/>
</clipPath>
</defs>
</svg>
