<svg width="289" height="289" viewBox="0 0 289 289" fill="none" xmlns="http://www.w3.org/2000/svg">
<path d="M154.892 144.167C143.607 143.984 133.053 138.935 126.726 130.661C124.141 127.285 124.779 122.479 128.156 119.893C131.532 117.308 136.338 117.947 138.923 121.323C142.452 125.916 148.505 128.715 155.166 128.836C161.827 128.958 168.002 126.372 171.683 121.901C174.39 118.646 179.226 118.16 182.481 120.867C185.766 123.574 186.222 128.41 183.515 131.665C176.884 139.695 166.208 144.379 154.892 144.167Z" fill="#1AA3DD"/>
<path d="M182.908 228.909C179.076 228.848 175.243 228.179 171.35 226.871C171.289 226.871 171.228 226.84 171.198 226.81C143.822 217.137 118.15 195.632 98.9262 166.31C85.8163 146.143 80.8583 123.422 85.2688 103.894C91.2306 75.8185 115.23 54.283 143.7 51.4542C164.932 49.0208 185.524 56.7164 200.246 72.5334C215.12 88.5329 221.569 110.829 217.523 132.182C212.991 159.466 194.132 179.815 175.213 198.339C171.927 201.564 166.665 201.503 163.441 198.218C160.217 194.933 160.278 189.671 163.563 186.446C181.235 169.169 197.417 151.801 201.098 129.383C201.098 129.323 201.098 129.231 201.128 129.171C204.261 112.715 199.486 96.1676 188.018 83.8486C176.946 71.925 161.464 66.1457 145.495 67.9708C145.434 67.9708 145.404 67.9708 145.343 67.9708C124.294 70.0392 105.831 86.5862 101.451 107.361C101.451 107.392 101.451 107.453 101.451 107.483C97.9831 122.631 102.12 140.759 112.796 157.154C130.013 183.405 152.673 202.567 176.581 211.054C184.916 213.791 192.368 211.784 200.733 204.575C204.2 201.594 209.463 201.99 212.443 205.457C215.424 208.955 215.029 214.187 211.561 217.168C202.345 225.076 192.733 228.97 182.847 228.818L182.908 228.909Z" fill="#1AA3DD"/>
<path d="M79.2417 237.975C77.9946 237.975 76.7476 237.641 75.5613 237.032C71.4854 234.934 69.9036 229.915 72.0024 225.808C73.3407 223.253 74.6487 220.668 75.987 218.082C76.4433 217.2 76.8996 216.318 77.3558 215.406C79.1505 211.847 80.8539 208.501 82.7702 206.159C83.7436 205.003 86.5724 201.566 91.4999 201.383C91.8954 201.383 92.2908 201.383 92.6863 201.414C96.8534 201.87 99.53 204.182 101.294 205.703C101.75 206.098 102.176 206.463 102.511 206.706C102.724 206.858 102.906 207.01 103.089 207.163C108.807 211.969 116.959 211.634 122.13 209.261C126.297 207.376 131.255 209.201 133.141 213.398C135.027 217.565 133.202 222.523 129.004 224.409C119.21 228.85 104.518 229.337 93.3249 220.668C92.9295 221.459 92.534 222.219 92.169 222.888C91.6824 223.862 91.1958 224.805 90.7395 225.687C89.4316 228.242 88.0932 230.827 86.7549 233.413C85.2644 236.302 82.2834 237.945 79.2113 237.884L79.2417 237.975Z" fill="#1AA3DD"/>
</svg>
