<svg width="32" height="32" viewBox="0 0 32 32" fill="none" xmlns="http://www.w3.org/2000/svg">
<path d="M16.2553 4.95312C12.9424 4.95312 10.8442 5.28441 9.62949 5.50527C8.30434 5.83656 7.53133 6.94086 7.4209 8.15558C7.31047 9.70159 7.20004 12.5728 7.20004 17.1004C7.20004 20.7445 7.20004 23.0636 7.31047 24.6096C7.31047 25.6034 7.75219 26.4869 8.63563 26.8182C9.40863 27.1494 10.4025 27.039 11.1755 26.4869L14.9301 23.947C15.7031 23.3948 16.697 23.3948 17.47 23.947L21.2246 26.3764C21.9976 26.9286 22.9915 27.1494 23.7645 26.7077C24.6479 26.266 24.9792 25.493 25.0896 24.4991C25.2 22.9531 25.2 20.6341 25.2 16.9899C25.2 12.4623 25.0896 9.59116 24.9792 8.04515C24.8688 6.83043 24.2062 5.72613 22.881 5.39484C21.6663 5.28441 19.5681 4.95312 16.2553 4.95312Z" fill="#BDBDBD"/>
</svg>
