<svg width="32" height="32" viewBox="0 0 32 32" fill="none" xmlns="http://www.w3.org/2000/svg">
<path d="M4.1804 27.5C3.65112 27.5 3.22206 27.0709 3.22206 26.5417V25.9028C3.22206 25.3735 3.65112 24.9444 4.18039 24.9444H7.37484C7.90411 24.9444 8.33317 24.5154 8.33317 23.9861V20.7917C8.33317 20.2624 7.90411 19.8333 7.37484 19.8333H6.73595C6.20668 19.8333 5.77762 19.4043 5.77762 18.875V18.2361C5.77762 17.7068 6.20668 17.2778 6.73595 17.2778H7.64376C8.11459 17.2778 8.50896 16.9335 8.6314 16.4789C8.97146 15.2161 9.62275 14.1035 10.5853 13.141C11.5478 12.1785 12.6604 11.5272 13.9231 11.1871C14.3778 11.0647 14.7221 10.6703 14.7221 10.1995V5.45833C14.7221 4.92906 15.1511 4.5 15.6804 4.5H22.7082C23.2374 4.5 23.6665 4.92906 23.6665 5.45833V8.65278C23.6665 9.18205 23.2374 9.61111 22.7082 9.61111H18.0363C17.6173 9.61111 17.2776 9.95077 17.2776 10.3698C17.2776 10.7425 17.5497 11.0558 17.9116 11.1447C19.2426 11.4713 20.4102 12.1368 21.4144 13.141C22.3769 14.1035 23.0282 15.2161 23.3683 16.4789C23.4907 16.9335 23.8851 17.2778 24.3559 17.2778H25.2637C25.793 17.2778 26.2221 17.7068 26.2221 18.2361V18.875C26.2221 19.4043 25.793 19.8333 25.2637 19.8333H24.6248C24.0956 19.8333 23.6665 20.2624 23.6665 20.7917V23.9861C23.6665 24.5154 24.0956 24.9444 24.6248 24.9444H27.8193C28.3486 24.9444 28.7776 25.3735 28.7776 25.9028V26.5417C28.7776 27.0709 28.3486 27.5 27.8193 27.5H4.1804ZM10.8887 23.9861C10.8887 24.5154 11.3178 24.9444 11.8471 24.9444H13.7637C14.293 24.9444 14.7221 24.5154 14.7221 23.9861V20.7917C14.7221 20.2624 14.293 19.8333 13.7637 19.8333H11.8471C11.3178 19.8333 10.8887 20.2624 10.8887 20.7917V23.9861ZM17.2776 23.9861C17.2776 24.5154 17.7067 24.9444 18.236 24.9444H20.1526C20.6819 24.9444 21.111 24.5154 21.111 23.9861V20.7917C21.111 20.2624 20.6819 19.8333 20.1526 19.8333H18.236C17.7067 19.8333 17.2776 20.2624 17.2776 20.7917V23.9861ZM11.5322 16.1214C11.2348 16.6753 11.696 17.2778 12.3247 17.2778H19.6749C20.3037 17.2778 20.7649 16.6753 20.4675 16.1214C20.1352 15.5024 19.6789 14.9668 19.0985 14.5146C18.1827 13.8012 17.1498 13.4444 15.9998 13.4444C14.8498 13.4444 13.817 13.8012 12.9012 14.5146C12.3208 14.9668 11.8645 15.5024 11.5322 16.1214Z" fill="#BDBDBD"/>
<path d="M11.5322 16.1214C11.2348 16.6753 11.696 17.2778 12.3247 17.2778H19.6749C20.3037 17.2778 20.7649 16.6753 20.4675 16.1214C20.1352 15.5024 19.6789 14.9668 19.0985 14.5146C18.1827 13.8012 17.1498 13.4444 15.9998 13.4444C14.8498 13.4444 13.817 13.8012 12.9012 14.5146C12.3208 14.9668 11.8645 15.5024 11.5322 16.1214Z" fill="#BDBDBD"/>
</svg>
