<svg width="32" height="32" viewBox="0 0 32 32" fill="none" xmlns="http://www.w3.org/2000/svg">
<path fill-rule="evenodd" clip-rule="evenodd" d="M8.66667 5C6.64162 5 5 6.64162 5 8.66667V23.3333C5 25.3584 6.64162 27 8.66667 27H23.3333C25.3584 27 27 25.3584 27 23.3333V8.66667C27 6.64162 25.3584 5 23.3333 5H8.66667ZM16.5674 9.58308C17.4353 9.58308 18.1388 10.2866 18.1388 11.1545V13.8604H20.8454C21.7132 13.8604 22.4168 14.564 22.4168 15.4319V16.5668C22.4168 17.4346 21.7132 18.1382 20.8454 18.1382H18.1388V20.845C18.1388 21.7129 17.4353 22.4164 16.5674 22.4164H15.4325C14.5646 22.4164 13.8611 21.7129 13.8611 20.845V18.1382H11.1549C10.287 18.1382 9.58346 17.4346 9.58346 16.5668V15.4319C9.58346 14.564 10.287 13.8604 11.1549 13.8604H13.8611V11.1545C13.8611 10.2866 14.5646 9.58308 15.4325 9.58308H16.5674Z" fill="#BDBDBD"/>
</svg>
