<svg width="32" height="32" viewBox="0 0 32 32" fill="none" xmlns="http://www.w3.org/2000/svg">
<path fill-rule="evenodd" clip-rule="evenodd" d="M5.33333 14.1647C5.33333 8.27366 10.109 3.49805 16 3.49805C21.8911 3.49805 26.6667 8.27366 26.6667 14.1647C26.6667 17.9869 24.6944 21.2021 22.55 23.5748C20.3989 25.9551 17.9953 27.5768 16.9499 28.2278C16.3635 28.5929 15.6365 28.5929 15.0501 28.2278C14.0047 27.5768 11.6011 25.9551 9.45 23.5748C7.30561 21.2021 5.33333 17.9869 5.33333 14.1647ZM16 18.5408C18.4169 18.5408 20.3761 16.5816 20.3761 14.1647C20.3761 11.7479 18.4169 9.78866 16 9.78866C13.5831 9.78866 11.6239 11.7479 11.6239 14.1647C11.6239 16.5815 13.5831 18.5408 16 18.5408Z" fill="#BDBDBD"/>
</svg>
