<svg width="32" height="32" viewBox="0 0 32 32" fill="none" xmlns="http://www.w3.org/2000/svg">
<path fill-rule="evenodd" clip-rule="evenodd" d="M15.9997 4.24219C20.5405 4.24219 24.3274 7.71724 24.7129 12.2411L24.985 15.444C25.1097 16.8726 25.5632 18.2558 26.3172 19.4803L27.1618 20.8465C28.0065 22.2184 27.5473 23.6356 25.9487 23.851C24.1176 24.0948 21.0677 24.3102 15.994 24.3102C10.9203 24.3102 7.87045 24.0948 6.03939 23.851C4.44075 23.6356 3.9759 22.2184 4.82624 20.8465L5.67091 19.4803C6.42488 18.2558 6.88406 16.8782 7.00311 15.444L7.27522 12.2411C7.6607 7.71724 11.4476 4.24219 15.9884 4.24219H15.9997ZM15.9997 26.0336C14.1346 26.0336 12.536 26.0052 11.1584 25.9542C12.0655 27.7059 13.8909 28.902 15.9997 28.902C18.1085 28.902 19.9339 27.7059 20.841 25.9542C19.4634 26.0052 17.8648 26.0336 15.9997 26.0336Z" fill="#BDBDBD"/>
</svg>
