<svg width="32" height="32" viewBox="0 0 32 32" fill="none" xmlns="http://www.w3.org/2000/svg">
<path d="M26.4987 5.14783C26.4007 5.11515 26.3006 5.09881 26.1985 5.09881C22.9022 5.09881 19.6385 4.60252 16.4913 3.6222C16.3075 3.56502 16.1176 3.56706 15.9338 3.6222C12.7763 4.62907 9.46569 5.13966 6.06521 5.13966C5.54441 5.13966 5.15228 5.56242 5.15228 6.08321V6.1261C5.15228 15.6495 5.12165 23.1694 15.7193 28.3222C15.85 28.3855 15.9623 28.4161 16.1033 28.4161C16.2442 28.4161 16.3892 28.3855 16.5199 28.3201C27.1523 23.0938 27.1523 15.5698 27.1523 6.04237C27.1523 5.64003 26.8807 5.27649 26.4987 5.14578V5.14783ZM22.122 14.132L19.8346 16.3643L20.3595 19.4299C20.3799 19.5075 20.3922 19.5994 20.3922 19.6851C20.3922 20.2059 19.9694 20.6389 19.4486 20.6389H19.4445C19.2954 20.6389 19.1443 20.5919 19.0075 20.5184L16.1768 19.0255L13.3482 20.5102C13.0316 20.6777 12.6456 20.6491 12.3556 20.4367C12.0656 20.2264 11.9206 19.869 11.9818 19.5156L12.521 16.3643L10.2316 14.132C9.97627 13.8829 9.88232 13.5071 9.99465 13.166C10.1049 12.825 10.399 12.5778 10.7544 12.5247L13.918 12.0652L15.3333 9.19981C15.4906 8.87712 15.8194 8.67493 16.1768 8.67493C16.5342 8.67493 16.863 8.87712 17.0223 9.19981L18.4377 12.0652L21.6012 12.5247C21.9566 12.5778 22.2507 12.825 22.361 13.166C22.4713 13.5071 22.3794 13.8829 22.122 14.132Z" fill="#BDBDBD"/>
</svg>
