<svg width="32" height="32" viewBox="0 0 32 32" fill="none" xmlns="http://www.w3.org/2000/svg">
<path fill-rule="evenodd" clip-rule="evenodd" d="M17.8062 2.3623C16.9896 2.3623 16.2788 2.65856 15.6993 3.23803C15.1199 3.8175 14.8236 4.52827 14.8236 5.34486C14.8236 6.16145 15.1199 6.87223 15.6993 7.4517C15.9986 7.75098 16.3329 7.97471 16.6987 8.12111C16.4494 8.04949 16.1903 8.01347 15.9224 8.01347C15.5795 8.01347 15.2181 8.06848 14.841 8.17134C14.4616 8.27479 13.8963 8.49057 13.1618 8.80532L8.77091 10.6951C8.2525 10.9182 7.91662 11.4284 7.91662 11.9928V16.3332C7.91662 17.1135 8.54915 17.746 9.32941 17.746H9.95732C10.7376 17.746 11.3701 17.1135 11.3701 16.3332V13.6496C11.3701 13.4554 11.4893 13.2811 11.6704 13.2107L11.7328 13.1864C12.079 13.0518 12.4375 13.3522 12.3655 13.7166L10.8728 21.2734C10.822 21.5305 10.5712 21.6967 10.3147 21.6432L6.14795 20.7751C5.37977 20.6151 4.62834 21.1117 4.47445 21.8812L4.34252 22.5408C4.1898 23.3044 4.68378 24.0476 5.44695 24.2025L12.2898 25.5909C13.0419 25.7435 13.7783 25.2677 13.9484 24.5194L14.6328 21.5078C14.7138 21.1514 15.1522 21.0191 15.4168 21.2711L16.5612 22.361C16.6545 22.4499 16.7073 22.5731 16.7073 22.702V28.8914C16.7073 29.6716 17.3398 30.3042 18.1201 30.3042H18.748C19.5283 30.3042 20.1608 29.6716 20.1608 28.8914V20.8183C20.1608 20.4316 20.0023 20.0619 19.7224 19.7952L17.7532 17.9199C17.6363 17.8085 17.5845 17.6449 17.6162 17.4865L17.8911 16.1121C17.9278 15.9284 18.0666 15.7828 18.2822 15.7161C18.5022 15.6481 18.7507 15.682 18.9321 15.8168C19.4526 16.2037 20.0198 16.5435 20.6326 16.8366C21.6087 17.3034 22.6408 17.5906 23.7264 17.6979C24.5526 17.7797 25.1841 17.0992 25.1841 16.3332V15.7053C25.1841 14.9106 24.5455 14.3313 23.8375 14.2349C23.0801 14.1317 22.3929 13.8906 21.7708 13.5132C20.8994 12.9845 20.2165 12.3141 19.7136 11.5016L18.4579 9.49255C18.1888 9.05302 17.8322 8.69667 17.3924 8.42791C17.2532 8.34284 17.1099 8.27075 16.9628 8.21176C17.2293 8.28866 17.5108 8.32742 17.8062 8.32742C18.6227 8.32742 19.3335 8.03117 19.913 7.4517C20.4925 6.87223 20.7887 6.16145 20.7887 5.34486C20.7887 4.52827 20.4925 3.8175 19.913 3.23803C19.3335 2.65856 18.6227 2.3623 17.8062 2.3623Z" fill="#BDBDBD"/>
</svg>
