<svg width="32" height="32" viewBox="0 0 32 32" fill="none" xmlns="http://www.w3.org/2000/svg">
<path fill-rule="evenodd" clip-rule="evenodd" d="M16.0001 2.51953C15.1901 2.51953 14.4858 2.57823 13.8754 2.68388C11.7506 3.02432 10.7879 5.0552 10.964 6.95695C11.1871 9.37523 11.5393 12.85 11.9266 15.1157C12.1497 16.3953 13.0301 17.5222 14.4506 17.6866C14.8849 17.7335 15.3897 17.7688 16.0001 17.7688C16.6106 17.7688 17.1271 17.7335 17.5497 17.6866C18.9702 17.5222 19.8506 16.3835 20.0737 15.1157C20.461 12.85 20.8132 9.37523 21.0363 6.95695C21.2124 5.04346 20.238 3.01258 18.1249 2.68388C17.5145 2.57823 16.8102 2.51953 16.0001 2.51953Z" fill="#BDBDBD"/>
<path d="M15.6393 29.5193C18.2327 29.5193 20.335 27.417 20.335 24.8236C20.335 22.2303 18.2327 20.1279 15.6393 20.1279C13.046 20.1279 10.9436 22.2303 10.9436 24.8236C10.9436 27.417 13.046 29.5193 15.6393 29.5193Z" fill="#BDBDBD"/>
</svg>
