<svg width="32" height="32" viewBox="0 0 32 32" fill="none" xmlns="http://www.w3.org/2000/svg">
<g filter="url(#filter0_d_13553_38661)">
<path d="M4 12C4 5.37258 9.37258 0 16 0V0C22.6274 0 28 5.37258 28 12V12C28 18.6274 22.6274 24 16 24V24C9.37258 24 4 18.6274 4 12V12Z" fill="white"/>
<path fill-rule="evenodd" clip-rule="evenodd" d="M14.8175 18.4933C14.9314 18.8024 15.2269 19.0085 15.5577 19.0085C15.8884 19.0085 16.2057 18.7862 16.3114 18.4581L17.7348 13.9872C17.7755 13.8571 17.8731 13.7514 18.0005 13.6971L22.5039 11.8535C22.8048 11.7315 23 11.4387 23 11.116C23 10.7717 22.7777 10.4653 22.4497 10.3569L12.296 7.04915C11.9409 6.93257 11.5531 7.02746 11.2902 7.29045C11.0163 7.56429 10.9268 7.97098 11.0624 8.33157L14.8175 18.4933Z" fill="black"/>
</g>
<defs>
<filter id="filter0_d_13553_38661" x="0" y="0" width="32" height="32" filterUnits="userSpaceOnUse" color-interpolation-filters="sRGB">
<feFlood flood-opacity="0" result="BackgroundImageFix"/>
<feColorMatrix in="SourceAlpha" type="matrix" values="0 0 0 0 0 0 0 0 0 0 0 0 0 0 0 0 0 0 127 0" result="hardAlpha"/>
<feOffset dy="4"/>
<feGaussianBlur stdDeviation="2"/>
<feComposite in2="hardAlpha" operator="out"/>
<feColorMatrix type="matrix" values="0 0 0 0 0 0 0 0 0 0.707006 0 0 0 0 1 0 0 0 0.2 0"/>
<feBlend mode="normal" in2="BackgroundImageFix" result="effect1_dropShadow_13553_38661"/>
<feBlend mode="normal" in="SourceGraphic" in2="effect1_dropShadow_13553_38661" result="shape"/>
</filter>
</defs>
</svg>
