<svg width="24" height="24" viewBox="0 0 24 24" fill="none" xmlns="http://www.w3.org/2000/svg">
<g id="icon / 24px / line / bookMark">
<path id="Union" fill-rule="evenodd" clip-rule="evenodd" d="M12.1 1.75C8.9828 1.75 7.06638 2.05177 6.05097 2.25485C4.92411 2.48023 4.05918 3.58687 3.95095 4.77736L3.95055 4.78337C3.85008 6.29052 3.75 8.89634 3.75 12.9V12.9089C3.75 15.7973 3.75 18.0011 3.85001 19.7075C3.85225 20.6864 4.2939 21.4702 5.07597 21.9171L5.09746 21.9293L5.12094 21.9372C5.16688 21.9525 5.21192 21.9685 5.2571 21.9845L5.25724 21.9846C5.48825 22.0666 5.72297 22.15 6.1 22.15C6.66553 22.15 7.21191 21.9246 7.7287 21.6145L11.136 19.4101L11.1453 19.4034C11.7584 18.9655 12.6415 18.9657 13.2545 19.4036L16.6642 21.6099L16.6675 21.612C17.5121 22.1399 18.5032 22.2739 19.2052 21.9269C20.0314 21.5691 20.3469 20.7457 20.449 19.7249L20.4496 19.7147C20.55 18.0074 20.55 15.8015 20.55 12.909L20.5501 12.9L20.5499 12.8938C20.4499 8.89366 20.3499 6.28906 20.2495 4.78337L20.2491 4.77924C20.1418 3.49107 19.3786 2.47942 18.1469 2.25443C17.131 2.05136 15.215 1.75 12.1 1.75ZM6.05 5.3C6.05 5.00996 6.27738 4.60874 6.67278 4.4404C7.66395 4.24282 9.34238 3.95 12.1 3.95C14.8808 3.95 16.5625 4.24814 17.4457 4.4444L17.4589 4.4466C17.6885 4.48486 17.8261 4.59348 17.913 4.7325C18.0053 4.88015 18.05 5.07933 18.05 5.3V5.30892L18.0506 5.31781C18.1501 6.71015 18.2498 9.1039 18.2498 12.9L18.2502 12.9096C18.35 15.5057 18.3497 17.6963 18.2505 19.2844L18.25 19.2922V19.3C18.25 19.4838 18.2263 19.618 18.1849 19.709C18.1479 19.7905 18.0979 19.8372 18.0209 19.8628L18.0041 19.8684L17.9882 19.8764C17.967 19.887 17.8883 19.9025 17.7274 19.868C17.5819 19.8369 17.4069 19.7729 17.2247 19.6828L14.0372 17.591L14.0342 17.5891C12.8523 16.837 11.3477 16.837 10.1658 17.5891L6.97522 19.6829C6.59753 19.8705 6.38659 19.923 6.20005 19.8693C6.17452 19.8516 6.1357 19.8094 6.09009 19.709C6.03976 19.5983 5.99569 19.45 5.94796 19.261C5.85014 17.7719 5.85 15.5905 5.85 12.9C5.85 9.1039 5.94991 6.71015 6.04936 5.31781L6.05 5.30892V5.3Z" fill="#1AA3DD"/>
</g>
</svg>
