<svg width="48" height="48" viewBox="0 0 48 48" fill="none" xmlns="http://www.w3.org/2000/svg">
<g filter="url(#filter0_d_15182_12582)">
<path d="M4 20C4 8.95431 12.9543 0 24 0C35.0457 0 44 8.95431 44 20C44 31.0457 35.0457 40 24 40C12.9543 40 4 31.0457 4 20Z" fill="white" shape-rendering="crispEdges"/>
<path d="M23.3022 22.3257C23.3022 22.711 23.6146 23.0234 23.9999 23.0234C24.3852 23.0234 24.6976 22.711 24.6976 22.3257V20.6978H26.3257C26.711 20.6978 27.0234 20.3854 27.0234 20.0001C27.0234 19.6148 26.711 19.3025 26.3257 19.3025H24.6976V17.6746C24.6976 17.2893 24.3852 16.9769 23.9999 16.9769C23.6146 16.9769 23.3022 17.2893 23.3022 17.6746V19.3025H21.6746C21.2893 19.3025 20.9769 19.6148 20.9769 20.0001C20.9769 20.3854 21.2893 20.6978 21.6746 20.6978H23.3022V22.3257Z" fill="#1AA3DD"/>
<path fill-rule="evenodd" clip-rule="evenodd" d="M16.3569 20.6978C16.6888 24.3794 19.6206 27.3112 23.3022 27.6429V29.3023C23.3022 29.6877 23.6146 30 23.9999 30C24.3852 30 24.6976 29.6877 24.6976 29.3023V27.6429C28.3792 27.3112 31.3111 24.3794 31.6429 20.6978H33.3024C33.6877 20.6978 34 20.3854 34 20.0001C34 19.6148 33.6877 19.3025 33.3024 19.3025H31.643C31.3113 15.6207 28.3793 12.6886 24.6976 12.3569V10.6979C24.6976 10.3126 24.3852 10.0002 23.9999 10.0002C23.6146 10.0002 23.3022 10.3126 23.3022 10.6979V12.3569C19.6205 12.6886 16.6885 15.6207 16.3568 19.3025H14.6979C14.3126 19.3025 14.0002 19.6148 14.0002 20.0001C14.0002 20.3854 14.3126 20.6978 14.6979 20.6978H16.3569ZM23.9999 13.7211L23.9828 13.7209C20.5285 13.7301 17.73 16.5287 17.7209 19.983L17.7211 20.0001L17.7209 20.0172C17.7302 23.477 20.5379 26.2789 23.9999 26.2789C27.4677 26.2789 30.2789 23.4677 30.2789 19.9999C30.2789 16.5378 27.4769 13.7301 24.017 13.7209L23.9999 13.7211Z" fill="#1AA3DD"/>
<path d="M23.3022 22.3257C23.3022 22.711 23.6146 23.0234 23.9999 23.0234C24.3852 23.0234 24.6976 22.711 24.6976 22.3257V20.6978H26.3257C26.711 20.6978 27.0234 20.3854 27.0234 20.0001C27.0234 19.6148 26.711 19.3025 26.3257 19.3025H24.6976V17.6746C24.6976 17.2893 24.3852 16.9769 23.9999 16.9769C23.6146 16.9769 23.3022 17.2893 23.3022 17.6746V19.3025H21.6746C21.2893 19.3025 20.9769 19.6148 20.9769 20.0001C20.9769 20.3854 21.2893 20.6978 21.6746 20.6978H23.3022V22.3257Z" stroke="#1AA3DD" stroke-width="0.6" stroke-linecap="round"/>
<path fill-rule="evenodd" clip-rule="evenodd" d="M16.3569 20.6978C16.6888 24.3794 19.6206 27.3112 23.3022 27.6429V29.3023C23.3022 29.6877 23.6146 30 23.9999 30C24.3852 30 24.6976 29.6877 24.6976 29.3023V27.6429C28.3792 27.3112 31.3111 24.3794 31.6429 20.6978H33.3024C33.6877 20.6978 34 20.3854 34 20.0001C34 19.6148 33.6877 19.3025 33.3024 19.3025H31.643C31.3113 15.6207 28.3793 12.6886 24.6976 12.3569V10.6979C24.6976 10.3126 24.3852 10.0002 23.9999 10.0002C23.6146 10.0002 23.3022 10.3126 23.3022 10.6979V12.3569C19.6205 12.6886 16.6885 15.6207 16.3568 19.3025H14.6979C14.3126 19.3025 14.0002 19.6148 14.0002 20.0001C14.0002 20.3854 14.3126 20.6978 14.6979 20.6978H16.3569ZM23.9999 13.7211L23.9828 13.7209C20.5285 13.7301 17.73 16.5287 17.7209 19.983L17.7211 20.0001L17.7209 20.0172C17.7302 23.477 20.5379 26.2789 23.9999 26.2789C27.4677 26.2789 30.2789 23.4677 30.2789 19.9999C30.2789 16.5378 27.4769 13.7301 24.017 13.7209L23.9999 13.7211Z" stroke="#1AA3DD" stroke-width="0.6" stroke-linecap="round"/>
</g>
<defs>
<filter id="filter0_d_15182_12582" x="0" y="0" width="48" height="48" filterUnits="userSpaceOnUse" color-interpolation-filters="sRGB">
<feFlood flood-opacity="0" result="BackgroundImageFix"/>
<feColorMatrix in="SourceAlpha" type="matrix" values="0 0 0 0 0 0 0 0 0 0 0 0 0 0 0 0 0 0 127 0" result="hardAlpha"/>
<feOffset dy="4"/>
<feGaussianBlur stdDeviation="2"/>
<feComposite in2="hardAlpha" operator="out"/>
<feColorMatrix type="matrix" values="0 0 0 0 0 0 0 0 0 0 0 0 0 0 0 0 0 0 0.04 0"/>
<feBlend mode="normal" in2="BackgroundImageFix" result="effect1_dropShadow_15182_12582"/>
<feBlend mode="normal" in="SourceGraphic" in2="effect1_dropShadow_15182_12582" result="shape"/>
</filter>
</defs>
</svg>
