<svg width="48" height="48" viewBox="0 0 48 48" fill="none" xmlns="http://www.w3.org/2000/svg">
<g filter="url(#filter0_d_15182_11756)">
<path d="M4 20C4 8.95431 12.9543 0 24 0C35.0457 0 44 8.95431 44 20C44 31.0457 35.0457 40 24 40C12.9543 40 4 31.0457 4 20Z" fill="white" shape-rendering="crispEdges"/>
<path d="M23.3022 22.3254C23.3022 22.7108 23.6146 23.0231 23.9999 23.0231C24.3852 23.0231 24.6976 22.7108 24.6976 22.3254V20.6976H26.3257C26.711 20.6976 27.0234 20.3852 27.0234 19.9999C27.0234 19.6146 26.711 19.3022 26.3257 19.3022H24.6976V17.6743C24.6976 17.289 24.3852 16.9767 23.9999 16.9767C23.6146 16.9767 23.3022 17.289 23.3022 17.6743V19.3022H21.6746C21.2893 19.3022 20.9769 19.6146 20.9769 19.9999C20.9769 20.3852 21.2893 20.6976 21.6746 20.6976H23.3022V22.3254Z" fill="#989898"/>
<path fill-rule="evenodd" clip-rule="evenodd" d="M16.3569 20.6976C16.6888 24.3791 19.6206 27.3109 23.3022 27.6427V29.3021C23.3022 29.6874 23.6146 29.9998 23.9999 29.9998C24.3852 29.9998 24.6976 29.6874 24.6976 29.3021V27.6427C28.3792 27.3109 31.3111 24.3791 31.6429 20.6976H33.3024C33.6877 20.6976 34 20.3852 34 19.9999C34 19.6146 33.6877 19.3022 33.3024 19.3022H31.643C31.3113 15.6204 28.3793 12.6884 24.6976 12.3566V10.6977C24.6976 10.3124 24.3852 10 23.9999 10C23.6146 10 23.3022 10.3124 23.3022 10.6977V12.3566C19.6205 12.6884 16.6885 15.6204 16.3568 19.3022H14.6979C14.3126 19.3022 14.0002 19.6146 14.0002 19.9999C14.0002 20.3852 14.3126 20.6976 14.6979 20.6976H16.3569ZM23.9999 13.7209L23.9828 13.7207C20.5285 13.7299 17.73 16.5284 17.7209 19.9828L17.7211 19.9999L17.7209 20.0169C17.7302 23.4768 20.5379 26.2787 23.9999 26.2787C27.4677 26.2787 30.2789 23.4675 30.2789 19.9997C30.2789 16.5376 27.4769 13.7299 24.017 13.7207L23.9999 13.7209Z" fill="#989898"/>
<path d="M23.3022 22.3254C23.3022 22.7108 23.6146 23.0231 23.9999 23.0231C24.3852 23.0231 24.6976 22.7108 24.6976 22.3254V20.6976H26.3257C26.711 20.6976 27.0234 20.3852 27.0234 19.9999C27.0234 19.6146 26.711 19.3022 26.3257 19.3022H24.6976V17.6743C24.6976 17.289 24.3852 16.9767 23.9999 16.9767C23.6146 16.9767 23.3022 17.289 23.3022 17.6743V19.3022H21.6746C21.2893 19.3022 20.9769 19.6146 20.9769 19.9999C20.9769 20.3852 21.2893 20.6976 21.6746 20.6976H23.3022V22.3254Z" stroke="#989898" stroke-width="0.6" stroke-linecap="round"/>
<path fill-rule="evenodd" clip-rule="evenodd" d="M16.3569 20.6976C16.6888 24.3791 19.6206 27.3109 23.3022 27.6427V29.3021C23.3022 29.6874 23.6146 29.9998 23.9999 29.9998C24.3852 29.9998 24.6976 29.6874 24.6976 29.3021V27.6427C28.3792 27.3109 31.3111 24.3791 31.6429 20.6976H33.3024C33.6877 20.6976 34 20.3852 34 19.9999C34 19.6146 33.6877 19.3022 33.3024 19.3022H31.643C31.3113 15.6204 28.3793 12.6884 24.6976 12.3566V10.6977C24.6976 10.3124 24.3852 10 23.9999 10C23.6146 10 23.3022 10.3124 23.3022 10.6977V12.3566C19.6205 12.6884 16.6885 15.6204 16.3568 19.3022H14.6979C14.3126 19.3022 14.0002 19.6146 14.0002 19.9999C14.0002 20.3852 14.3126 20.6976 14.6979 20.6976H16.3569ZM23.9999 13.7209L23.9828 13.7207C20.5285 13.7299 17.73 16.5284 17.7209 19.9828L17.7211 19.9999L17.7209 20.0169C17.7302 23.4768 20.5379 26.2787 23.9999 26.2787C27.4677 26.2787 30.2789 23.4675 30.2789 19.9997C30.2789 16.5376 27.4769 13.7299 24.017 13.7207L23.9999 13.7209Z" stroke="#989898" stroke-width="0.6" stroke-linecap="round"/>
</g>
<defs>
<filter id="filter0_d_15182_11756" x="0" y="0" width="48" height="48" filterUnits="userSpaceOnUse" color-interpolation-filters="sRGB">
<feFlood flood-opacity="0" result="BackgroundImageFix"/>
<feColorMatrix in="SourceAlpha" type="matrix" values="0 0 0 0 0 0 0 0 0 0 0 0 0 0 0 0 0 0 127 0" result="hardAlpha"/>
<feOffset dy="4"/>
<feGaussianBlur stdDeviation="2"/>
<feComposite in2="hardAlpha" operator="out"/>
<feColorMatrix type="matrix" values="0 0 0 0 0 0 0 0 0 0 0 0 0 0 0 0 0 0 0.04 0"/>
<feBlend mode="normal" in2="BackgroundImageFix" result="effect1_dropShadow_15182_11756"/>
<feBlend mode="normal" in="SourceGraphic" in2="effect1_dropShadow_15182_11756" result="shape"/>
</filter>
</defs>
</svg>
