<svg width="24" height="24" viewBox="0 0 24 24" fill="none" xmlns="http://www.w3.org/2000/svg">
<path fill-rule="evenodd" clip-rule="evenodd" d="M12 22C6.47556 22 2 17.5244 2 12C2 6.47556 6.47556 2 12 2C17.5244 2 22 6.47556 22 12C22 17.5244 17.5244 22 12 22ZM10.2222 6.88889C10.2222 5.90667 11.0178 5.11111 12 5.11111C12.9822 5.11111 13.7778 5.90667 13.7778 6.88889C13.7778 7.87111 12.9822 8.66667 12 8.66667C11.0178 8.66667 10.2222 7.87111 10.2222 6.88889ZM13.28 10.7156C13.2489 10.2089 12.9244 9.81778 12.4178 9.78667C12.2978 9.77778 12.1556 9.77333 12 9.77333H10.4444C10.1822 9.77333 9.96889 9.77778 9.78667 9.79111C9.25778 9.82222 8.90667 10.2089 8.89333 10.7378C8.89333 10.8489 8.89333 10.9689 8.89333 11.1067C8.89333 11.2444 8.89333 11.3689 8.89333 11.4756C8.90667 12.0044 9.25778 12.3911 9.78667 12.4222C9.96889 12.4311 10.1867 12.44 10.4444 12.44C10.5244 12.44 10.5956 12.44 10.6667 12.44C10.6667 12.5822 10.6667 12.7289 10.6667 12.8844V15.5644C10.1022 15.5778 9.68 15.5956 9.37333 15.6133C8.88889 15.6444 8.49778 15.9422 8.46222 16.4267C8.45333 16.5556 8.44444 16.7067 8.44444 16.8844C8.44444 17.0622 8.44889 17.2089 8.46222 17.3422C8.49778 17.8267 8.88889 18.1289 9.37333 18.1556C9.88889 18.1867 10.7156 18.2178 12 18.2178C13.2844 18.2178 14.1111 18.1867 14.6267 18.1556C15.1111 18.1244 15.5022 17.8267 15.5378 17.3422C15.5467 17.2133 15.5556 17.0622 15.5556 16.8844C15.5556 16.7067 15.5511 16.56 15.5378 16.4267C15.5022 15.9422 15.1111 15.64 14.6267 15.6133C14.32 15.5956 13.8978 15.5778 13.3333 15.5644V12.8844C13.3333 11.8622 13.3067 11.1689 13.28 10.7111V10.7156Z" fill="#656565"/>
</svg>
