<svg width="16" height="16" viewBox="0 0 16 16" fill="none" xmlns="http://www.w3.org/2000/svg">
<path fill-rule="evenodd" clip-rule="evenodd" d="M7.99994 1C11.866 1 14.9999 4.1339 14.9999 8C14.9999 11.8661 11.866 15 7.99994 15C4.13384 15 0.999939 11.8661 0.999939 8C0.999939 4.1339 4.13384 1 7.99994 1ZM10.0425 9.7997L10.0299 9.7885C9.89858 9.65311 9.74138 9.54545 9.56766 9.47192C9.39394 9.39838 9.20723 9.36046 9.01859 9.36039C8.82994 9.36032 8.6432 9.39812 8.46943 9.47154C8.29566 9.54495 8.13839 9.6525 8.00694 9.7878C8.00608 9.78883 8.00502 9.78966 8.00381 9.79022C8.0026 9.79079 8.00128 9.79109 7.99994 9.79109C7.9986 9.79109 7.99728 9.79079 7.99607 9.79022C7.99486 9.78966 7.99379 9.78883 7.99294 9.7878C7.74168 9.52893 7.40075 9.37623 7.04032 9.36112C6.67988 9.34602 6.32737 9.46966 6.05534 9.7066L5.96994 9.7885C5.95874 9.7997 5.94474 9.8144 5.92934 9.8123L5.91324 9.8046L5.67314 9.5841C5.54203 9.46292 5.36958 9.39642 5.19106 9.39819C5.01254 9.39997 4.84145 9.46988 4.71277 9.59364C4.5841 9.71739 4.50758 9.88563 4.49885 10.0639C4.49013 10.2423 4.54986 10.4172 4.66584 10.5529L4.72674 10.6159L4.96754 10.8364C5.22658 11.0737 5.56392 11.2074 5.91522 11.2119C6.26651 11.2164 6.60718 11.0915 6.87224 10.8609L6.96464 10.7727C6.97094 10.765 6.98004 10.7538 6.98844 10.7622C7.54144 11.3334 8.45844 11.3334 9.01144 10.7622L9.01984 10.7608L9.03944 10.7776C9.55044 11.304 10.3694 11.3551 10.9399 10.9141L11.0323 10.8364L11.2731 10.6159C11.4044 10.4956 11.4849 10.3298 11.4982 10.1522C11.5115 9.97462 11.4566 9.79866 11.3448 9.66012C11.2329 9.52158 11.0724 9.43088 10.8961 9.40648C10.7197 9.38208 10.5406 9.42583 10.3953 9.5288L10.3267 9.5841L10.0866 9.8046C10.0705 9.8186 10.0551 9.8116 10.0425 9.7997ZM5.54994 5.2C5.27146 5.2 5.00439 5.31062 4.80748 5.50754C4.61056 5.70445 4.49994 5.97152 4.49994 6.25C4.49994 6.52848 4.61056 6.79555 4.80748 6.99246C5.00439 7.18938 5.27146 7.3 5.54994 7.3C5.82842 7.3 6.09549 7.18938 6.2924 6.99246C6.48931 6.79555 6.59994 6.52848 6.59994 6.25C6.59994 5.97152 6.48931 5.70445 6.2924 5.50754C6.09549 5.31062 5.82842 5.2 5.54994 5.2ZM10.4499 5.2C10.1715 5.2 9.90439 5.31062 9.70748 5.50754C9.51056 5.70445 9.39994 5.97152 9.39994 6.25C9.39994 6.52848 9.51056 6.79555 9.70748 6.99246C9.90439 7.18938 10.1715 7.3 10.4499 7.3C10.7284 7.3 10.9955 7.18938 11.1924 6.99246C11.3893 6.79555 11.4999 6.52848 11.4999 6.25C11.4999 5.97152 11.3893 5.70445 11.1924 5.50754C10.9955 5.31062 10.7284 5.2 10.4499 5.2Z" fill="#EF8363"/>
</svg>
