<svg width="24" height="24" viewBox="0 0 24 24" fill="none" xmlns="http://www.w3.org/2000/svg">
<path d="M0 9C0 4.02944 4.02944 0 9 0H15C19.9706 0 24 4.02944 24 9V15C24 19.9706 19.9706 24 15 24H9C4.02944 24 0 19.9706 0 15V9Z" fill="#292929"/>
<path d="M18 17.3335C18.1699 17.3337 18.3333 17.3988 18.4569 17.5154C18.5804 17.6321 18.6548 17.7915 18.6647 17.9611C18.6747 18.1307 18.6195 18.2978 18.5105 18.4281C18.4014 18.5584 18.2467 18.6421 18.078 18.6622L18 18.6669H5.99997C5.83005 18.6667 5.66661 18.6016 5.54306 18.485C5.4195 18.3683 5.34515 18.2089 5.33519 18.0393C5.32523 17.8696 5.38042 17.7026 5.48948 17.5723C5.59854 17.442 5.75324 17.3583 5.92197 17.3382L5.99997 17.3335H18ZM9.28664 6.78485L13.662 10.3582L16.7106 9.78819C17.0778 9.71962 17.4567 9.75522 17.8047 9.89096C18.1526 10.0267 18.4556 10.2571 18.6793 10.5562L18.7873 10.7022C18.9073 10.8735 18.998 11.0515 18.9506 11.2809C18.8784 11.6342 18.7091 11.9605 18.4618 12.2231C18.2145 12.4856 17.899 12.6742 17.5506 12.7675L7.47197 15.4669C7.27426 15.5198 7.06508 15.5107 6.87266 15.441C6.68024 15.3713 6.51386 15.2442 6.39597 15.0769L4.61997 12.5555C4.5892 12.5116 4.56946 12.461 4.56244 12.4078C4.55542 12.3547 4.56132 12.3006 4.57964 12.2503C4.59796 12.1999 4.62816 12.1547 4.66767 12.1184C4.70719 12.0822 4.75486 12.0561 4.80664 12.0422L5.88864 11.7515C6.0477 11.7088 6.21485 11.7061 6.37523 11.7435C6.53561 11.781 6.68426 11.8575 6.80797 11.9662L7.3053 12.4035L7.31197 12.4049L10.112 11.3115C10.113 11.3111 10.1139 11.3105 10.1146 11.3097C10.1153 11.3089 10.1158 11.3079 10.1161 11.3069C10.1164 11.3058 10.1164 11.3047 10.1161 11.3037C10.1159 11.3026 10.1154 11.3017 10.1146 11.3009L6.96464 7.46419C6.9293 7.4211 6.90533 7.36985 6.89491 7.31511C6.88449 7.26037 6.88796 7.2039 6.90501 7.15084C6.92205 7.09779 6.95212 7.04986 6.99247 7.01143C7.03281 6.973 7.08215 6.9453 7.13597 6.93085L8.39597 6.59352C8.54897 6.5526 8.70951 6.54861 8.86435 6.58188C9.0192 6.61514 9.16394 6.68471 9.28664 6.78485Z" fill="#BDBDBD"/>
</svg>
