<svg width="16" height="17" viewBox="0 0 16 17" fill="none" xmlns="http://www.w3.org/2000/svg">
<path fill-rule="evenodd" clip-rule="evenodd" d="M3.33333 1.23682C2.04467 1.23682 1 2.28149 1 3.57015V12.9035C1 14.1921 2.04467 15.2368 3.33333 15.2368H12.6667C13.9553 15.2368 15 14.1921 15 12.9035V3.57015C15 2.28149 13.9553 1.23682 12.6667 1.23682H3.33333ZM8.36108 4.1534C8.91337 4.1534 9.36108 4.60112 9.36108 5.1534V6.87553H11.0835C11.6358 6.87553 12.0835 7.32324 12.0835 7.87553V8.59775C12.0835 9.15004 11.6358 9.59775 11.0835 9.59775H9.36108V11.3201C9.36108 11.8724 8.91337 12.3201 8.36108 12.3201H7.63886C7.08658 12.3201 6.63886 11.8724 6.63886 11.3201V9.59775H4.91683C4.36454 9.59775 3.91683 9.15004 3.91683 8.59775V7.87553C3.91683 7.32324 4.36454 6.87553 4.91683 6.87553H6.63886V5.1534C6.63886 4.60112 7.08658 4.1534 7.63886 4.1534H8.36108Z" fill="white"/>
</svg>
