<svg width="56" height="60" viewBox="0 0 56 60" fill="none" xmlns="http://www.w3.org/2000/svg">
<g filter="url(#filter0_d_10766_35490)">
<mask id="path-1-inside-1_10766_35490" fill="white">
<path fill-rule="evenodd" clip-rule="evenodd" d="M22 4C14.268 4 8 10.268 8 18V30C8 37.732 14.268 44 22 44H24.7631L26.9693 47.438C27.4503 48.1875 28.5457 48.1875 29.0266 47.438L31.2329 44H34C41.732 44 48 37.732 48 30V18C48 10.268 41.732 4 34 4H22Z"/>
</mask>
<path fill-rule="evenodd" clip-rule="evenodd" d="M22 4C14.268 4 8 10.268 8 18V30C8 37.732 14.268 44 22 44H24.7631L26.9693 47.438C27.4503 48.1875 28.5457 48.1875 29.0266 47.438L31.2329 44H34C41.732 44 48 37.732 48 30V18C48 10.268 41.732 4 34 4H22Z" fill="white" fill-opacity="0.9"/>
<path d="M24.7631 44L26.4464 42.9199C26.0785 42.3466 25.4442 42 24.7631 42V44ZM26.9693 47.438L28.6526 46.3579V46.3579L26.9693 47.438ZM29.0266 47.438L30.7099 48.5182H30.7099L29.0266 47.438ZM31.2329 44V42C30.5517 42 29.9175 42.3466 29.5496 42.9199L31.2329 44ZM10 18C10 11.3726 15.3726 6 22 6V2C13.1634 2 6 9.16345 6 18H10ZM10 30V18H6V30H10ZM22 42C15.3726 42 10 36.6274 10 30H6C6 38.8366 13.1634 46 22 46V42ZM24.7631 42H22V46H24.7631V42ZM28.6526 46.3579L26.4464 42.9199L23.0799 45.0801L25.2861 48.5182L28.6526 46.3579ZM27.3434 46.3579C27.6495 45.8809 28.3465 45.8809 28.6526 46.3579L25.2861 48.5182C26.5541 50.4942 29.4419 50.4942 30.7099 48.5182L27.3434 46.3579ZM29.5496 42.9199L27.3434 46.3579L30.7099 48.5182L32.9161 45.0801L29.5496 42.9199ZM34 42H31.2329V46H34V42ZM46 30C46 36.6274 40.6274 42 34 42V46C42.8366 46 50 38.8366 50 30H46ZM46 18V30H50V18H46ZM34 6C40.6274 6 46 11.3726 46 18H50C50 9.16344 42.8366 2 34 2V6ZM22 6H34V2H22V6Z" fill="#67C575" mask="url(#path-1-inside-1_10766_35490)"/>
<path fill-rule="evenodd" clip-rule="evenodd" d="M20.6667 13C18.6416 13 17 14.6416 17 16.6667V31.3333C17 33.3584 18.6416 35 20.6667 35H35.3333C37.3584 35 39 33.3584 39 31.3333V16.6667C39 14.6416 37.3584 13 35.3333 13H20.6667ZM28.5674 17.5831C29.4353 17.5831 30.1388 18.2866 30.1388 19.1545V21.8604H32.8454C33.7132 21.8604 34.4168 22.564 34.4168 23.4319V24.5668C34.4168 25.4346 33.7132 26.1382 32.8454 26.1382H30.1388V28.845C30.1388 29.7129 29.4353 30.4164 28.5674 30.4164H27.4325C26.5646 30.4164 25.8611 29.7129 25.8611 28.845V26.1382H23.1549C22.287 26.1382 21.5835 25.4346 21.5835 24.5668V23.4319C21.5835 22.564 22.287 21.8604 23.1549 21.8604H25.8611V19.1545C25.8611 18.2866 26.5646 17.5831 27.4325 17.5831H28.5674Z" fill="#67C575"/>
</g>
<defs>
<filter id="filter0_d_10766_35490" x="0" y="0" width="56" height="60" filterUnits="userSpaceOnUse" color-interpolation-filters="sRGB">
<feFlood flood-opacity="0" result="BackgroundImageFix"/>
<feColorMatrix in="SourceAlpha" type="matrix" values="0 0 0 0 0 0 0 0 0 0 0 0 0 0 0 0 0 0 127 0" result="hardAlpha"/>
<feOffset dy="4"/>
<feGaussianBlur stdDeviation="4"/>
<feComposite in2="hardAlpha" operator="out"/>
<feColorMatrix type="matrix" values="0 0 0 0 0 0 0 0 0 0 0 0 0 0 0 0 0 0 0.08 0"/>
<feBlend mode="normal" in2="BackgroundImageFix" result="effect1_dropShadow_10766_35490"/>
<feBlend mode="normal" in="SourceGraphic" in2="effect1_dropShadow_10766_35490" result="shape"/>
</filter>
</defs>
</svg>
