<svg width="40" height="44" viewBox="0 0 40 44" fill="none" xmlns="http://www.w3.org/2000/svg">
<mask id="path-1-inside-1_13852_25967" fill="white">
<path fill-rule="evenodd" clip-rule="evenodd" d="M14 0C6.26801 0 0 6.26801 0 14V26C0 33.732 6.26801 40 14 40H16.7631L18.9693 43.438C19.4503 44.1875 20.5457 44.1875 21.0266 43.438L23.2329 40H26C33.732 40 40 33.732 40 26V14C40 6.26801 33.732 0 26 0H14Z"/>
</mask>
<path fill-rule="evenodd" clip-rule="evenodd" d="M14 0C6.26801 0 0 6.26801 0 14V26C0 33.732 6.26801 40 14 40H16.7631L18.9693 43.438C19.4503 44.1875 20.5457 44.1875 21.0266 43.438L23.2329 40H26C33.732 40 40 33.732 40 26V14C40 6.26801 33.732 0 26 0H14Z" fill="white" fill-opacity="0.9"/>
<path d="M16.7631 40L18.4464 38.9199C18.0785 38.3466 17.4442 38 16.7631 38V40ZM18.9693 43.438L20.6526 42.3579L20.6526 42.3579L18.9693 43.438ZM21.0266 43.438L22.7099 44.5182L22.7099 44.5182L21.0266 43.438ZM23.2329 40V38C22.5517 38 21.9175 38.3466 21.5496 38.9199L23.2329 40ZM2 14C2 7.37258 7.37258 2 14 2V-2C5.16344 -2 -2 5.16345 -2 14H2ZM2 26V14H-2V26H2ZM14 38C7.37258 38 2 32.6274 2 26H-2C-2 34.8366 5.16345 42 14 42V38ZM16.7631 38H14V42H16.7631V38ZM20.6526 42.3579L18.4464 38.9199L15.0799 41.0801L17.2861 44.5182L20.6526 42.3579ZM19.3434 42.3579C19.6495 41.8809 20.3465 41.8809 20.6526 42.3579L17.2861 44.5182C18.5541 46.4942 21.4419 46.4942 22.7099 44.5182L19.3434 42.3579ZM21.5496 38.9199L19.3434 42.3579L22.7099 44.5182L24.9161 41.0801L21.5496 38.9199ZM26 38H23.2329V42H26V38ZM38 26C38 32.6274 32.6274 38 26 38V42C34.8366 42 42 34.8366 42 26H38ZM38 14V26H42V14H38ZM26 2C32.6274 2 38 7.37258 38 14H42C42 5.16344 34.8366 -2 26 -2V2ZM14 2H26V-2H14V2Z" fill="#67C575" mask="url(#path-1-inside-1_13852_25967)"/>
<path fill-rule="evenodd" clip-rule="evenodd" d="M12.6667 9C10.6416 9 9 10.6416 9 12.6667V27.3333C9 29.3584 10.6416 31 12.6667 31H27.3333C29.3584 31 31 29.3584 31 27.3333V12.6667C31 10.6416 29.3584 9 27.3333 9H12.6667ZM20.5674 13.5831C21.4353 13.5831 22.1388 14.2866 22.1388 15.1545V17.8604H24.8454C25.7132 17.8604 26.4168 18.564 26.4168 19.4319V20.5668C26.4168 21.4346 25.7132 22.1382 24.8454 22.1382H22.1388V24.845C22.1388 25.7129 21.4353 26.4164 20.5674 26.4164H19.4325C18.5646 26.4164 17.8611 25.7129 17.8611 24.845V22.1382H15.1549C14.287 22.1382 13.5835 21.4346 13.5835 20.5668V19.4319C13.5835 18.564 14.287 17.8604 15.1549 17.8604H17.8611V15.1545C17.8611 14.2866 18.5646 13.5831 19.4325 13.5831H20.5674Z" fill="#67C575"/>
</svg>
