<svg width="24" height="24" viewBox="0 0 24 24" fill="none" xmlns="http://www.w3.org/2000/svg">
<path d="M0 9C0 4.02944 4.02944 0 9 0H15C19.9706 0 24 4.02944 24 9V15C24 19.9706 19.9706 24 15 24H9C4.02944 24 0 19.9706 0 15V9Z" fill="#292929"/>
<path d="M18 17.3333C18.1699 17.3335 18.3333 17.3985 18.4569 17.5152C18.5804 17.6318 18.6548 17.7912 18.6647 17.9609C18.6747 18.1305 18.6195 18.2975 18.5105 18.4278C18.4014 18.5581 18.2467 18.6419 18.078 18.6619L18 18.6666H5.99997C5.83005 18.6664 5.66661 18.6014 5.54306 18.4847C5.4195 18.3681 5.34515 18.2086 5.33519 18.039C5.32523 17.8694 5.38042 17.7024 5.48948 17.5721C5.59854 17.4418 5.75324 17.358 5.92197 17.3379L5.99997 17.3333H18ZM9.28664 6.78461L13.662 10.3579L16.7106 9.78794C17.0778 9.71938 17.4567 9.75498 17.8047 9.89071C18.1526 10.0264 18.4556 10.2569 18.6793 10.5559L18.7873 10.7019C18.9073 10.8733 18.998 11.0513 18.9506 11.2806C18.8784 11.634 18.7091 11.9602 18.4618 12.2228C18.2145 12.4854 17.899 12.6739 17.5506 12.7673L7.47197 15.4666C7.27426 15.5195 7.06508 15.5105 6.87266 15.4408C6.68024 15.371 6.51386 15.2439 6.39597 15.0766L4.61997 12.5553C4.5892 12.5114 4.56946 12.4607 4.56244 12.4076C4.55542 12.3544 4.56132 12.3004 4.57964 12.25C4.59796 12.1996 4.62816 12.1544 4.66767 12.1182C4.70719 12.082 4.75486 12.0558 4.80664 12.0419L5.88864 11.7513C6.0477 11.7086 6.21485 11.7058 6.37523 11.7433C6.53561 11.7807 6.68426 11.8572 6.80797 11.9659L7.3053 12.4033L7.31197 12.4046L10.112 11.3113C10.113 11.3109 10.1139 11.3103 10.1146 11.3095C10.1153 11.3087 10.1158 11.3077 10.1161 11.3066C10.1164 11.3056 10.1164 11.3045 10.1161 11.3034C10.1159 11.3024 10.1154 11.3014 10.1146 11.3006L6.96464 7.46394C6.9293 7.42086 6.90533 7.36961 6.89491 7.31487C6.88449 7.26013 6.88796 7.20365 6.90501 7.1506C6.92205 7.09755 6.95212 7.04962 6.99247 7.01119C7.03281 6.97276 7.08215 6.94505 7.13597 6.93061L8.39597 6.59328C8.54897 6.55236 8.70951 6.54837 8.86436 6.58163C9.0192 6.6149 9.16394 6.68446 9.28664 6.78461Z" fill="#FFD600"/>
</svg>
