<svg width="112" height="40" viewBox="0 0 112 40" fill="none" xmlns="http://www.w3.org/2000/svg">
<g filter="url(#filter0_d_15182_11741)">
<path d="M4 12C4 5.37258 9.37258 0 16 0H96C102.627 0 108 5.37258 108 12V20C108 26.6274 102.627 32 96 32H16C9.37259 32 4 26.6274 4 20V12Z" fill="white" shape-rendering="crispEdges"/>
<path fill-rule="evenodd" clip-rule="evenodd" d="M24 26C18.4756 26 14 21.5244 14 16C14 10.4756 18.4756 6 24 6C29.5244 6 34 10.4756 34 16C34 21.5244 29.5244 26 24 26ZM22.2222 10.8889C22.2222 9.90667 23.0178 9.11111 24 9.11111C24.9822 9.11111 25.7778 9.90667 25.7778 10.8889C25.7778 11.8711 24.9822 12.6667 24 12.6667C23.0178 12.6667 22.2222 11.8711 22.2222 10.8889ZM25.28 14.7156C25.2489 14.2089 24.9244 13.8178 24.4178 13.7867C24.2978 13.7778 24.1556 13.7733 24 13.7733H22.4444C22.1822 13.7733 21.9689 13.7778 21.7867 13.7911C21.2578 13.8222 20.9067 14.2089 20.8933 14.7378C20.8933 14.8489 20.8933 14.9689 20.8933 15.1067C20.8933 15.2444 20.8933 15.3689 20.8933 15.4756C20.9067 16.0044 21.2578 16.3911 21.7867 16.4222C21.9689 16.4311 22.1867 16.44 22.4444 16.44C22.5244 16.44 22.5956 16.44 22.6667 16.44C22.6667 16.5822 22.6667 16.7289 22.6667 16.8844V19.5644C22.1022 19.5778 21.68 19.5956 21.3733 19.6133C20.8889 19.6444 20.4978 19.9422 20.4622 20.4267C20.4533 20.5556 20.4444 20.7067 20.4444 20.8844C20.4444 21.0622 20.4489 21.2089 20.4622 21.3422C20.4978 21.8267 20.8889 22.1289 21.3733 22.1556C21.8889 22.1867 22.7156 22.2178 24 22.2178C25.2844 22.2178 26.1111 22.1867 26.6267 22.1556C27.1111 22.1244 27.5022 21.8267 27.5378 21.3422C27.5467 21.2133 27.5556 21.0622 27.5556 20.8844C27.5556 20.7067 27.5511 20.56 27.5378 20.4267C27.5022 19.9422 27.1111 19.64 26.6267 19.6133C26.32 19.5956 25.8978 19.5778 25.3333 19.5644V16.8844C25.3333 15.8622 25.3067 15.1689 25.28 14.7111V14.7156Z" fill="#656565"/>
<path d="M46.912 12.698H55.116V13.496H46.912V12.698ZM52.75 11.55L53.24 11.046C53.786 11.284 54.43 11.676 54.766 11.998L54.262 12.558C53.926 12.222 53.282 11.816 52.75 11.55ZM53.674 14.14L54.528 14.308C53.828 16.954 52.428 18.914 50.496 20.16C50.37 19.992 50.062 19.642 49.88 19.488C51.784 18.382 53.072 16.562 53.674 14.14ZM46.772 18.424C47.85 18.242 49.418 17.976 51 17.682L51.028 18.424C49.572 18.704 48.074 19.012 46.912 19.222L46.772 18.424ZM48.158 15.036V16.45H49.754V15.036H48.158ZM47.402 14.378H50.524V17.094H47.402V14.378ZM51.056 11.2H51.952C52.134 15.162 52.75 18.858 54.108 19.068C54.304 19.11 54.444 18.522 54.542 17.612C54.71 17.78 55.032 18.004 55.228 18.088C55.046 19.628 54.556 20.188 53.814 19.922C51.882 19.502 51.308 15.526 51.056 11.2ZM45.148 9.898H56.852V22.176H55.802V10.85H46.142V22.176H45.148V9.898ZM45.764 20.566H56.39V21.518H45.764V20.566ZM64.44 9.254H65.518V11.116H64.44V9.254ZM59.218 10.5H70.852V13.286H69.788V11.466H60.24V13.286H59.218V10.5ZM61.01 12.866H68.892V13.79H61.01V12.866ZM62.844 14.966L63.628 14.476C66.736 16.772 66.806 20.678 65.364 21.686C64.888 22.064 64.496 22.162 63.866 22.162C63.53 22.162 63.082 22.148 62.648 22.12C62.62 21.84 62.522 21.406 62.34 21.112C62.858 21.168 63.334 21.182 63.656 21.182C64.034 21.182 64.342 21.154 64.622 20.916C65.616 20.202 65.56 17.038 62.844 14.966ZM64.944 13.076L65.812 13.454C64.37 14.854 61.878 15.932 59.694 16.562C59.582 16.366 59.302 15.932 59.12 15.736C61.262 15.218 63.67 14.266 64.944 13.076ZM63.95 15.75L64.65 16.226C63.488 17.178 61.388 18.27 59.778 18.844C59.652 18.606 59.428 18.242 59.218 18.032C60.8 17.598 62.914 16.604 63.95 15.75ZM64.986 17.192L65.714 17.724C64.258 19.194 61.528 20.734 59.288 21.476C59.162 21.21 58.924 20.832 58.728 20.594C60.954 20.006 63.67 18.55 64.986 17.192ZM66.274 13.23C67.044 16.38 68.724 19.054 71.384 20.118C71.146 20.328 70.824 20.734 70.656 21.028C67.898 19.768 66.246 16.926 65.406 13.412L66.274 13.23ZM69.872 14.266L70.684 14.966C69.732 15.736 68.416 16.604 67.422 17.136L66.764 16.492C67.716 15.932 69.074 14.98 69.872 14.266ZM73.344 10.276L73.806 9.562C74.772 9.814 76.074 10.29 76.746 10.64L76.284 11.452C75.626 11.088 74.324 10.584 73.344 10.276ZM72.644 13.23C73.652 12.992 75.136 12.572 76.592 12.166L76.704 12.992C75.43 13.398 74.114 13.832 73.05 14.154L72.644 13.23ZM78.65 10.276H84.278V11.074H78.034L78.65 10.276ZM83.998 10.276H84.166L84.348 10.234L85.048 10.444C84.656 11.172 84.138 11.956 83.634 12.446L82.794 12.152C83.242 11.718 83.718 11.018 83.998 10.43V10.276ZM80.386 10.556H81.352C81.058 12.544 80.162 13.636 77.306 14.21C77.208 13.986 76.984 13.636 76.802 13.454C79.392 13.02 80.148 12.152 80.386 10.556ZM81.31 10.808C81.59 11.998 82.276 13.146 85.384 13.594C85.188 13.804 84.95 14.182 84.838 14.448C81.52 13.874 80.82 12.362 80.456 10.892L81.31 10.808ZM78.874 9.24L79.826 9.394C79.35 10.416 78.636 11.452 77.544 12.292C77.362 12.096 76.998 11.872 76.746 11.76C77.796 11.046 78.51 10.08 78.874 9.24ZM75.542 16.562V17.514H82.598V16.562H75.542ZM75.542 18.2V19.18H82.598V18.2H75.542ZM75.542 14.924V15.876H82.598V14.924H75.542ZM74.52 14.224H83.648V19.88H74.52V14.224ZM80.162 20.594L81.016 20.062C82.556 20.538 84.25 21.154 85.258 21.63L84.096 22.162C83.214 21.7 81.688 21.098 80.162 20.594ZM76.872 20.034L77.824 20.468C76.69 21.14 74.912 21.784 73.512 22.176C73.344 21.966 72.98 21.56 72.742 21.378C74.184 21.07 75.864 20.58 76.872 20.034ZM91.922 9.954H97.48V10.962H91.922V9.954ZM91.782 14.728H96.472V15.722H91.782V14.728ZM93.686 10.528H94.694V13.916C94.694 16.66 94.442 19.754 92.02 22.162C91.852 21.938 91.488 21.588 91.236 21.434C93.476 19.208 93.686 16.38 93.686 13.916V10.528ZM96.948 9.954H98.026C97.956 15.918 97.914 20.748 98.894 20.972C99.006 21 99.118 19.964 99.16 18.788C99.356 19.04 99.65 19.39 99.818 19.53C99.65 21.854 99.188 22.344 98.474 22.064C96.822 21.546 96.962 16.422 96.948 9.954ZM87.19 13.482H91.292V14.322H87.19V13.482ZM87.232 9.744H91.236V10.584H87.232V9.744ZM87.19 15.358H91.292V16.198H87.19V15.358ZM86.532 11.578H91.754V12.446H86.532V11.578ZM87.652 17.248H91.292V21.336H87.652V20.454H90.368V18.116H87.652V17.248ZM87.176 17.248H88.086V21.98H87.176V17.248Z" fill="#292929"/>
</g>
<defs>
<filter id="filter0_d_15182_11741" x="0" y="0" width="112" height="40" filterUnits="userSpaceOnUse" color-interpolation-filters="sRGB">
<feFlood flood-opacity="0" result="BackgroundImageFix"/>
<feColorMatrix in="SourceAlpha" type="matrix" values="0 0 0 0 0 0 0 0 0 0 0 0 0 0 0 0 0 0 127 0" result="hardAlpha"/>
<feOffset dy="4"/>
<feGaussianBlur stdDeviation="2"/>
<feComposite in2="hardAlpha" operator="out"/>
<feColorMatrix type="matrix" values="0 0 0 0 0 0 0 0 0 0 0 0 0 0 0 0 0 0 0.04 0"/>
<feBlend mode="normal" in2="BackgroundImageFix" result="effect1_dropShadow_15182_11741"/>
<feBlend mode="normal" in="SourceGraphic" in2="effect1_dropShadow_15182_11741" result="shape"/>
</filter>
</defs>
</svg>
