<svg width="22" height="23" viewBox="0 0 22 23" fill="none" xmlns="http://www.w3.org/2000/svg">
<path d="M7.85611 9.72633C8.51553 7.48428 8.87822 4.78063 9.0101 1.5824C9.0101 1.38457 9.04308 1.18675 9.10902 1.05486C9.17496 0.922976 9.2409 0.824061 9.30684 0.758119C9.37279 0.692176 9.50467 0.659204 9.73547 0.626233C9.96627 0.593262 10.0982 0.593262 10.1971 0.593262C10.296 0.593262 10.4938 0.593262 10.8235 0.593262C11.2851 0.593262 11.6478 0.725147 11.9116 0.955947C12.1754 1.18675 12.3072 1.54943 12.3072 1.97806C12.3402 2.76937 12.4062 3.62663 12.538 4.45091C12.637 5.30817 12.8678 6.4292 13.2304 7.78102C13.5931 9.16582 14.0218 10.4517 14.5823 11.6716C15.1098 12.8916 15.9011 14.1445 16.8903 15.4634C17.8794 16.7822 19.0334 17.9032 20.3193 18.8264C20.7809 19.0902 21.1436 19.3869 21.4073 19.6837C21.7041 19.9804 21.8689 20.3431 21.9679 20.7058C22.0668 21.0685 21.9349 21.4312 21.6052 21.7939C20.9457 22.4863 20.1215 22.5192 19.0334 21.9257C15.2087 19.4529 12.5051 15.6282 10.9884 10.4187C9.57061 15.2985 7.09776 19.0572 3.53685 21.7609C2.48177 22.4863 1.59154 22.5192 0.866173 21.8268C-0.0570261 20.9366 0.206741 20.0464 1.62451 19.0902C4.55896 16.8482 6.66914 13.7159 7.85611 9.72633Z" fill="white" fill-opacity="0.95"/>
</svg>
