<svg width="23" height="23" viewBox="0 0 23 23" fill="none" xmlns="http://www.w3.org/2000/svg">
<path d="M2.70365 0.51709H19.2553C20.2115 0.51709 20.706 1.01166 20.706 2.0008C20.706 2.95697 20.2115 3.45154 19.2553 3.45154H12.3972V10.936H20.6401C21.6292 10.936 22.1238 11.4306 22.1238 12.4198C22.1238 13.4089 21.6292 13.9035 20.6401 13.9035H12.3972V20.5967C12.3972 21.5858 11.9027 22.0804 10.9135 22.0804C9.89142 22.0804 9.39684 21.5858 9.39684 20.5967V13.9035H1.48371C0.494571 13.9035 0 13.4089 0 12.4198C0 11.4306 0.494571 10.936 1.48371 10.936H9.39684V3.45154H2.70365C1.74748 3.45154 1.25291 2.95697 1.25291 2.0008C1.25291 1.01166 1.71451 0.51709 2.70365 0.51709ZM7.41856 6.28708C6.69319 7.53999 5.86891 8.69399 4.97868 9.78205C4.38519 10.4415 3.72577 10.5074 3.03337 10.0128C2.17611 9.38639 2.11017 8.69399 2.90148 7.86971C3.62685 6.97948 4.22034 6.08925 4.64896 5.19903C5.01165 4.40771 5.63811 4.11097 6.56131 4.34177C7.61639 4.63851 7.91313 5.26497 7.41856 6.28708ZM16.7495 9.35342C16.2879 8.52914 15.5625 7.53999 14.6393 6.35302C13.9469 5.49577 14.0788 4.83634 15.0679 4.40771C15.7603 4.078 16.3538 4.17691 16.8154 4.70446C17.8045 5.85845 18.6948 7.01245 19.4531 8.13348C19.6839 8.56211 19.7499 8.92479 19.6509 9.18856C19.552 9.45234 19.2883 9.68314 18.7937 9.94691C17.8705 10.3755 17.1781 10.1777 16.7495 9.35342Z" fill="white" fill-opacity="0.95"/>
</svg>
