<svg width="23" height="23" viewBox="0 0 23 23" fill="none" xmlns="http://www.w3.org/2000/svg">
<path d="M10.8272 9.16604H21.2462C22.1694 9.16604 22.631 9.62764 22.631 10.5508C22.631 11.474 22.1694 11.9356 21.2462 11.9356H18.5755C17.8831 14.2436 16.861 16.156 15.5422 17.6727C17.4875 18.4969 19.0701 19.2223 20.2571 19.8488C20.7846 20.1785 21.0484 20.5082 21.0484 20.8379C21.0484 21.1676 20.8176 21.5303 20.356 22.0249C19.9933 22.3876 19.6636 22.6184 19.3668 22.6843C19.0701 22.7503 18.7074 22.6513 18.3118 22.4205C17.1578 21.7281 15.4103 20.8709 13.1023 19.8488C11.058 21.2336 8.25548 22.2557 4.62862 22.9151C3.57354 23.08 2.84817 22.8492 2.45251 22.1568C1.76011 21.0687 2.25468 20.4093 3.93622 20.1785C6.37611 19.7828 8.35439 19.2223 9.87107 18.4969C9.77216 18.464 9.31056 18.2991 8.51925 18.0024C7.72794 17.7056 7.13445 17.4748 6.70582 17.3759C6.63988 17.6397 6.44205 17.8045 6.17828 17.9035C5.91451 18.0024 5.61776 18.0024 5.32102 17.9035C3.93622 17.5408 3.54057 16.8484 4.10108 15.8922C4.46377 15.2328 5.15617 13.9469 6.21125 12.0016H2.22171C1.29851 12.0016 0.836914 11.54 0.836914 10.6168C0.836914 9.69359 1.29851 9.23199 2.22171 9.23199H7.49713C8.05765 8.11096 8.45331 7.28668 8.68411 6.75913C9.01382 6.00079 9.64028 5.67108 10.5305 5.83594C11.6845 6.06673 12.0142 6.72616 11.5526 7.78125L10.8272 9.16604ZM19.0701 4.91274H4.8924C4.49674 4.91274 4.29891 5.11056 4.29891 5.50622V6.52833C4.29891 7.51747 3.80434 8.01205 2.8152 8.01205C1.82606 8.01205 1.33148 7.51747 1.33148 6.52833V3.79171C1.33148 3.29714 1.49634 2.93445 1.79308 2.63771C2.08983 2.34097 2.48548 2.20908 2.98005 2.20908H10.1019V1.51668C10.1019 0.494571 10.6294 0 11.6515 0C12.6736 0 13.1682 0.494571 13.1682 1.51668V2.20908H20.5868C21.0813 2.20908 21.444 2.34097 21.7408 2.63771C22.0375 2.93445 22.1694 3.33011 22.1694 3.79171V6.46239C22.1694 7.4845 21.6419 8.01205 20.6197 8.01205C19.5647 8.01205 19.0371 7.4845 19.0371 6.46239V4.91274H19.0701ZM15.1795 11.9356H9.47542C9.3765 12.1664 9.21165 12.4962 8.98085 12.9248C8.75005 13.3204 8.55222 13.7161 8.38736 14.0458C8.22251 14.3755 8.05765 14.6723 7.92576 14.969C9.1457 15.2987 10.6954 15.8263 12.6077 16.5516C13.7947 15.3317 14.6519 13.815 15.1795 11.9356Z" fill="white" fill-opacity="0.95"/>
</svg>
