<svg width="99" height="125" viewBox="0 0 99 125" fill="none" xmlns="http://www.w3.org/2000/svg">
<path d="M56.3553 62.0908C48.9343 61.9061 41.9741 58.5322 37.8444 53.094C36.1483 50.8591 36.6092 47.6699 38.844 45.9738C41.0789 44.2776 44.2681 44.7386 45.9642 46.9734C48.2501 50.0276 52.2488 51.9026 56.6273 51.9982C61.0058 52.0939 65.0961 50.4068 67.5598 47.45C69.3516 45.3064 72.5444 45.0251 74.688 46.8169C76.8316 48.6086 77.1129 51.8014 75.3211 53.9451C70.8423 59.1928 63.7764 62.2755 56.3553 62.0908Z" fill="white" fill-opacity="0.95"/>
<path d="M74.5625 118.067C72.0395 117.98 69.5179 117.597 66.9246 116.694C66.8504 116.693 66.8504 116.693 66.8508 116.619C48.847 110.148 31.9204 95.8894 19.398 76.4569C10.7794 63.1295 7.58707 48.1215 10.6189 35.2221C14.6431 16.6869 30.5207 2.58851 49.3069 0.824806C63.3421 -0.739452 76.8989 4.44794 86.5707 14.8859C96.316 25.4727 100.549 40.1889 97.8081 54.2773C94.7512 72.2977 82.2174 85.596 69.6889 97.781C67.5261 99.9228 64.0382 99.8316 61.8964 97.6687C59.7546 95.5059 59.8459 92.018 62.0087 89.8762C73.7168 78.5036 84.46 67.1263 86.9813 52.3689C86.9817 52.2947 86.9817 52.2947 86.982 52.2204C89.1131 41.3948 85.975 30.4692 78.4447 22.2682C71.1348 14.5136 60.9113 10.6785 50.3665 11.8145C50.2923 11.8141 50.2923 11.8141 50.2923 11.8141C36.407 13.0822 24.182 23.9328 21.2204 37.649L21.2201 37.7232C18.8704 47.7313 21.558 59.6938 28.5558 70.5641C39.8266 87.9123 54.6824 100.676 70.4636 106.32C75.947 108.128 80.852 106.816 86.4415 102.093C88.7517 100.175 92.2388 100.415 94.1573 102.725C96.1499 105.035 95.836 108.522 93.5258 110.441C87.4146 115.606 81.0191 118.173 74.5625 118.067Z" fill="white" fill-opacity="0.95"/>
<path d="M6.10475 123.744C5.28835 123.74 4.47304 123.514 3.65846 123.138C0.993504 121.715 -0.0295885 118.445 1.31975 115.705C2.2187 114.002 3.11766 112.3 3.9424 110.597C4.24217 110.004 4.54194 109.412 4.84171 108.82C6.0408 106.451 7.16459 104.304 8.43391 102.751C9.10549 102.012 10.9722 99.7208 14.2381 99.6625C14.535 99.6639 14.7577 99.665 15.0545 99.6665C17.7991 99.9768 19.5727 101.544 20.7555 102.515C21.0509 102.813 21.3467 103.037 21.5687 103.187C21.7167 103.262 21.8644 103.411 21.9383 103.485C25.7078 106.695 31.0526 106.499 34.4742 104.957C37.2264 103.708 40.4862 104.912 41.7342 107.738C42.9824 110.491 41.779 113.75 38.9526 114.998C32.4815 117.861 22.7571 118.185 15.4375 112.434C15.1381 112.952 14.9129 113.471 14.688 113.915C14.3879 114.581 14.0139 115.173 13.7141 115.766C12.8152 117.468 11.9162 119.171 11.0915 120.874C10.118 122.65 8.10863 123.754 6.10475 123.744Z" fill="white" fill-opacity="0.95"/>
</svg>
