<svg width="16" height="17" viewBox="0 0 16 17" fill="none" xmlns="http://www.w3.org/2000/svg">
<path d="M13.9179 2.11957C13.8627 2.10115 13.8063 2.09194 13.7487 2.09194C11.8906 2.09194 10.0509 1.81219 8.27679 1.25959C8.17317 1.22735 8.06611 1.2285 7.96249 1.25959C6.18265 1.82716 4.31646 2.11497 2.39962 2.11497C2.10605 2.11497 1.88501 2.35328 1.88501 2.64685V2.67103C1.88501 8.03934 1.86774 12.2783 7.84161 15.1829C7.91529 15.2186 7.97861 15.2358 8.05805 15.2358C8.13748 15.2358 8.21922 15.2186 8.2929 15.1817C14.2863 12.2357 14.2863 7.99444 14.2863 2.62383C14.2863 2.39703 14.1332 2.1921 13.9179 2.11842V2.11957ZM11.4508 7.18395L10.1614 8.44228L10.4573 10.1703C10.4688 10.2141 10.4757 10.2659 10.4757 10.3142C10.4757 10.6078 10.2374 10.8519 9.94381 10.8519H9.9415C9.85746 10.8519 9.77227 10.8254 9.69513 10.7839L8.09949 9.94236L6.505 10.7793C6.32656 10.8737 6.10897 10.8576 5.94549 10.7379C5.78201 10.6193 5.70027 10.4178 5.73481 10.2187L6.03874 8.44228L4.74819 7.18395C4.60428 7.0435 4.55132 6.83167 4.61464 6.63941C4.67681 6.44715 4.84259 6.30785 5.04291 6.27791L6.8262 6.01888L7.62402 4.40367C7.71267 4.22177 7.89802 4.1078 8.09949 4.1078C8.30096 4.1078 8.48631 4.22177 8.57611 4.40367L9.37393 6.01888L11.1572 6.27791C11.3575 6.30785 11.5233 6.44715 11.5855 6.63941C11.6477 6.83167 11.5959 7.0435 11.4508 7.18395Z" fill="white"/>
</svg>
