<svg width="24" height="25" viewBox="0 0 24 25" fill="none" xmlns="http://www.w3.org/2000/svg">
<g clip-path="url(#clip0_13553_38667)">
<path d="M21.6659 20.2834L17.8661 16.4833C19.2395 14.6998 19.8825 12.4602 19.6649 10.2196C19.4473 7.97911 18.3851 5.90555 16.6942 4.4196C15.0032 2.93365 12.8103 2.14674 10.5604 2.21891C8.31048 2.29109 6.17218 3.21676 4.57993 4.80803C2.98768 6.39929 2.06072 8.5369 1.98716 10.7868C1.9136 13.0367 2.69904 15.2302 4.18394 16.922C5.66884 18.6139 7.74187 19.6774 9.98228 19.8964C12.2227 20.1154 14.4625 19.4736 16.2469 18.1012L20.0467 21.9013C20.1523 22.0082 20.2781 22.0929 20.4168 22.1506C20.5556 22.2082 20.7046 22.2377 20.8548 22.2372V22.2372C21.0812 22.2375 21.3028 22.1705 21.4911 22.0448C21.6794 21.9192 21.8262 21.7405 21.9129 21.5314C21.9997 21.3223 22.022 21.0923 21.9779 20.8703C21.9338 20.6483 21.825 20.4444 21.6649 20.2843L21.6659 20.2834ZM10.85 4.52922C12.1477 4.52902 13.4164 4.91359 14.4955 5.63444C15.5746 6.3553 16.4157 7.38012 16.9125 8.57902C17.4092 9.77793 17.5391 11.0972 17.286 12.37C17.0329 13.6428 16.4077 14.812 15.4901 15.7297C14.5725 16.6473 13.4035 17.2722 12.1307 17.5253C10.8579 17.7784 9.53861 17.6482 8.3397 17.1515C7.14079 16.6548 6.11622 15.8139 5.39536 14.7348C4.67451 13.6557 4.2897 12.387 4.28989 11.0893C4.29201 9.35011 4.98394 7.68283 6.21372 6.45305C7.4435 5.22327 9.11078 4.53133 10.85 4.52922V4.52922Z" fill="url(#paint0_linear_13553_38667)"/>
</g>
<defs>
<linearGradient id="paint0_linear_13553_38667" x1="7.12205" y1="-0.288503" x2="21.053" y2="11.7567" gradientUnits="userSpaceOnUse">
<stop offset="0.41" stop-color="#1AA3DD"/>
<stop offset="0.89" stop-color="#84D3F5"/>
</linearGradient>
<clipPath id="clip0_13553_38667">
<rect width="24" height="24" fill="white" transform="translate(0 0.236328)"/>
</clipPath>
</defs>
</svg>
