<svg width="56" height="60" viewBox="0 0 56 60" fill="none" xmlns="http://www.w3.org/2000/svg">
<g filter="url(#filter0_d_10766_35766)">
<mask id="path-1-inside-1_10766_35766" fill="white">
<path fill-rule="evenodd" clip-rule="evenodd" d="M22 4C14.268 4 8 10.268 8 18V30C8 37.732 14.268 44 22 44H25.6575L27.6257 47.4091C28.0806 48.197 29.2178 48.197 29.6727 47.4091L31.6409 44H34C41.732 44 48 37.732 48 30V18C48 10.268 41.732 4 34 4H22Z"/>
</mask>
<path fill-rule="evenodd" clip-rule="evenodd" d="M22 4C14.268 4 8 10.268 8 18V30C8 37.732 14.268 44 22 44H25.6575L27.6257 47.4091C28.0806 48.197 29.2178 48.197 29.6727 47.4091L31.6409 44H34C41.732 44 48 37.732 48 30V18C48 10.268 41.732 4 34 4H22Z" fill="white" fill-opacity="0.9"/>
<path d="M25.6575 44L27.3895 43C27.0323 42.3812 26.372 42 25.6575 42V44ZM27.6257 47.4091L29.3578 46.4091H29.3578L27.6257 47.4091ZM29.6727 47.4091L27.9406 46.4091H27.9406L29.6727 47.4091ZM31.6409 44V42C30.9264 42 30.2661 42.3812 29.9089 43L31.6409 44ZM10 18C10 11.3726 15.3726 6 22 6V2C13.1634 2 6 9.16345 6 18H10ZM10 30V18H6V30H10ZM22 42C15.3726 42 10 36.6274 10 30H6C6 38.8366 13.1634 46 22 46V42ZM25.6575 42H22V46H25.6575V42ZM29.3578 46.4091L27.3895 43L23.9254 45L25.8937 48.4091L29.3578 46.4091ZM27.9406 46.4091C28.2555 45.8636 29.0428 45.8636 29.3578 46.4091L25.8937 48.4091C27.1183 50.5303 30.18 50.5303 31.4047 48.4091L27.9406 46.4091ZM29.9089 43L27.9406 46.4091L31.4047 48.4091L33.373 45L29.9089 43ZM34 42H31.6409V46H34V42ZM46 30C46 36.6274 40.6274 42 34 42V46C42.8366 46 50 38.8366 50 30H46ZM46 18V30H50V18H46ZM34 6C40.6274 6 46 11.3726 46 18H50C50 9.16344 42.8366 2 34 2V6ZM22 6H34V2H22V6Z" fill="#E97258" mask="url(#path-1-inside-1_10766_35766)"/>
<path fill-rule="evenodd" clip-rule="evenodd" d="M28.0001 10.5195C27.1901 10.5195 26.4858 10.5782 25.8753 10.6839C23.7505 11.0243 22.7879 13.0552 22.964 14.9569C23.1871 17.3752 23.5392 20.85 23.9266 23.1157C24.1497 24.3953 25.0301 25.5222 26.4506 25.6866C26.8849 25.7335 27.3897 25.7688 28.0001 25.7688C28.6106 25.7688 29.1271 25.7335 29.5497 25.6866C30.9702 25.5222 31.8506 24.3835 32.0736 23.1157C32.461 20.85 32.8132 17.3752 33.0363 14.9569C33.2123 13.0435 32.238 11.0126 30.1249 10.6839C29.5145 10.5782 28.8101 10.5195 28.0001 10.5195Z" fill="#E97258"/>
<path d="M27.6393 37.5193C30.2326 37.5193 32.335 35.417 32.335 32.8236C32.335 30.2303 30.2326 28.1279 27.6393 28.1279C25.0459 28.1279 22.9436 30.2303 22.9436 32.8236C22.9436 35.417 25.0459 37.5193 27.6393 37.5193Z" fill="#E97258"/>
</g>
<defs>
<filter id="filter0_d_10766_35766" x="0" y="0" width="56" height="60" filterUnits="userSpaceOnUse" color-interpolation-filters="sRGB">
<feFlood flood-opacity="0" result="BackgroundImageFix"/>
<feColorMatrix in="SourceAlpha" type="matrix" values="0 0 0 0 0 0 0 0 0 0 0 0 0 0 0 0 0 0 127 0" result="hardAlpha"/>
<feOffset dy="4"/>
<feGaussianBlur stdDeviation="4"/>
<feComposite in2="hardAlpha" operator="out"/>
<feColorMatrix type="matrix" values="0 0 0 0 0 0 0 0 0 0 0 0 0 0 0 0 0 0 0.08 0"/>
<feBlend mode="normal" in2="BackgroundImageFix" result="effect1_dropShadow_10766_35766"/>
<feBlend mode="normal" in="SourceGraphic" in2="effect1_dropShadow_10766_35766" result="shape"/>
</filter>
</defs>
</svg>
