<svg width="40" height="44" viewBox="0 0 40 44" fill="none" xmlns="http://www.w3.org/2000/svg">
<mask id="path-1-inside-1_13852_25962" fill="white">
<path fill-rule="evenodd" clip-rule="evenodd" d="M14 0C6.26801 0 0 6.26801 0 14V26C0 33.732 6.26801 40 14 40H17.6575L19.6257 43.4091C20.0806 44.197 21.2178 44.197 21.6727 43.4091L23.6409 40H26C33.732 40 40 33.732 40 26V14C40 6.26801 33.732 0 26 0H14Z"/>
</mask>
<path fill-rule="evenodd" clip-rule="evenodd" d="M14 0C6.26801 0 0 6.26801 0 14V26C0 33.732 6.26801 40 14 40H17.6575L19.6257 43.4091C20.0806 44.197 21.2178 44.197 21.6727 43.4091L23.6409 40H26C33.732 40 40 33.732 40 26V14C40 6.26801 33.732 0 26 0H14Z" fill="white" fill-opacity="0.9"/>
<path d="M17.6575 40L19.3895 39C19.0323 38.3812 18.372 38 17.6575 38V40ZM19.6257 43.4091L21.3578 42.4091L21.3578 42.4091L19.6257 43.4091ZM21.6727 43.4091L19.9406 42.4091L19.9406 42.4091L21.6727 43.4091ZM23.6409 40V38C22.9264 38 22.2661 38.3812 21.9089 39L23.6409 40ZM2 14C2 7.37258 7.37258 2 14 2V-2C5.16344 -2 -2 5.16345 -2 14H2ZM2 26V14H-2V26H2ZM14 38C7.37258 38 2 32.6274 2 26H-2C-2 34.8366 5.16345 42 14 42V38ZM17.6575 38H14V42H17.6575V38ZM21.3578 42.4091L19.3895 39L15.9254 41L17.8937 44.4091L21.3578 42.4091ZM19.9406 42.4091C20.2555 41.8636 21.0428 41.8636 21.3578 42.4091L17.8937 44.4091C19.1183 46.5303 22.1801 46.5303 23.4047 44.4091L19.9406 42.4091ZM21.9089 39L19.9406 42.4091L23.4047 44.4091L25.373 41L21.9089 39ZM26 38H23.6409V42H26V38ZM38 26C38 32.6274 32.6274 38 26 38V42C34.8366 42 42 34.8366 42 26H38ZM38 14V26H42V14H38ZM26 2C32.6274 2 38 7.37258 38 14H42C42 5.16344 34.8366 -2 26 -2V2ZM14 2H26V-2H14V2Z" fill="#E8C300" mask="url(#path-1-inside-1_13852_25962)"/>
<path fill-rule="evenodd" clip-rule="evenodd" d="M20.0004 6.51953C19.1904 6.51953 18.486 6.57823 17.8756 6.68388C15.7508 7.02432 14.7882 9.0552 14.9643 10.9569C15.1873 13.3752 15.5395 16.85 15.9269 19.1157C16.1499 20.3953 17.0304 21.5222 18.4508 21.6866C18.8852 21.7335 19.3899 21.7688 20.0004 21.7688C20.6108 21.7688 21.1273 21.7335 21.55 21.6866C22.9704 21.5222 23.8508 20.3835 24.0739 19.1157C24.4613 16.85 24.8135 13.3752 25.0365 10.9569C25.2126 9.04346 24.2382 7.01258 22.1252 6.68388C21.5147 6.57823 20.8104 6.51953 20.0004 6.51953Z" fill="#E8C300"/>
<path d="M19.6395 33.5193C22.2329 33.5193 24.3352 31.417 24.3352 28.8236C24.3352 26.2303 22.2329 24.1279 19.6395 24.1279C17.0462 24.1279 14.9438 26.2303 14.9438 28.8236C14.9438 31.417 17.0462 33.5193 19.6395 33.5193Z" fill="#E8C300"/>
</svg>
