<svg width="16" height="18" viewBox="0 0 16 18" fill="none" xmlns="http://www.w3.org/2000/svg">
<path fill-rule="evenodd" clip-rule="evenodd" d="M0.5 7.70947C0.5 3.56733 3.85786 0.209473 8 0.209473C12.1421 0.209473 15.5 3.56733 15.5 7.70947C15.5 10.397 14.1132 12.6576 12.6055 14.326C11.0929 15.9996 9.40298 17.1399 8.66791 17.5976C8.2556 17.8543 7.7444 17.8543 7.33209 17.5976C6.59702 17.1399 4.90701 15.9996 3.39453 14.326C1.88676 12.6576 0.5 10.397 0.5 7.70947ZM8 10.7864C9.69935 10.7864 11.0769 9.40883 11.0769 7.70947C11.0769 6.01012 9.69935 4.63256 8 4.63256C6.30065 4.63256 4.92309 6.01016 4.92309 7.70947C4.92309 9.40879 6.30065 10.7864 8 10.7864Z" fill="#656565"/>
</svg>
