<svg width="16" height="16" viewBox="0 0 16 16" fill="none" xmlns="http://www.w3.org/2000/svg">
<path fill-rule="evenodd" clip-rule="evenodd" d="M6.31788 2.12871C6.52695 1.64134 7.06658 1.19919 7.74748 1.33056C8.7886 1.53045 9.89399 2.32012 9.97169 3.60068L9.97592 3.74477V5.51058H11.6746C12.0768 5.51056 12.4743 5.5964 12.8407 5.76236C13.207 5.92832 13.5337 6.17058 13.7989 6.47294C14.064 6.7753 14.2616 7.13079 14.3784 7.51564C14.4951 7.90049 14.5284 8.30583 14.4759 8.70456L14.4547 8.84159L13.812 12.3732C13.698 13.0004 13.3753 13.5707 12.8962 13.9913C12.4171 14.4119 11.8099 14.6581 11.1731 14.6899L11.0326 14.6928H3.61903C3.07854 14.6928 2.55847 14.4863 2.16523 14.1155C1.77199 13.7447 1.5353 13.2377 1.50359 12.6981L1.50006 12.5738V8.33586C1.50003 7.79538 1.70654 7.27531 2.07733 6.88207C2.44812 6.48883 2.95516 6.25214 3.49471 6.22043L3.61903 6.2169H4.5655L6.31788 2.12871ZM4.32535 7.62954H3.61903C3.4317 7.62954 3.25204 7.70396 3.11958 7.83642C2.98712 7.96888 2.9127 8.14853 2.9127 8.33586V12.5738C2.9127 12.7611 2.98712 12.9408 3.11958 13.0732C3.25204 13.2057 3.4317 13.2801 3.61903 13.2801H4.32535V7.62954ZM7.59209 2.74179L5.7952 6.93523C5.7701 6.99364 5.75299 7.05517 5.74435 7.11816L5.73799 7.21281V13.2801H11.0326C11.344 13.2801 11.6468 13.1772 11.8937 12.9874C12.1406 12.7976 12.3179 12.5315 12.3979 12.2305L12.4226 12.1203L13.0654 8.58873C13.1009 8.39378 13.095 8.19354 13.0481 8.00102C13.0011 7.80849 12.9142 7.628 12.793 7.47126C12.6718 7.31452 12.5189 7.18503 12.3444 7.09122C12.1698 6.99741 11.9775 6.94138 11.7799 6.92675L11.6746 6.92322H9.97592C9.61953 6.92333 9.27626 6.78873 9.01494 6.5464C8.75361 6.30407 8.59354 5.97191 8.56681 5.61652L8.56328 5.51058V3.74477C8.56328 3.35418 8.25674 2.95652 7.71216 2.77711L7.59209 2.74179Z" fill="#989898"/>
</svg>
