<svg width="16" height="18" viewBox="0 0 16 18" fill="none" xmlns="http://www.w3.org/2000/svg">
<path fill-rule="evenodd" clip-rule="evenodd" d="M7.41483 0.773545C7.79208 0.631149 8.20792 0.631149 8.58517 0.773545L14.4185 2.97503C15.0691 3.22052 15.5 3.84637 15.5 4.54555V9.04301C15.5 11.902 13.895 14.5156 11.3541 15.7941L8.559 17.2006C8.20708 17.3777 7.79292 17.3777 7.441 17.2006L4.6459 15.7941C2.10502 14.5156 0.5 11.902 0.5 9.04301V4.54555C0.5 3.84637 0.930958 3.22052 1.58146 2.97503L7.41483 0.773545ZM8 2.34407L2.16667 4.54555V9.04301C2.16667 11.2666 3.41502 13.2995 5.39125 14.2939L8 15.6066V2.34407Z" fill="#656565"/>
</svg>
