<svg width="18" height="17" viewBox="0 0 18 17" fill="none" xmlns="http://www.w3.org/2000/svg">
<path fill-rule="evenodd" clip-rule="evenodd" d="M14.8334 0.5C15.4965 0.5 16.1323 0.763392 16.6012 1.23223C17.07 1.70107 17.3334 2.33696 17.3334 3V11.3333C17.3334 11.9964 17.07 12.6323 16.6012 13.1011C16.1323 13.5699 15.4965 13.8333 14.8334 13.8333H5.11091L2.33341 15.9167C1.64675 16.4317 0.666748 15.9417 0.666748 15.0833V3C0.666748 2.33696 0.93014 1.70107 1.39898 1.23223C1.86782 0.763392 2.50371 0.5 3.16675 0.5H14.8334ZM8.16675 8H5.66675C5.44573 8 5.23377 8.0878 5.07749 8.24408C4.92121 8.40036 4.83341 8.61232 4.83341 8.83333C4.83341 9.05435 4.92121 9.26631 5.07749 9.42259C5.23377 9.57887 5.44573 9.66667 5.66675 9.66667H8.16675C8.38776 9.66667 8.59972 9.57887 8.756 9.42259C8.91228 9.26631 9.00008 9.05435 9.00008 8.83333C9.00008 8.61232 8.91228 8.40036 8.756 8.24408C8.59972 8.0878 8.38776 8 8.16675 8ZM12.3334 4.66667H5.66675C5.45435 4.6669 5.25005 4.74823 5.09561 4.89404C4.94116 5.03985 4.84822 5.23913 4.83577 5.45116C4.82332 5.6632 4.89231 5.87198 5.02864 6.03486C5.16496 6.19774 5.35833 6.30241 5.56925 6.3275L5.66675 6.33333H12.3334C12.5458 6.3331 12.7501 6.25177 12.9046 6.10596C13.059 5.96015 13.1519 5.76087 13.1644 5.54884C13.1768 5.3368 13.1079 5.12802 12.9715 4.96514C12.8352 4.80226 12.6418 4.69759 12.4309 4.6725L12.3334 4.66667Z" fill="#656565"/>
</svg>
