<svg width="24" height="27" viewBox="0 0 24 27" fill="none" xmlns="http://www.w3.org/2000/svg">
<path fill-rule="evenodd" clip-rule="evenodd" d="M9 0C4.02944 0 0 4.02944 0 9V15C0 19.9706 4.02944 24 9 24H10.4832L11.9987 26.625C12.2874 27.125 13.0091 27.125 13.2978 26.625L14.8133 24H15C19.9706 24 24 19.9706 24 15V9C24 4.02944 19.9706 0 15 0H9Z" fill="#67C575"/>
<path fill-rule="evenodd" clip-rule="evenodd" d="M13 4.75C12.5665 4.75 12.1891 4.90727 11.8815 5.21489C11.5739 5.52251 11.4166 5.89984 11.4166 6.33333C11.4166 6.76683 11.5739 7.14416 11.8815 7.45178C12.0404 7.61065 12.2179 7.72942 12.4121 7.80714C12.2797 7.76912 12.1421 7.75 12 7.75C11.8179 7.75 11.6261 7.7792 11.4258 7.83381C11.2245 7.88873 10.9243 8.00328 10.5345 8.17036L8.20347 9.17358C7.92827 9.29202 7.74996 9.56288 7.74996 9.86248V12.1667C7.74996 12.5809 8.08575 12.9167 8.49996 12.9167H8.83329C9.24751 12.9167 9.58329 12.5809 9.58329 12.1667V10.742C9.58329 10.6389 9.64659 10.5464 9.74268 10.509L9.77582 10.4961C9.9596 10.4247 10.1499 10.5841 10.1117 10.7776L9.31927 14.7892C9.29232 14.9257 9.15918 15.0139 9.02302 14.9855L6.81104 14.5247C6.40323 14.4398 6.00433 14.7034 5.92263 15.1119L5.8526 15.462C5.77152 15.8674 6.03376 16.262 6.4389 16.3442L10.0715 17.0812C10.4708 17.1622 10.8617 16.9097 10.952 16.5124L11.3154 14.9137C11.3583 14.7245 11.5911 14.6542 11.7315 14.788L12.339 15.3666C12.3886 15.4138 12.4166 15.4792 12.4166 15.5476V18.8333C12.4166 19.2475 12.7524 19.5833 13.1666 19.5833H13.5C13.9142 19.5833 14.25 19.2475 14.25 18.8333V14.5476C14.25 14.3424 14.1658 14.1461 14.0172 14.0045L12.9719 13.009C12.9098 12.9498 12.8823 12.863 12.8991 12.7789L13.0451 12.0493C13.0646 11.9518 13.1382 11.8745 13.2527 11.8391C13.3695 11.8029 13.5014 11.8209 13.5977 11.8925C13.874 12.0979 14.1751 12.2783 14.5004 12.4339C15.0186 12.6817 15.5665 12.8341 16.1428 12.8911C16.5814 12.9345 16.9166 12.5733 16.9166 12.1667V11.8333C16.9166 11.4115 16.5776 11.1039 16.2018 11.0527C15.7997 10.998 15.4349 10.87 15.1046 10.6696C14.6421 10.3889 14.2795 10.0331 14.0125 9.60174L13.3466 8.5363L13.3459 8.53519C13.2031 8.30186 13.0138 8.11269 12.7803 7.97001C12.7064 7.92485 12.6303 7.88658 12.5523 7.85527C12.6937 7.89609 12.8432 7.91667 13 7.91667C13.4335 7.91667 13.8108 7.7594 14.1184 7.45178C14.426 7.14416 14.5833 6.76683 14.5833 6.33333C14.5833 5.89984 14.426 5.52251 14.1184 5.21489C13.8108 4.90727 13.4335 4.75 13 4.75Z" fill="white"/>
</svg>
