<svg width="56" height="60" viewBox="0 0 56 60" fill="none" xmlns="http://www.w3.org/2000/svg">
<g filter="url(#filter0_d_10766_35892)">
<mask id="path-1-inside-1_10766_35892" fill="white">
<path fill-rule="evenodd" clip-rule="evenodd" d="M22 4C14.268 4 8 10.268 8 18V30C8 37.732 14.268 44 22 44H24.7631L26.9693 47.438C27.4503 48.1875 28.5457 48.1875 29.0266 47.438L31.2329 44H34C41.732 44 48 37.732 48 30V18C48 10.268 41.732 4 34 4H22Z"/>
</mask>
<path fill-rule="evenodd" clip-rule="evenodd" d="M22 4C14.268 4 8 10.268 8 18V30C8 37.732 14.268 44 22 44H24.7631L26.9693 47.438C27.4503 48.1875 28.5457 48.1875 29.0266 47.438L31.2329 44H34C41.732 44 48 37.732 48 30V18C48 10.268 41.732 4 34 4H22Z" fill="white" fill-opacity="0.9"/>
<path d="M24.7631 44L26.4464 42.9199C26.0785 42.3466 25.4442 42 24.7631 42V44ZM26.9693 47.438L28.6526 46.3579V46.3579L26.9693 47.438ZM29.0266 47.438L30.7099 48.5182H30.7099L29.0266 47.438ZM31.2329 44V42C30.5517 42 29.9175 42.3466 29.5496 42.9199L31.2329 44ZM10 18C10 11.3726 15.3726 6 22 6V2C13.1634 2 6 9.16345 6 18H10ZM10 30V18H6V30H10ZM22 42C15.3726 42 10 36.6274 10 30H6C6 38.8366 13.1634 46 22 46V42ZM24.7631 42H22V46H24.7631V42ZM28.6526 46.3579L26.4464 42.9199L23.0799 45.0801L25.2861 48.5182L28.6526 46.3579ZM27.3434 46.3579C27.6495 45.8809 28.3465 45.8809 28.6526 46.3579L25.2861 48.5182C26.5541 50.4942 29.4419 50.4942 30.7099 48.5182L27.3434 46.3579ZM29.5496 42.9199L27.3434 46.3579L30.7099 48.5182L32.9161 45.0801L29.5496 42.9199ZM34 42H31.2329V46H34V42ZM46 30C46 36.6274 40.6274 42 34 42V46C42.8366 46 50 38.8366 50 30H46ZM46 18V30H50V18H46ZM34 6C40.6274 6 46 11.3726 46 18H50C50 9.16344 42.8366 2 34 2V6ZM22 6H34V2H22V6Z" fill="#67C575" mask="url(#path-1-inside-1_10766_35892)"/>
<path d="M23.5 36C21.4111 36 19.6389 35.2722 18.1833 33.8167C16.7278 32.3611 16 30.5889 16 28.5C16 27.5 16.1889 26.5444 16.5667 25.6333C16.9444 24.7222 17.4889 23.9111 18.2 23.2L27.2 14.2C27.9111 13.4889 28.7222 12.9444 29.6333 12.5667C30.5444 12.1889 31.5 12 32.5 12C34.5889 12 36.3611 12.7278 37.8167 14.1833C39.2722 15.6389 40 17.4111 40 19.5C40 20.5 39.8111 21.4556 39.4333 22.3667C39.0556 23.2778 38.5111 24.0889 37.8 24.8L28.8 33.8C28.0889 34.5111 27.2778 35.0556 26.3667 35.4333C25.4556 35.8111 24.5 36 23.5 36ZM32.3667 26.4667L35.9333 22.9333C36.3778 22.4889 36.7222 21.9667 36.9667 21.3667C37.2111 20.7667 37.3333 20.1444 37.3333 19.5C37.3333 18.1667 36.8611 17.0278 35.9167 16.0833C34.9722 15.1389 33.8333 14.6667 32.5 14.6667C31.8556 14.6667 31.2333 14.7889 30.6333 15.0333C30.0333 15.2778 29.5111 15.6222 29.0667 16.0667L25.5333 19.6333L32.3667 26.4667ZM23.5 33.3333C24.1444 33.3333 24.7667 33.2111 25.3667 32.9667C25.9667 32.7222 26.4889 32.3778 26.9333 31.9333L30.4667 28.3667L23.6333 21.5333L20.0667 25.0667C19.6222 25.5111 19.2778 26.0333 19.0333 26.6333C18.7889 27.2333 18.6667 27.8556 18.6667 28.5C18.6667 29.8333 19.1389 30.9722 20.0833 31.9167C21.0278 32.8611 22.1667 33.3333 23.5 33.3333Z" fill="#67C575"/>
<path d="M23.5 33.3333C24.1444 33.3333 24.7667 33.2111 25.3667 32.9667C25.9667 32.7222 26.4889 32.3778 26.9333 31.9333L30.4667 28.3667L23.6333 21.5333L20.0667 25.0667C19.6222 25.5111 19.2778 26.0333 19.0333 26.6333C18.7889 27.2333 18.6667 27.8556 18.6667 28.5C18.6667 29.8333 19.1389 30.9722 20.0833 31.9167C21.0278 32.8611 22.1667 33.3333 23.5 33.3333Z" fill="#67C575"/>
</g>
<defs>
<filter id="filter0_d_10766_35892" x="0" y="0" width="56" height="60" filterUnits="userSpaceOnUse" color-interpolation-filters="sRGB">
<feFlood flood-opacity="0" result="BackgroundImageFix"/>
<feColorMatrix in="SourceAlpha" type="matrix" values="0 0 0 0 0 0 0 0 0 0 0 0 0 0 0 0 0 0 127 0" result="hardAlpha"/>
<feOffset dy="4"/>
<feGaussianBlur stdDeviation="4"/>
<feComposite in2="hardAlpha" operator="out"/>
<feColorMatrix type="matrix" values="0 0 0 0 0 0 0 0 0 0 0 0 0 0 0 0 0 0 0.08 0"/>
<feBlend mode="normal" in2="BackgroundImageFix" result="effect1_dropShadow_10766_35892"/>
<feBlend mode="normal" in="SourceGraphic" in2="effect1_dropShadow_10766_35892" result="shape"/>
</filter>
</defs>
</svg>
