<svg width="56" height="60" viewBox="0 0 56 60" fill="none" xmlns="http://www.w3.org/2000/svg">
<g filter="url(#filter0_d_10766_35580)">
<mask id="path-1-inside-1_10766_35580" fill="white">
<path fill-rule="evenodd" clip-rule="evenodd" d="M22 4C14.268 4 8 10.268 8 18V30C8 37.732 14.268 44 22 44H24.7631L26.9693 47.438C27.4503 48.1875 28.5457 48.1875 29.0266 47.438L31.2329 44H34C41.732 44 48 37.732 48 30V18C48 10.268 41.732 4 34 4H22Z"/>
</mask>
<path fill-rule="evenodd" clip-rule="evenodd" d="M22 4C14.268 4 8 10.268 8 18V30C8 37.732 14.268 44 22 44H24.7631L26.9693 47.438C27.4503 48.1875 28.5457 48.1875 29.0266 47.438L31.2329 44H34C41.732 44 48 37.732 48 30V18C48 10.268 41.732 4 34 4H22Z" fill="white" fill-opacity="0.9"/>
<path d="M24.7631 44L26.4464 42.9199C26.0785 42.3466 25.4442 42 24.7631 42V44ZM26.9693 47.438L28.6526 46.3579V46.3579L26.9693 47.438ZM29.0266 47.438L30.7099 48.5182H30.7099L29.0266 47.438ZM31.2329 44V42C30.5517 42 29.9175 42.3466 29.5496 42.9199L31.2329 44ZM10 18C10 11.3726 15.3726 6 22 6V2C13.1634 2 6 9.16345 6 18H10ZM10 30V18H6V30H10ZM22 42C15.3726 42 10 36.6274 10 30H6C6 38.8366 13.1634 46 22 46V42ZM24.7631 42H22V46H24.7631V42ZM28.6526 46.3579L26.4464 42.9199L23.0799 45.0801L25.2861 48.5182L28.6526 46.3579ZM27.3434 46.3579C27.6495 45.8809 28.3465 45.8809 28.6526 46.3579L25.2861 48.5182C26.5541 50.4942 29.4419 50.4942 30.7099 48.5182L27.3434 46.3579ZM29.5496 42.9199L27.3434 46.3579L30.7099 48.5182L32.9161 45.0801L29.5496 42.9199ZM34 42H31.2329V46H34V42ZM46 30C46 36.6274 40.6274 42 34 42V46C42.8366 46 50 38.8366 50 30H46ZM46 18V30H50V18H46ZM34 6C40.6274 6 46 11.3726 46 18H50C50 9.16344 42.8366 2 34 2V6ZM22 6H34V2H22V6Z" fill="#67C575" mask="url(#path-1-inside-1_10766_35580)"/>
<path d="M16.1805 35.5C15.6512 35.5 15.2222 35.0709 15.2222 34.5417V33.9028C15.2222 33.3735 15.6512 32.9444 16.1805 32.9444H19.3749C19.9042 32.9444 20.3333 32.5154 20.3333 31.9861V28.7917C20.3333 28.2624 19.9042 27.8333 19.3749 27.8333H18.7361C18.2068 27.8333 17.7777 27.4043 17.7777 26.875V26.2361C17.7777 25.7068 18.2068 25.2778 18.7361 25.2778H19.6439C20.1147 25.2778 20.5091 24.9335 20.6315 24.4789C20.9716 23.2161 21.6229 22.1035 22.5854 21.141C23.5479 20.1785 24.6605 19.5272 25.9233 19.1871C26.3779 19.0647 26.7222 18.6703 26.7222 18.1995V13.4583C26.7222 12.9291 27.1512 12.5 27.6805 12.5H34.7083C35.2376 12.5 35.6666 12.9291 35.6666 13.4583V16.6528C35.6666 17.1821 35.2376 17.6111 34.7083 17.6111H30.0364C29.6174 17.6111 29.2777 17.9508 29.2777 18.3698C29.2777 18.7425 29.5498 19.0558 29.9117 19.1447C31.2427 19.4713 32.4103 20.1368 33.4145 21.141C34.377 22.1035 35.0283 23.2161 35.3684 24.4789C35.4908 24.9335 35.8852 25.2778 36.356 25.2778H37.2638C37.7931 25.2778 38.2222 25.7068 38.2222 26.2361V26.875C38.2222 27.4043 37.7931 27.8333 37.2638 27.8333H36.6249C36.0957 27.8333 35.6666 28.2624 35.6666 28.7917V31.9861C35.6666 32.5154 36.0957 32.9444 36.6249 32.9444H39.8194C40.3487 32.9444 40.7777 33.3735 40.7777 33.9028V34.5417C40.7777 35.0709 40.3487 35.5 39.8194 35.5H16.1805ZM22.8888 31.9861C22.8888 32.5154 23.3179 32.9444 23.8472 32.9444H25.7638C26.2931 32.9444 26.7222 32.5154 26.7222 31.9861V28.7917C26.7222 28.2624 26.2931 27.8333 25.7638 27.8333H23.8472C23.3179 27.8333 22.8888 28.2624 22.8888 28.7917V31.9861ZM29.2777 31.9861C29.2777 32.5154 29.7068 32.9444 30.2361 32.9444H32.1527C32.682 32.9444 33.1111 32.5154 33.1111 31.9861V28.7917C33.1111 28.2624 32.682 27.8333 32.1527 27.8333H30.2361C29.7068 27.8333 29.2777 28.2624 29.2777 28.7917V31.9861ZM23.5323 24.1214C23.2349 24.6753 23.6961 25.2778 24.3249 25.2778H31.675C32.3038 25.2778 32.765 24.6753 32.4676 24.1214C32.1353 23.5024 31.679 22.9668 31.0986 22.5146C30.1828 21.8012 29.1499 21.4444 27.9999 21.4444C26.8499 21.4444 25.8171 21.8012 24.9013 22.5146C24.3209 22.9668 23.8646 23.5024 23.5323 24.1214Z" fill="#67C575"/>
<path d="M23.5323 24.1214C23.2349 24.6753 23.6961 25.2778 24.3249 25.2778H31.675C32.3038 25.2778 32.765 24.6753 32.4676 24.1214C32.1353 23.5024 31.679 22.9668 31.0986 22.5146C30.1828 21.8012 29.1499 21.4444 27.9999 21.4444C26.8499 21.4444 25.8171 21.8012 24.9013 22.5146C24.3209 22.9668 23.8646 23.5024 23.5323 24.1214Z" fill="#67C575"/>
</g>
<defs>
<filter id="filter0_d_10766_35580" x="0" y="0" width="56" height="60" filterUnits="userSpaceOnUse" color-interpolation-filters="sRGB">
<feFlood flood-opacity="0" result="BackgroundImageFix"/>
<feColorMatrix in="SourceAlpha" type="matrix" values="0 0 0 0 0 0 0 0 0 0 0 0 0 0 0 0 0 0 127 0" result="hardAlpha"/>
<feOffset dy="4"/>
<feGaussianBlur stdDeviation="4"/>
<feComposite in2="hardAlpha" operator="out"/>
<feColorMatrix type="matrix" values="0 0 0 0 0 0 0 0 0 0 0 0 0 0 0 0 0 0 0.08 0"/>
<feBlend mode="normal" in2="BackgroundImageFix" result="effect1_dropShadow_10766_35580"/>
<feBlend mode="normal" in="SourceGraphic" in2="effect1_dropShadow_10766_35580" result="shape"/>
</filter>
</defs>
</svg>
