<svg width="56" height="60" viewBox="0 0 56 60" fill="none" xmlns="http://www.w3.org/2000/svg">
<g filter="url(#filter0_d_10766_35890)">
<mask id="path-1-inside-1_10766_35890" fill="white">
<path fill-rule="evenodd" clip-rule="evenodd" d="M22 4C14.268 4 8 10.268 8 18V30C8 37.732 14.268 44 22 44H24.7631L26.9693 47.438C27.4503 48.1875 28.5457 48.1875 29.0266 47.438L31.2329 44H34C41.732 44 48 37.732 48 30V18C48 10.268 41.732 4 34 4H22Z"/>
</mask>
<path fill-rule="evenodd" clip-rule="evenodd" d="M22 4C14.268 4 8 10.268 8 18V30C8 37.732 14.268 44 22 44H24.7631L26.9693 47.438C27.4503 48.1875 28.5457 48.1875 29.0266 47.438L31.2329 44H34C41.732 44 48 37.732 48 30V18C48 10.268 41.732 4 34 4H22Z" fill="white" fill-opacity="0.9"/>
<path d="M24.7631 44L26.4464 42.9199C26.0785 42.3466 25.4442 42 24.7631 42V44ZM26.9693 47.438L28.6526 46.3579V46.3579L26.9693 47.438ZM29.0266 47.438L30.7099 48.5182H30.7099L29.0266 47.438ZM31.2329 44V42C30.5517 42 29.9175 42.3466 29.5496 42.9199L31.2329 44ZM10 18C10 11.3726 15.3726 6 22 6V2C13.1634 2 6 9.16345 6 18H10ZM10 30V18H6V30H10ZM22 42C15.3726 42 10 36.6274 10 30H6C6 38.8366 13.1634 46 22 46V42ZM24.7631 42H22V46H24.7631V42ZM28.6526 46.3579L26.4464 42.9199L23.0799 45.0801L25.2861 48.5182L28.6526 46.3579ZM27.3434 46.3579C27.6495 45.8809 28.3465 45.8809 28.6526 46.3579L25.2861 48.5182C26.5541 50.4942 29.4419 50.4942 30.7099 48.5182L27.3434 46.3579ZM29.5496 42.9199L27.3434 46.3579L30.7099 48.5182L32.9161 45.0801L29.5496 42.9199ZM34 42H31.2329V46H34V42ZM46 30C46 36.6274 40.6274 42 34 42V46C42.8366 46 50 38.8366 50 30H46ZM46 18V30H50V18H46ZM34 6C40.6274 6 46 11.3726 46 18H50C50 9.16344 42.8366 2 34 2V6ZM22 6H34V2H22V6Z" fill="#67C575" mask="url(#path-1-inside-1_10766_35890)"/>
<path fill-rule="evenodd" clip-rule="evenodd" d="M29.8063 10.3623C28.9897 10.3623 28.2789 10.6586 27.6994 11.238C27.12 11.8175 26.8237 12.5283 26.8237 13.3449C26.8237 14.1615 27.12 14.8722 27.6994 15.4517C27.9987 15.751 28.333 15.9747 28.6989 16.1211C28.4496 16.0495 28.1904 16.0135 27.9226 16.0135C27.5796 16.0135 27.2183 16.0685 26.8411 16.1713C26.4618 16.2748 25.8964 16.4906 25.162 16.8053L20.771 18.6951C20.2526 18.9182 19.9167 19.4284 19.9167 19.9928V24.3332C19.9167 25.1135 20.5493 25.746 21.3295 25.746H21.9574C22.7377 25.746 23.3702 25.1135 23.3702 24.3332V21.6496C23.3702 21.4554 23.4895 21.2811 23.6705 21.2107L23.7329 21.1864C24.0791 21.0518 24.4376 21.3522 24.3656 21.7166L22.8729 29.2734C22.8221 29.5305 22.5713 29.6967 22.3148 29.6432L18.1481 28.7751C17.3799 28.6151 16.6285 29.1117 16.4746 29.8812L16.3426 30.5408C16.1899 31.3044 16.6839 32.0476 17.4471 32.2025L24.2899 33.5909C25.042 33.7435 25.7784 33.2677 25.9485 32.5194L26.633 29.5078C26.7139 29.1514 27.1523 29.0191 27.417 29.2711L28.5613 30.361C28.6546 30.4499 28.7074 30.5731 28.7074 30.702V36.8914C28.7074 37.6716 29.34 38.3042 30.1202 38.3042H30.7481C31.5284 38.3042 32.1609 37.6716 32.1609 36.8914V28.8183C32.1609 28.4316 32.0025 28.0619 31.7225 27.7952L29.7534 25.9199C29.6364 25.8085 29.5847 25.6449 29.6163 25.4865L29.8912 24.1121C29.928 23.9284 30.0667 23.7828 30.2823 23.7161C30.5024 23.6481 30.7508 23.682 30.9322 23.8168C31.4527 24.2037 32.0199 24.5435 32.6327 24.8366C33.6088 25.3034 34.6409 25.5906 35.7265 25.6979C36.5527 25.7797 37.1842 25.0992 37.1842 24.3332V23.7053C37.1842 22.9106 36.5456 22.3313 35.8376 22.2349C35.0803 22.1317 34.393 21.8906 33.7709 21.5132C32.8995 20.9845 32.2166 20.3141 31.7137 19.5016L30.458 17.4925C30.189 17.053 29.8323 16.6967 29.3925 16.4279C29.2533 16.3428 29.11 16.2708 28.9629 16.2118C29.2294 16.2887 29.5109 16.3274 29.8063 16.3274C30.6229 16.3274 31.3336 16.0312 31.9131 15.4517C32.4926 14.8722 32.7888 14.1615 32.7888 13.3449C32.7888 12.5283 32.4926 11.8175 31.9131 11.238C31.3336 10.6586 30.6229 10.3623 29.8063 10.3623Z" fill="#67C575"/>
</g>
<defs>
<filter id="filter0_d_10766_35890" x="0" y="0" width="56" height="60" filterUnits="userSpaceOnUse" color-interpolation-filters="sRGB">
<feFlood flood-opacity="0" result="BackgroundImageFix"/>
<feColorMatrix in="SourceAlpha" type="matrix" values="0 0 0 0 0 0 0 0 0 0 0 0 0 0 0 0 0 0 127 0" result="hardAlpha"/>
<feOffset dy="4"/>
<feGaussianBlur stdDeviation="4"/>
<feComposite in2="hardAlpha" operator="out"/>
<feColorMatrix type="matrix" values="0 0 0 0 0 0 0 0 0 0 0 0 0 0 0 0 0 0 0.08 0"/>
<feBlend mode="normal" in2="BackgroundImageFix" result="effect1_dropShadow_10766_35890"/>
<feBlend mode="normal" in="SourceGraphic" in2="effect1_dropShadow_10766_35890" result="shape"/>
</filter>
</defs>
</svg>
