<svg width="24" height="27" viewBox="0 0 24 27" fill="none" xmlns="http://www.w3.org/2000/svg">
<path fill-rule="evenodd" clip-rule="evenodd" d="M9 0C4.02944 0 0 4.02944 0 9V15C0 19.9706 4.02944 24 9 24H10.4832L11.9987 26.625C12.2874 27.125 13.0091 27.125 13.2978 26.625L14.8133 24H15C19.9706 24 24 19.9706 24 15V9C24 4.02944 19.9706 0 15 0H9Z" fill="#67C575"/>
<path d="M5.83325 18C5.55711 18 5.33325 17.7761 5.33325 17.5V17.1667C5.33325 16.8905 5.55711 16.6667 5.83325 16.6667H7.49992C7.77606 16.6667 7.99992 16.4428 7.99992 16.1667V14.5C7.99992 14.2239 7.77606 14 7.49992 14H7.16659C6.89044 14 6.66659 13.7761 6.66659 13.5V13.1667C6.66659 12.8905 6.89044 12.6667 7.16659 12.6667H7.64023C7.88587 12.6667 8.09164 12.487 8.15551 12.2498C8.33294 11.591 8.67274 11.0105 9.17492 10.5083C9.6771 10.0062 10.2576 9.66635 10.9164 9.48893C11.1536 9.42505 11.3333 9.21929 11.3333 8.97364V6.5C11.3333 6.22386 11.5571 6 11.8333 6H15.4999C15.7761 6 15.9999 6.22386 15.9999 6.5V8.16667C15.9999 8.44281 15.7761 8.66667 15.4999 8.66667H13.0624C12.8438 8.66667 12.6666 8.84388 12.6666 9.06248C12.6666 9.25694 12.8085 9.42044 12.9974 9.46679C13.6918 9.63722 14.301 9.98441 14.8249 10.5083C15.3271 11.0105 15.6669 11.591 15.8443 12.2498C15.9082 12.487 16.114 12.6667 16.3596 12.6667H16.8333C17.1094 12.6667 17.3333 12.8905 17.3333 13.1667V13.5C17.3333 13.7761 17.1094 14 16.8333 14H16.4999C16.2238 14 15.9999 14.2239 15.9999 14.5V16.1667C15.9999 16.4428 16.2238 16.6667 16.4999 16.6667H18.1666C18.4427 16.6667 18.6666 16.8905 18.6666 17.1667V17.5C18.6666 17.7761 18.4427 18 18.1666 18H5.83325ZM9.33325 16.1667C9.33325 16.4428 9.55711 16.6667 9.83325 16.6667H10.8333C11.1094 16.6667 11.3333 16.4428 11.3333 16.1667V14.5C11.3333 14.2239 11.1094 14 10.8333 14H9.83325C9.55711 14 9.33325 14.2239 9.33325 14.5V16.1667ZM12.6666 16.1667C12.6666 16.4428 12.8904 16.6667 13.1666 16.6667H14.1666C14.4427 16.6667 14.6666 16.4428 14.6666 16.1667V14.5C14.6666 14.2239 14.4427 14 14.1666 14H13.1666C12.8904 14 12.6666 14.2239 12.6666 14.5V16.1667ZM9.66895 12.0633C9.5138 12.3523 9.75445 12.6667 10.0825 12.6667H13.9174C14.2454 12.6667 14.486 12.3523 14.3309 12.0633C14.1575 11.7404 13.9194 11.4609 13.6166 11.225C13.1388 10.8528 12.5999 10.6667 11.9999 10.6667C11.3999 10.6667 10.861 10.8528 10.3833 11.225C10.0804 11.4609 9.84233 11.7404 9.66895 12.0633Z" fill="white"/>
<path d="M9.66895 12.0633C9.5138 12.3523 9.75445 12.6667 10.0825 12.6667H13.9174C14.2454 12.6667 14.486 12.3523 14.3309 12.0633C14.1575 11.7404 13.9194 11.4609 13.6166 11.225C13.1388 10.8528 12.5999 10.6667 11.9999 10.6667C11.3999 10.6667 10.861 10.8528 10.3833 11.225C10.0804 11.4609 9.84233 11.7404 9.66895 12.0633Z" fill="white"/>
</svg>
