<svg width="24" height="24" viewBox="0 0 24 24" fill="none" xmlns="http://www.w3.org/2000/svg">
<path d="M0 9C0 4.02944 4.02944 0 9 0H15C19.9706 0 24 4.02944 24 9V15C24 19.9706 19.9706 24 15 24H9C4.02944 24 0 19.9706 0 15V9Z" fill="#1AA3DD"/>
<path d="M12.0337 5C10.0092 5 8.72699 5.21033 7.98466 5.35055C7.17485 5.56088 6.70245 6.26197 6.63497 7.03318C6.56748 8.01471 6.5 9.83756 6.5 12.712C6.5 15.0257 6.5 16.498 6.56748 17.4795C6.56748 18.1105 6.83742 18.6714 7.3773 18.8817C7.84969 19.092 8.45706 19.0219 8.92945 18.6714L11.2239 17.0588C11.6963 16.7083 12.3037 16.7083 12.7761 17.0588L15.0706 18.6013C15.5429 18.9518 16.1503 19.092 16.6227 18.8116C17.1626 18.5311 17.365 18.0404 17.4325 17.4094C17.5 16.4279 17.5 14.9556 17.5 12.6419C17.5 9.76745 17.4325 7.9446 17.365 6.96307C17.2975 6.19186 16.8926 5.49077 16.0828 5.28044C15.3405 5.21033 14.0583 5 12.0337 5Z" fill="white"/>
</svg>
