<svg width="24" height="27" viewBox="0 0 24 27" fill="none" xmlns="http://www.w3.org/2000/svg">
<path fill-rule="evenodd" clip-rule="evenodd" d="M9 0C4.02944 0 0 4.02944 0 9V15C0 19.9706 4.02944 24 9 24H10.4832L11.9987 26.625C12.2874 27.125 13.0091 27.125 13.2978 26.625L14.8133 24H15C19.9706 24 24 19.9706 24 15V9C24 4.02944 19.9706 0 15 0H9Z" fill="#67C575"/>
<path d="M9.75 18C8.70556 18 7.81944 17.6361 7.09167 16.9083C6.36389 16.1806 6 15.2944 6 14.25C6 13.75 6.09444 13.2722 6.28333 12.8167C6.47222 12.3611 6.74444 11.9556 7.1 11.6L11.6 7.1C11.9556 6.74444 12.3611 6.47222 12.8167 6.28333C13.2722 6.09444 13.75 6 14.25 6C15.2944 6 16.1806 6.36389 16.9083 7.09167C17.6361 7.81944 18 8.70556 18 9.75C18 10.25 17.9056 10.7278 17.7167 11.1833C17.5278 11.6389 17.2556 12.0444 16.9 12.4L12.4 16.9C12.0444 17.2556 11.6389 17.5278 11.1833 17.7167C10.7278 17.9056 10.25 18 9.75 18ZM14.1833 13.2333L15.9667 11.4667C16.1889 11.2444 16.3611 10.9833 16.4833 10.6833C16.6056 10.3833 16.6667 10.0722 16.6667 9.75C16.6667 9.08333 16.4306 8.51389 15.9583 8.04167C15.4861 7.56944 14.9167 7.33333 14.25 7.33333C13.9278 7.33333 13.6167 7.39444 13.3167 7.51667C13.0167 7.63889 12.7556 7.81111 12.5333 8.03333L10.7667 9.81667L14.1833 13.2333ZM9.75 16.6667C10.0722 16.6667 10.3833 16.6056 10.6833 16.4833C10.9833 16.3611 11.2444 16.1889 11.4667 15.9667L13.2333 14.1833L9.81667 10.7667L8.03333 12.5333C7.81111 12.7556 7.63889 13.0167 7.51667 13.3167C7.39444 13.6167 7.33333 13.9278 7.33333 14.25C7.33333 14.9167 7.56944 15.4861 8.04167 15.9583C8.51389 16.4306 9.08333 16.6667 9.75 16.6667Z" fill="white"/>
<path d="M9.75 16.6667C10.0722 16.6667 10.3833 16.6056 10.6833 16.4833C10.9833 16.3611 11.2444 16.1889 11.4667 15.9667L13.2333 14.1833L9.81667 10.7667L8.03333 12.5333C7.81111 12.7556 7.63889 13.0167 7.51667 13.3167C7.39444 13.6167 7.33333 13.9278 7.33333 14.25C7.33333 14.9167 7.56944 15.4861 8.04167 15.9583C8.51389 16.4306 9.08333 16.6667 9.75 16.6667Z" fill="white"/>
</svg>
