<svg width="56" height="60" viewBox="0 0 56 60" fill="none" xmlns="http://www.w3.org/2000/svg">
<g filter="url(#filter0_d_10285_14877)">
<mask id="path-1-inside-1_10285_14877" fill="white">
<path fill-rule="evenodd" clip-rule="evenodd" d="M22 4C14.268 4 8 10.268 8 18V30C8 37.732 14.268 44 22 44H24.7631L26.9693 47.438C27.4503 48.1875 28.5457 48.1875 29.0266 47.438L31.2329 44H34C41.732 44 48 37.732 48 30V18C48 10.268 41.732 4 34 4H22Z"/>
</mask>
<path fill-rule="evenodd" clip-rule="evenodd" d="M22 4C14.268 4 8 10.268 8 18V30C8 37.732 14.268 44 22 44H24.7631L26.9693 47.438C27.4503 48.1875 28.5457 48.1875 29.0266 47.438L31.2329 44H34C41.732 44 48 37.732 48 30V18C48 10.268 41.732 4 34 4H22Z" fill="white" fill-opacity="0.9"/>
<path d="M24.7631 44L26.4464 42.9199C26.0785 42.3466 25.4442 42 24.7631 42V44ZM26.9693 47.438L28.6526 46.3579V46.3579L26.9693 47.438ZM29.0266 47.438L30.7099 48.5182H30.7099L29.0266 47.438ZM31.2329 44V42C30.5517 42 29.9175 42.3466 29.5496 42.9199L31.2329 44ZM10 18C10 11.3726 15.3726 6 22 6V2C13.1634 2 6 9.16345 6 18H10ZM10 30V18H6V30H10ZM22 42C15.3726 42 10 36.6274 10 30H6C6 38.8366 13.1634 46 22 46V42ZM24.7631 42H22V46H24.7631V42ZM28.6526 46.3579L26.4464 42.9199L23.0799 45.0801L25.2861 48.5182L28.6526 46.3579ZM27.3434 46.3579C27.6495 45.8809 28.3465 45.8809 28.6526 46.3579L25.2861 48.5182C26.5541 50.4942 29.4419 50.4942 30.7099 48.5182L27.3434 46.3579ZM29.5496 42.9199L27.3434 46.3579L30.7099 48.5182L32.9161 45.0801L29.5496 42.9199ZM34 42H31.2329V46H34V42ZM46 30C46 36.6274 40.6274 42 34 42V46C42.8366 46 50 38.8366 50 30H46ZM46 18V30H50V18H46ZM34 6C40.6274 6 46 11.3726 46 18H50C50 9.16344 42.8366 2 34 2V6ZM22 6H34V2H22V6Z" fill="#67C575" mask="url(#path-1-inside-1_10285_14877)"/>
<path d="M38.4988 13.1478C38.4008 13.1151 38.3007 13.0988 38.1986 13.0988C34.9023 13.0988 31.6386 12.6025 28.4914 11.6222C28.3076 11.565 28.1176 11.5671 27.9338 11.6222C24.7764 12.6291 21.4657 13.1397 18.0653 13.1397C17.5445 13.1397 17.1523 13.5624 17.1523 14.0832V14.1261C17.1523 23.6495 17.1217 31.1694 27.7194 36.3222C27.8501 36.3855 27.9624 36.4161 28.1033 36.4161C28.2442 36.4161 28.3893 36.3855 28.52 36.3201C39.1523 31.0938 39.1523 23.5698 39.1523 14.0424C39.1523 13.64 38.8807 13.2765 38.4988 13.1458V13.1478ZM34.1221 22.132L31.8347 24.3643L32.3595 27.4299C32.38 27.5075 32.3922 27.5994 32.3922 27.6851C32.3922 28.2059 31.9695 28.6389 31.4487 28.6389H31.4446C31.2955 28.6389 31.1444 28.5919 31.0075 28.5184L28.1769 27.0255L25.3482 28.5102C25.0317 28.6777 24.6457 28.6491 24.3556 28.4367C24.0656 28.2264 23.9206 27.869 23.9819 27.5156L24.5211 24.3643L22.2316 22.132C21.9763 21.8829 21.8824 21.5071 21.9947 21.166C22.105 20.825 22.3991 20.5778 22.7545 20.5247L25.918 20.0652L27.3334 17.1998C27.4906 16.8771 27.8194 16.6749 28.1769 16.6749C28.5343 16.6749 28.8631 16.8771 29.0224 17.1998L30.4377 20.0652L33.6013 20.5247C33.9567 20.5778 34.2507 20.825 34.361 21.166C34.4713 21.5071 34.3794 21.8829 34.1221 22.132Z" fill="#67C575"/>
</g>
<defs>
<filter id="filter0_d_10285_14877" x="0" y="0" width="56" height="60" filterUnits="userSpaceOnUse" color-interpolation-filters="sRGB">
<feFlood flood-opacity="0" result="BackgroundImageFix"/>
<feColorMatrix in="SourceAlpha" type="matrix" values="0 0 0 0 0 0 0 0 0 0 0 0 0 0 0 0 0 0 127 0" result="hardAlpha"/>
<feOffset dy="4"/>
<feGaussianBlur stdDeviation="4"/>
<feComposite in2="hardAlpha" operator="out"/>
<feColorMatrix type="matrix" values="0 0 0 0 0 0 0 0 0 0 0 0 0 0 0 0 0 0 0.08 0"/>
<feBlend mode="normal" in2="BackgroundImageFix" result="effect1_dropShadow_10285_14877"/>
<feBlend mode="normal" in="SourceGraphic" in2="effect1_dropShadow_10285_14877" result="shape"/>
</filter>
</defs>
</svg>
