<svg width="24" height="24" viewBox="0 0 24 24" fill="none" xmlns="http://www.w3.org/2000/svg">
<path d="M17.625 21C17.0037 21 16.5 20.4963 16.5 19.875V14.25C16.5 13.6287 17.0037 13.125 17.625 13.125H19.875C20.4963 13.125 21 13.6287 21 14.25V19.875C21 20.4963 20.4963 21 19.875 21H17.625ZM10.875 21C10.2537 21 9.75 20.4963 9.75 19.875V4.125C9.75 3.50368 10.2537 3 10.875 3H13.125C13.7463 3 14.25 3.50368 14.25 4.125V19.875C14.25 20.4963 13.7463 21 13.125 21H10.875ZM4.125 21C3.50368 21 3 20.4963 3 19.875V9.75C3 9.12868 3.50368 8.625 4.125 8.625H6.375C6.99632 8.625 7.5 9.12868 7.5 9.75V19.875C7.5 20.4963 6.99632 21 6.375 21H4.125Z" fill="#989898"/>
</svg>
