<svg width="16" height="16" viewBox="0 0 16 16" fill="none" xmlns="http://www.w3.org/2000/svg">
<path fill-rule="evenodd" clip-rule="evenodd" d="M7.99994 1C11.866 1 14.9999 4.1339 14.9999 8C14.9999 11.8661 11.866 15 7.99994 15C4.13384 15 0.999939 11.8661 0.999939 8C0.999939 4.1339 4.13384 1 7.99994 1ZM8.69994 8H7.29994C7.11429 8 6.93624 8.07375 6.80496 8.20503C6.67369 8.3363 6.59994 8.51435 6.59994 8.7C6.59994 8.88565 6.67369 9.0637 6.80496 9.19497C6.93624 9.32625 7.11429 9.4 7.29994 9.4H8.69994C8.88559 9.4 9.06364 9.32625 9.19491 9.19497C9.32619 9.0637 9.39994 8.88565 9.39994 8.7C9.39994 8.51435 9.32619 8.3363 9.19491 8.20503C9.06364 8.07375 8.88559 8 8.69994 8ZM5.54994 4.5C5.27146 4.5 5.00439 4.61062 4.80748 4.80754C4.61056 5.00445 4.49994 5.27152 4.49994 5.55C4.49994 5.82848 4.61056 6.09555 4.80748 6.29246C5.00439 6.48938 5.27146 6.6 5.54994 6.6C5.82842 6.6 6.09549 6.48938 6.2924 6.29246C6.48931 6.09555 6.59994 5.82848 6.59994 5.55C6.59994 5.27152 6.48931 5.00445 6.2924 4.80754C6.09549 4.61062 5.82842 4.5 5.54994 4.5ZM10.4499 4.5C10.1715 4.5 9.90439 4.61062 9.70748 4.80754C9.51056 5.00445 9.39994 5.27152 9.39994 5.55C9.39994 5.82848 9.51056 6.09555 9.70748 6.29246C9.90439 6.48938 10.1715 6.6 10.4499 6.6C10.7284 6.6 10.9955 6.48938 11.1924 6.29246C11.3893 6.09555 11.4999 5.82848 11.4999 5.55C11.4999 5.27152 11.3893 5.00445 11.1924 4.80754C10.9955 4.61062 10.7284 4.5 10.4499 4.5Z" fill="#67C575"/>
</svg>
