<svg width="16" height="16" viewBox="0 0 16 16" fill="none" xmlns="http://www.w3.org/2000/svg">
<path fill-rule="evenodd" clip-rule="evenodd" d="M7.99992 1C11.866 1 14.9999 4.1339 14.9999 8C14.9999 11.8661 11.866 15 7.99992 15C4.13382 15 0.999919 11.8661 0.999919 8C0.999919 4.1339 4.13382 1 7.99992 1ZM8.69992 8H7.29992C7.11427 8 6.93622 8.07375 6.80494 8.20503C6.67367 8.3363 6.59992 8.51435 6.59992 8.7C6.59992 8.88565 6.67367 9.0637 6.80494 9.19497C6.93622 9.32625 7.11427 9.4 7.29992 9.4H8.69992C8.88557 9.4 9.06362 9.32625 9.19489 9.19497C9.32617 9.0637 9.39992 8.88565 9.39992 8.7C9.39992 8.51435 9.32617 8.3363 9.19489 8.20503C9.06362 8.07375 8.88557 8 8.69992 8ZM5.54992 4.5C5.27144 4.5 5.00437 4.61062 4.80746 4.80754C4.61054 5.00445 4.49992 5.27152 4.49992 5.55C4.49992 5.82848 4.61054 6.09555 4.80746 6.29246C5.00437 6.48938 5.27144 6.6 5.54992 6.6C5.8284 6.6 6.09547 6.48938 6.29238 6.29246C6.48929 6.09555 6.59992 5.82848 6.59992 5.55C6.59992 5.27152 6.48929 5.00445 6.29238 4.80754C6.09547 4.61062 5.8284 4.5 5.54992 4.5ZM10.4499 4.5C10.1714 4.5 9.90437 4.61062 9.70746 4.80754C9.51054 5.00445 9.39992 5.27152 9.39992 5.55C9.39992 5.82848 9.51054 6.09555 9.70746 6.29246C9.90437 6.48938 10.1714 6.6 10.4499 6.6C10.7284 6.6 10.9955 6.48938 11.1924 6.29246C11.3893 6.09555 11.4999 5.82848 11.4999 5.55C11.4999 5.27152 11.3893 5.00445 11.1924 4.80754C10.9955 4.61062 10.7284 4.5 10.4499 4.5Z" fill="#67C575"/>
</svg>
