<svg width="16" height="16" viewBox="0 0 16 16" fill="none" xmlns="http://www.w3.org/2000/svg">
<path fill-rule="evenodd" clip-rule="evenodd" d="M7.99992 1C11.866 1 14.9999 4.1339 14.9999 8C14.9999 11.8661 11.866 15 7.99992 15C4.13382 15 0.99992 11.8661 0.99992 8C0.99992 4.1339 4.13382 1 7.99992 1ZM10.0425 9.7997L10.0299 9.7885C9.89856 9.65311 9.74137 9.54545 9.56764 9.47192C9.39392 9.39838 9.20721 9.36046 9.01857 9.36039C8.82992 9.36032 8.64319 9.39812 8.46941 9.47154C8.29564 9.54495 8.13837 9.6525 8.00692 9.7878C8.00607 9.78883 8.005 9.78966 8.00379 9.79022C8.00258 9.79079 8.00126 9.79109 7.99992 9.79109C7.99858 9.79109 7.99726 9.79079 7.99605 9.79022C7.99484 9.78966 7.99377 9.78883 7.99292 9.7878C7.74167 9.52893 7.40073 9.37623 7.0403 9.36112C6.67986 9.34602 6.32735 9.46966 6.05532 9.7066L5.96992 9.7885C5.95872 9.7997 5.94472 9.8144 5.92932 9.8123L5.91322 9.8046L5.67312 9.5841C5.54201 9.46292 5.36956 9.39642 5.19104 9.39819C5.01253 9.39997 4.84143 9.46988 4.71276 9.59364C4.58408 9.71739 4.50756 9.88563 4.49883 10.0639C4.49011 10.2423 4.54984 10.4172 4.66582 10.5529L4.72672 10.6159L4.96752 10.8364C5.22656 11.0737 5.5639 11.2074 5.9152 11.2119C6.26649 11.2164 6.60716 11.0915 6.87222 10.8609L6.96462 10.7727C6.97092 10.765 6.98002 10.7538 6.98842 10.7622C7.54142 11.3334 8.45842 11.3334 9.01142 10.7622L9.01982 10.7608L9.03942 10.7776C9.55042 11.304 10.3694 11.3551 10.9399 10.9141L11.0323 10.8364L11.2731 10.6159C11.4044 10.4956 11.4849 10.3298 11.4982 10.1522C11.5115 9.97462 11.4566 9.79866 11.3447 9.66012C11.2329 9.52158 11.0724 9.43088 10.896 9.40648C10.7196 9.38208 10.5406 9.42583 10.3953 9.5288L10.3267 9.5841L10.0866 9.8046C10.0705 9.8186 10.0551 9.8116 10.0425 9.7997ZM5.54992 5.2C5.27144 5.2 5.00437 5.31062 4.80746 5.50754C4.61054 5.70445 4.49992 5.97152 4.49992 6.25C4.49992 6.52848 4.61054 6.79555 4.80746 6.99246C5.00437 7.18938 5.27144 7.3 5.54992 7.3C5.8284 7.3 6.09547 7.18938 6.29238 6.99246C6.4893 6.79555 6.59992 6.52848 6.59992 6.25C6.59992 5.97152 6.4893 5.70445 6.29238 5.50754C6.09547 5.31062 5.8284 5.2 5.54992 5.2ZM10.4499 5.2C10.1714 5.2 9.90437 5.31062 9.70746 5.50754C9.51054 5.70445 9.39992 5.97152 9.39992 6.25C9.39992 6.52848 9.51054 6.79555 9.70746 6.99246C9.90437 7.18938 10.1714 7.3 10.4499 7.3C10.7284 7.3 10.9955 7.18938 11.1924 6.99246C11.3893 6.79555 11.4999 6.52848 11.4999 6.25C11.4999 5.97152 11.3893 5.70445 11.1924 5.50754C10.9955 5.31062 10.7284 5.2 10.4499 5.2Z" fill="#ef8363"/>
</svg>
