<svg width="56" height="60" viewBox="0 0 56 60" fill="none" xmlns="http://www.w3.org/2000/svg">
<g filter="url(#filter0_d_12339_83351)">
<mask id="path-1-inside-1_12339_83351" fill="white">
<path fill-rule="evenodd" clip-rule="evenodd" d="M22 4C14.268 4 8 10.268 8 18V30C8 37.732 14.268 44 22 44H25.6575L27.6257 47.4091C28.0806 48.197 29.2178 48.197 29.6727 47.4091L31.6409 44H34C41.732 44 48 37.732 48 30V18C48 10.268 41.732 4 34 4H22Z"/>
</mask>
<path fill-rule="evenodd" clip-rule="evenodd" d="M22 4C14.268 4 8 10.268 8 18V30C8 37.732 14.268 44 22 44H25.6575L27.6257 47.4091C28.0806 48.197 29.2178 48.197 29.6727 47.4091L31.6409 44H34C41.732 44 48 37.732 48 30V18C48 10.268 41.732 4 34 4H22Z" fill="white" fill-opacity="0.9"/>
<path d="M25.6575 44L27.3895 43C27.0323 42.3812 26.372 42 25.6575 42V44ZM27.6257 47.4091L29.3578 46.4091H29.3578L27.6257 47.4091ZM29.6727 47.4091L27.9406 46.4091H27.9406L29.6727 47.4091ZM31.6409 44V42C30.9264 42 30.2661 42.3812 29.9089 43L31.6409 44ZM10 18C10 11.3726 15.3726 6 22 6V2C13.1634 2 6 9.16345 6 18H10ZM10 30V18H6V30H10ZM22 42C15.3726 42 10 36.6274 10 30H6C6 38.8366 13.1634 46 22 46V42ZM25.6575 42H22V46H25.6575V42ZM29.3578 46.4091L27.3895 43L23.9254 45L25.8937 48.4091L29.3578 46.4091ZM27.9406 46.4091C28.2555 45.8636 29.0428 45.8636 29.3578 46.4091L25.8937 48.4091C27.1183 50.5303 30.18 50.5303 31.4047 48.4091L27.9406 46.4091ZM29.9089 43L27.9406 46.4091L31.4047 48.4091L33.373 45L29.9089 43ZM34 42H31.6409V46H34V42ZM46 30C46 36.6274 40.6274 42 34 42V46C42.8366 46 50 38.8366 50 30H46ZM46 18V30H50V18H46ZM34 6C40.6274 6 46 11.3726 46 18H50C50 9.16344 42.8366 2 34 2V6ZM22 6H34V2H22V6Z" fill="#1AA3DD" mask="url(#path-1-inside-1_12339_83351)"/>
<path d="M28.2553 12.9531C24.9424 12.9531 22.8442 13.2844 21.6295 13.5053C20.3043 13.8366 19.5313 14.9409 19.4209 16.1556C19.3105 17.7016 19.2 20.5728 19.2 25.1004C19.2 28.7445 19.2 31.0636 19.3105 32.6096C19.3105 33.6034 19.7522 34.4869 20.6356 34.8182C21.4086 35.1494 22.4025 35.039 23.1755 34.4869L26.9301 31.947C27.7031 31.3948 28.697 31.3948 29.47 31.947L33.2246 34.3764C33.9976 34.9286 34.9915 35.1494 35.7645 34.7077C36.6479 34.266 36.9792 33.493 37.0896 32.4991C37.2 30.9531 37.2 28.6341 37.2 24.9899C37.2 20.4623 37.0896 17.5912 36.9792 16.0451C36.8688 14.8304 36.2062 13.7261 34.881 13.3948C33.6663 13.2844 31.5681 12.9531 28.2553 12.9531Z" fill="#1AA3DD"/>
</g>
<defs>
<filter id="filter0_d_12339_83351" x="0" y="0" width="56" height="60" filterUnits="userSpaceOnUse" color-interpolation-filters="sRGB">
<feFlood flood-opacity="0" result="BackgroundImageFix"/>
<feColorMatrix in="SourceAlpha" type="matrix" values="0 0 0 0 0 0 0 0 0 0 0 0 0 0 0 0 0 0 127 0" result="hardAlpha"/>
<feOffset dy="4"/>
<feGaussianBlur stdDeviation="4"/>
<feComposite in2="hardAlpha" operator="out"/>
<feColorMatrix type="matrix" values="0 0 0 0 0 0 0 0 0 0 0 0 0 0 0 0 0 0 0.08 0"/>
<feBlend mode="normal" in2="BackgroundImageFix" result="effect1_dropShadow_12339_83351"/>
<feBlend mode="normal" in="SourceGraphic" in2="effect1_dropShadow_12339_83351" result="shape"/>
</filter>
</defs>
</svg>
