<svg width="48" height="48" viewBox="0 0 48 48" fill="none" xmlns="http://www.w3.org/2000/svg">
<g filter="url(#filter0_d_15182_12834)">
<path d="M4 20C4 8.95431 12.9543 0 24 0C35.0457 0 44 8.95431 44 20C44 31.0457 35.0457 40 24 40C12.9543 40 4 31.0457 4 20Z" fill="white" shape-rendering="crispEdges"/>
<path d="M22.1787 23.5223C20.4471 24.0085 18.7133 24.4978 16.9139 25.0046C16.4103 23.7001 15.8763 22.4108 15.4146 21.0949C15.0232 19.9837 14.7198 18.8409 14.7751 17.6382C14.8636 15.7776 15.5582 14.2134 17.081 13.0905C18.6187 11.9573 20.0128 12.1892 21.114 13.7505C22.0584 15.0923 22.4297 16.6118 22.2491 18.2298C22.0553 19.9451 21.9445 21.651 22.1888 23.3658C22.1949 23.4084 22.1847 23.4507 22.1814 23.5219L22.1787 23.5223Z" fill="#1AA3DD"/>
<path d="M31.7467 21.2245C29.9769 20.9848 28.2018 20.7477 26.4024 20.5053C26.3728 20.0043 26.3863 19.5087 26.3055 19.0265C26.1115 17.8682 25.9203 16.7046 25.6401 15.5651C25.2603 14.0163 25.29 12.5105 25.9095 11.0371C26.0711 10.6573 26.2947 10.291 26.5452 9.96235C27.2025 9.10038 28.0779 8.80946 29.123 9.12193C30.7662 9.61756 31.8355 10.7435 32.5063 12.2816C33.0692 13.5772 33.0719 14.9294 32.9022 16.3059C32.6975 17.9517 32.2369 19.5356 31.814 21.1302C31.8059 21.1599 31.779 21.1841 31.7467 21.2272V21.2245Z" fill="#1AA3DD"/>
<path d="M31.5365 22.7274C31.4665 23.4466 31.4019 24.1416 31.3318 24.8393C31.2106 26.0433 30.3513 26.9915 29.1661 27.2366C27.4287 27.5949 25.8018 26.1915 25.9526 24.4244C26.0199 23.6406 26.1735 22.8648 26.2947 22.0298C28.0456 22.2641 29.7695 22.4931 31.5339 22.7274H31.5365Z" fill="#1AA3DD"/>
<path d="M23.1957 27.2975C23.4528 28.8362 22.5675 30.1721 21.2307 30.4898C19.8049 30.8313 18.3732 30.0551 17.9792 28.6994C17.7857 28.036 17.66 27.352 17.4977 26.6787C17.4559 26.5023 17.5122 26.4208 17.6874 26.371C19.2122 25.9418 20.7335 25.5077 22.2541 25.0682C22.4266 25.0189 22.5223 25.0595 22.572 25.2347C22.7942 25.9838 23.0214 26.7294 23.1931 27.2979L23.1957 27.2975Z" fill="#1AA3DD"/>
</g>
<defs>
<filter id="filter0_d_15182_12834" x="0" y="0" width="48" height="48" filterUnits="userSpaceOnUse" color-interpolation-filters="sRGB">
<feFlood flood-opacity="0" result="BackgroundImageFix"/>
<feColorMatrix in="SourceAlpha" type="matrix" values="0 0 0 0 0 0 0 0 0 0 0 0 0 0 0 0 0 0 127 0" result="hardAlpha"/>
<feOffset dy="4"/>
<feGaussianBlur stdDeviation="2"/>
<feComposite in2="hardAlpha" operator="out"/>
<feColorMatrix type="matrix" values="0 0 0 0 0 0 0 0 0 0 0 0 0 0 0 0 0 0 0.04 0"/>
<feBlend mode="normal" in2="BackgroundImageFix" result="effect1_dropShadow_15182_12834"/>
<feBlend mode="normal" in="SourceGraphic" in2="effect1_dropShadow_15182_12834" result="shape"/>
</filter>
</defs>
</svg>
