<svg width="40" height="44" viewBox="0 0 40 44" fill="none" xmlns="http://www.w3.org/2000/svg">
<mask id="path-1-inside-1_13852_25966" fill="white">
<path fill-rule="evenodd" clip-rule="evenodd" d="M14 0C6.26801 0 0 6.26801 0 14V26C0 33.732 6.26801 40 14 40H16.7631L18.9693 43.438C19.4503 44.1875 20.5457 44.1875 21.0266 43.438L23.2329 40H26C33.732 40 40 33.732 40 26V14C40 6.26801 33.732 0 26 0H14Z"/>
</mask>
<path fill-rule="evenodd" clip-rule="evenodd" d="M14 0C6.26801 0 0 6.26801 0 14V26C0 33.732 6.26801 40 14 40H16.7631L18.9693 43.438C19.4503 44.1875 20.5457 44.1875 21.0266 43.438L23.2329 40H26C33.732 40 40 33.732 40 26V14C40 6.26801 33.732 0 26 0H14Z" fill="white" fill-opacity="0.9"/>
<path d="M16.7631 40L18.4464 38.9199C18.0785 38.3466 17.4442 38 16.7631 38V40ZM18.9693 43.438L20.6526 42.3579L20.6526 42.3579L18.9693 43.438ZM21.0266 43.438L22.7099 44.5182L22.7099 44.5182L21.0266 43.438ZM23.2329 40V38C22.5517 38 21.9175 38.3466 21.5496 38.9199L23.2329 40ZM2 14C2 7.37258 7.37258 2 14 2V-2C5.16344 -2 -2 5.16345 -2 14H2ZM2 26V14H-2V26H2ZM14 38C7.37258 38 2 32.6274 2 26H-2C-2 34.8366 5.16345 42 14 42V38ZM16.7631 38H14V42H16.7631V38ZM20.6526 42.3579L18.4464 38.9199L15.0799 41.0801L17.2861 44.5182L20.6526 42.3579ZM19.3434 42.3579C19.6495 41.8809 20.3465 41.8809 20.6526 42.3579L17.2861 44.5182C18.5541 46.4942 21.4419 46.4942 22.7099 44.5182L19.3434 42.3579ZM21.5496 38.9199L19.3434 42.3579L22.7099 44.5182L24.9161 41.0801L21.5496 38.9199ZM26 38H23.2329V42H26V38ZM38 26C38 32.6274 32.6274 38 26 38V42C34.8366 42 42 34.8366 42 26H38ZM38 14V26H42V14H38ZM26 2C32.6274 2 38 7.37258 38 14H42C42 5.16344 34.8366 -2 26 -2V2ZM14 2H26V-2H14V2Z" fill="#67C575" mask="url(#path-1-inside-1_13852_25966)"/>
<path d="M30.4988 9.14783C30.4008 9.11515 30.3007 9.09881 30.1986 9.09881C26.9023 9.09881 23.6386 8.60252 20.4914 7.6222C20.3076 7.56502 20.1176 7.56706 19.9338 7.6222C16.7764 8.62907 13.4657 9.13966 10.0653 9.13966C9.54447 9.13966 9.15234 9.56242 9.15234 10.0832V10.1261C9.15234 19.6495 9.12171 27.1694 19.7194 32.3222C19.8501 32.3855 19.9624 32.4161 20.1033 32.4161C20.2442 32.4161 20.3893 32.3855 20.52 32.3201C31.1523 27.0938 31.1523 19.5698 31.1523 10.0424C31.1523 9.64003 30.8807 9.27649 30.4988 9.14578V9.14783ZM26.1221 18.132L23.8347 20.3643L24.3595 23.4299C24.38 23.5075 24.3922 23.5994 24.3922 23.6851C24.3922 24.2059 23.9695 24.6389 23.4487 24.6389H23.4446C23.2955 24.6389 23.1444 24.5919 23.0075 24.5184L20.1769 23.0255L17.3482 24.5102C17.0317 24.6777 16.6457 24.6491 16.3556 24.4367C16.0656 24.2264 15.9206 23.869 15.9819 23.5156L16.5211 20.3643L14.2316 18.132C13.9763 17.8829 13.8824 17.5071 13.9947 17.166C14.105 16.825 14.3991 16.5778 14.7545 16.5247L17.918 16.0652L19.3334 13.1998C19.4906 12.8771 19.8194 12.6749 20.1769 12.6749C20.5343 12.6749 20.8631 12.8771 21.0224 13.1998L22.4377 16.0652L25.6013 16.5247C25.9567 16.5778 26.2507 16.825 26.361 17.166C26.4713 17.5071 26.3794 17.8829 26.1221 18.132Z" fill="#67C575"/>
</svg>
