<svg width="16" height="16" viewBox="0 0 16 16" fill="none" xmlns="http://www.w3.org/2000/svg">
<path d="M9.65706 7.99365L5.04574 3.38167C4.97093 3.307 4.91142 3.21824 4.87093 3.1206C4.83044 3.02297 4.80973 2.91836 4.80973 2.81266C4.80973 2.70696 4.83044 2.60235 4.87093 2.50472C4.91142 2.40708 4.97093 2.31833 5.04574 2.24365C5.19887 2.097 5.40272 2.01514 5.61475 2.01514C5.82677 2.01514 6.03062 2.097 6.18376 2.24365L11.3631 7.42432C11.4382 7.4987 11.4976 7.58718 11.5382 7.68473C11.5789 7.78228 11.6001 7.88699 11.6001 7.99268C11.6001 8.09836 11.5789 8.20291 11.5382 8.30046C11.4976 8.398 11.4382 8.48665 11.3631 8.56103L6.18115 13.743C6.03024 13.8939 5.82556 13.9787 5.61214 13.9787C5.39872 13.9787 5.19404 13.8939 5.04313 13.743C4.89222 13.5921 4.80745 13.3874 4.80745 13.174C4.80745 12.9606 4.89222 12.7559 5.04313 12.605L9.65706 7.99365Z" fill="#292929"/>
</svg>
