<svg width="24" height="24" viewBox="0 0 24 24" fill="none" xmlns="http://www.w3.org/2000/svg">
<g id="icon / 24px / solid / broadcast">
<path id="Vector" d="M5.81291 4.06553C2.39544 7.48261 2.39544 13.0233 5.81291 16.4404C6.14709 16.7866 5.9814 17.3646 5.51457 17.4811C5.30538 17.5332 5.08421 17.4739 4.92911 17.3242C1.02363 13.419 1.02363 7.08708 4.92911 3.18173C5.27515 2.84754 5.85334 3.01323 5.9698 3.48007C6.02184 3.68925 5.96265 3.91055 5.81291 4.06553ZM8.46533 6.71808C6.51342 8.6705 6.51342 11.8355 8.46533 13.788C8.80602 14.1287 8.65015 14.7103 8.18484 14.8349C7.9689 14.8928 7.73842 14.8311 7.58038 14.6729C5.1388 12.2321 5.1388 8.27394 7.58038 5.833C7.92094 5.49244 8.50257 5.64831 8.62732 6.11361C8.68523 6.32956 8.62349 6.55991 8.46533 6.71808ZM15.5353 5.833C15.7795 5.58823 16.176 5.58823 16.4203 5.833C18.8619 8.27394 18.8619 12.2321 16.4203 14.6729C16.0796 15.0136 15.498 14.8577 15.3734 14.3924C15.3154 14.1765 15.3772 13.9461 15.5353 13.788C17.4873 11.8355 17.4873 8.6705 15.5353 6.71808C15.2904 6.47382 15.2904 6.07726 15.5353 5.833ZM18.1878 3.183C18.4319 2.939 18.8274 2.939 19.0716 3.183C22.9761 7.0881 22.9761 13.4191 19.0716 17.3242C18.7255 17.6585 18.1473 17.4927 18.0309 17.0258C17.9787 16.8168 18.038 16.5955 18.1878 16.4404C21.6052 13.0233 21.6052 7.48261 18.1878 4.06553C17.9438 3.82152 17.9438 3.42586 18.1878 3.18173V3.183ZM9.5004 10.253C9.50078 8.32853 11.5845 7.12624 13.2509 8.08886C14.9172 9.05162 14.9167 11.4572 13.2498 12.419C13.0541 12.5318 12.844 12.6178 12.6253 12.6742V19.6279C12.6231 20.109 12.1009 20.4073 11.6853 20.165C11.4943 20.0534 11.3763 19.8492 11.3754 19.6279V12.6742C10.2713 12.3891 9.50002 11.3932 9.5004 10.253Z" fill="#292929" stroke="#292929" stroke-width="0.510203"/>
</g>
</svg>
