<svg width="280" height="280" viewBox="0 0 280 280" fill="none" xmlns="http://www.w3.org/2000/svg">
<path d="M0 140C0 62.6801 62.6801 0 140 0C217.32 0 280 62.6801 280 140C280 217.32 217.32 280 140 280C62.6801 280 0 217.32 0 140Z" fill="#84D3F5" fill-opacity="0.15"/>
<path d="M0.5 140C0.5 62.9563 62.9563 0.5 140 0.5C217.044 0.5 279.5 62.9563 279.5 140C279.5 217.044 217.044 279.5 140 279.5C62.9563 279.5 0.5 217.044 0.5 140Z" stroke="white" stroke-opacity="0.9"/>
<path d="M123.305 19.2011C121.256 19.2011 119.905 18.1013 119.779 16.48L119.773 16.3983H121.589L121.595 16.4674C121.677 17.1713 122.324 17.674 123.305 17.674C124.273 17.674 124.907 17.1335 124.907 16.3669V16.3543C124.907 15.487 124.26 15.0094 123.16 15.0094H122.123V13.6583H123.135C124.09 13.6583 124.706 13.1555 124.706 12.4203V12.4077C124.706 11.6536 124.185 11.1885 123.292 11.1885C122.4 11.1885 121.803 11.6724 121.727 12.4266L121.721 12.4831H119.974L119.98 12.4077C120.112 10.7863 121.388 9.73057 123.292 9.73057C125.24 9.73057 126.497 10.7109 126.497 12.1563V12.1689C126.497 13.3001 125.668 14.0354 124.606 14.2553V14.293C125.957 14.4187 126.837 15.198 126.837 16.4297V16.4423C126.837 18.0888 125.423 19.2011 123.305 19.2011ZM131.952 19.2325C129.715 19.2325 128.351 17.3975 128.351 14.469V14.4564C128.351 11.5216 129.715 9.69915 131.952 9.69915C134.196 9.69915 135.553 11.5216 135.553 14.4564V14.469C135.553 17.3975 134.196 19.2325 131.952 19.2325ZM131.952 17.7306C133.027 17.7306 133.636 16.5177 133.636 14.469V14.4564C133.636 12.4014 133.027 11.2011 131.952 11.2011C130.884 11.2011 130.274 12.4014 130.274 14.4564V14.469C130.274 16.5177 130.884 17.7306 131.952 17.7306ZM137.275 19V12.0809H139.11V13.1618H139.223C139.518 12.3826 140.235 11.9301 141.14 11.9301C142.082 11.9301 142.78 12.4077 143.063 13.2058H143.176C143.49 12.4391 144.295 11.9301 145.262 11.9301C146.639 11.9301 147.5 12.8225 147.5 14.249V19H145.665V14.7078C145.665 13.872 145.287 13.4509 144.521 13.4509C143.779 13.4509 143.302 13.9976 143.302 14.7455V19H141.467V14.6261C141.467 13.8845 141.046 13.4509 140.329 13.4509C139.613 13.4509 139.11 14.0354 139.11 14.8272V19H137.275ZM150.214 11.0189C149.649 11.0189 149.177 10.5664 149.177 10.0008C149.177 9.42892 149.649 8.97645 150.214 8.97645C150.78 8.97645 151.245 9.42892 151.245 10.0008C151.245 10.5664 150.78 11.0189 150.214 11.0189ZM149.291 19V12.0809H151.126V19H149.291ZM152.973 19V12.0809H154.808V13.1493H154.921C155.236 12.4014 155.921 11.9301 156.907 11.9301C158.447 11.9301 159.276 12.8727 159.276 14.5255V19H157.441V14.9403C157.441 13.9662 157.039 13.4509 156.172 13.4509C155.324 13.4509 154.808 14.0605 154.808 14.9969V19H152.973Z" fill="#0D84BC"/>
</svg>
