<svg width="156" height="156" viewBox="0 0 156 156" fill="none" xmlns="http://www.w3.org/2000/svg">
<path d="M0 78C0 34.9218 34.9218 0 78 0C121.078 0 156 34.9218 156 78C156 121.078 121.078 156 78 156C34.9218 156 0 121.078 0 78Z" fill="#84D3F5" fill-opacity="0.25"/>
<path d="M0.5 78C0.5 35.1979 35.1979 0.5 78 0.5C120.802 0.5 155.5 35.1979 155.5 78C155.5 120.802 120.802 155.5 78 155.5C35.1979 155.5 0.5 120.802 0.5 78Z" stroke="white" stroke-opacity="0.9"/>
<path d="M62.1359 19V11.7227H62.0228L59.7981 13.2687V11.5593L62.1422 9.93167H64.0338V19H62.1359ZM69.9411 19.2325C67.9992 19.2325 66.7172 18.0762 66.6104 16.5617L66.6041 16.4737H68.326L68.3386 16.5177C68.4705 17.1838 69.0927 17.718 69.9474 17.718C70.9214 17.718 71.6001 17.033 71.6001 16.0589V16.0464C71.6001 15.0786 70.9151 14.4061 69.9536 14.4061C69.4949 14.4061 69.1053 14.5381 68.8036 14.7958C68.6339 14.934 68.4831 15.1037 68.3825 15.2985H66.7549L67.176 9.93167H72.8444V11.4399H68.6528L68.4265 14.0228H68.5397C68.9042 13.4132 69.608 13.0361 70.4752 13.0361C72.1657 13.0361 73.3849 14.2804 73.3849 16.0086V16.0212C73.3849 17.9317 71.9772 19.2325 69.9411 19.2325ZM75.0503 19V12.0809H76.8853V13.1618H76.9984C77.2938 12.3826 78.0102 11.9301 78.9151 11.9301C79.8578 11.9301 80.5554 12.4077 80.8382 13.2058H80.9513C81.2655 12.4391 82.0699 11.9301 83.0377 11.9301C84.414 11.9301 85.2749 12.8225 85.2749 14.249V19H83.4399V14.7078C83.4399 13.872 83.0628 13.4509 82.2961 13.4509C81.5546 13.4509 81.077 13.9976 81.077 14.7455V19H79.2419V14.6261C79.2419 13.8845 78.8209 13.4509 78.1045 13.4509C77.388 13.4509 76.8853 14.0354 76.8853 14.8272V19H75.0503ZM87.9898 11.0189C87.4242 11.0189 86.9528 10.5664 86.9528 10.0008C86.9528 9.42892 87.4242 8.97645 87.9898 8.97645C88.5553 8.97645 89.0204 9.42892 89.0204 10.0008C89.0204 10.5664 88.5553 11.0189 87.9898 11.0189ZM87.066 19V12.0809H88.901V19H87.066ZM90.7486 19V12.0809H92.5836V13.1493H92.6967C93.011 12.4014 93.696 11.9301 94.6826 11.9301C96.2223 11.9301 97.0518 12.8727 97.0518 14.5255V19H95.2168V14.9403C95.2168 13.9662 94.8146 13.4509 93.9473 13.4509C93.0989 13.4509 92.5836 14.0605 92.5836 14.9969V19H90.7486Z" fill="#0D84BC"/>
</svg>
