<svg width="16" height="16" viewBox="0 0 16 16" fill="none" xmlns="http://www.w3.org/2000/svg">
<g clip-path="url(#clip0_15182_5980)">
<path fill-rule="evenodd" clip-rule="evenodd" d="M15.3863 11.0765C15.3863 14.473 12.3086 15.9999 8.00006 15.9999C3.69148 15.9999 0.61377 14.473 0.61377 11.1005C0.61377 7.4079 2.46063 5.53704 6.1532 3.66619L4.84577 1.23076C4.76776 1.10877 4.72432 0.967905 4.72008 0.823173C4.71585 0.678441 4.75097 0.535272 4.8217 0.408932C4.89244 0.282593 4.99614 0.177819 5.12174 0.105785C5.24735 0.0337496 5.39014 -0.00284607 5.53491 -0.000100241H10.7543C10.89 0.00337175 11.0226 0.0413132 11.1396 0.110153C11.2566 0.178993 11.3541 0.276468 11.4231 0.393404C11.492 0.510339 11.53 0.64289 11.5336 0.778582C11.5372 0.914273 11.5062 1.04864 11.4435 1.16904L9.84691 3.66619C13.5383 5.5119 15.3863 7.38276 15.3863 11.0765ZM8.71434 5.58504C8.71434 5.49124 8.69587 5.39836 8.65997 5.3117C8.62407 5.22504 8.57146 5.14629 8.50513 5.07997C8.4388 5.01364 8.36006 4.96102 8.2734 4.92513C8.18674 4.88923 8.09386 4.87076 8.00006 4.87076C7.90625 4.87076 7.81337 4.88923 7.72671 4.92513C7.64005 4.96102 7.56131 5.01364 7.49498 5.07997C7.42865 5.14629 7.37604 5.22504 7.34014 5.3117C7.30425 5.39836 7.28577 5.49124 7.28577 5.58504V6.30161C6.80164 6.32026 6.34097 6.51502 5.99027 6.8493C5.63958 7.18359 5.42299 7.6344 5.38117 8.11709C5.33936 8.59977 5.4752 9.08112 5.76318 9.47073C6.05117 9.86034 6.47148 10.1314 6.9452 10.233L8.62863 10.601C8.80117 10.6382 8.95385 10.7379 9.05723 10.881C9.16061 11.024 9.20737 11.2003 9.18849 11.3757C9.1696 11.5512 9.08642 11.7135 8.95497 11.8313C8.82352 11.9491 8.65312 12.014 8.47663 12.0136H7.52348C7.37572 12.0138 7.23152 11.9682 7.11076 11.8831C6.98999 11.7979 6.89861 11.6774 6.8492 11.5382C6.82034 11.4468 6.7734 11.3622 6.71116 11.2893C6.64892 11.2165 6.57266 11.1569 6.48691 11.1141C6.40117 11.0713 6.3077 11.0463 6.21206 11.0404C6.11642 11.0345 6.02058 11.0479 5.93022 11.0798C5.83987 11.1117 5.75687 11.1614 5.68614 11.2261C5.61542 11.2907 5.55843 11.369 5.51856 11.4561C5.47869 11.5432 5.45676 11.6375 5.45407 11.7333C5.45138 11.829 5.46799 11.9244 5.50291 12.0136C5.63725 12.3932 5.8757 12.7273 6.19098 12.9777C6.50627 13.2281 6.88566 13.3847 7.28577 13.4296V14.1565C7.28577 14.2503 7.30425 14.3432 7.34014 14.4298C7.37604 14.5165 7.42865 14.5952 7.49498 14.6615C7.56131 14.7279 7.64005 14.7805 7.72671 14.8164C7.81337 14.8523 7.90625 14.8708 8.00006 14.8708C8.09386 14.8708 8.18674 14.8523 8.2734 14.8164C8.36006 14.7805 8.4388 14.7279 8.50513 14.6615C8.57146 14.5952 8.62407 14.5165 8.65997 14.4298C8.69587 14.3432 8.71434 14.2503 8.71434 14.1565V13.4296C9.21863 13.3723 9.68623 13.1379 10.034 12.7682C10.3817 12.3985 10.587 11.9174 10.6133 11.4106C10.6396 10.9037 10.4853 10.4039 10.1777 10.0002C9.87021 9.59644 9.42941 9.31489 8.93377 9.20561L7.25034 8.83761C7.11376 8.80966 6.99252 8.73176 6.91032 8.61915C6.82813 8.50654 6.79089 8.36733 6.80589 8.22872C6.8209 8.09012 6.88706 7.96209 6.99145 7.86968C7.09584 7.77727 7.23094 7.72713 7.37034 7.72904H8.47663C8.62451 7.72831 8.76894 7.77371 8.8898 7.85892C9.01066 7.94414 9.10194 8.06493 9.15091 8.20447C9.21739 8.37864 9.34932 8.51993 9.51854 8.59815C9.68777 8.67637 9.88087 8.68534 10.0566 8.62313C10.2323 8.56092 10.3768 8.43246 10.4591 8.26519C10.5414 8.09793 10.5551 7.9051 10.4972 7.7279C10.363 7.34834 10.1246 7.01429 9.80927 6.76404C9.49393 6.51379 9.11445 6.35748 8.71434 6.31304V5.58504Z" fill="#656565"/>
</g>
<defs>
<clipPath id="clip0_15182_5980">
<rect width="16" height="16" fill="white"/>
</clipPath>
</defs>
</svg>
