<svg width="16" height="16" viewBox="0 0 16 16" fill="none" xmlns="http://www.w3.org/2000/svg">
<path d="M7.01796 4.40937L11.5906 8.98207L6.95154 13.6212C6.73592 13.8368 6.45205 13.9685 6.15071 13.995L6.03699 14.0001H2.65315C2.31649 14.0001 2.0393 13.7453 2.00383 13.4181L2 13.3469V9.96302C2 9.65813 2.10766 9.36433 2.30194 9.13244L2.37881 9.04848L7.01796 4.40937ZM9.04847 2.37882C9.527 1.90031 10.2872 1.87513 10.7953 2.30326L10.8776 2.37882L13.6212 5.12245C14.0997 5.60096 14.1249 6.36112 13.6968 6.86929L13.6212 6.95156L12.5052 8.06753L7.93249 3.49483L9.04847 2.37882Z" fill="#0C6898"/>
</svg>
