<svg width="16" height="17" viewBox="0 0 16 17" fill="none" xmlns="http://www.w3.org/2000/svg">
<path d="M1.83337 14.2368C1.55723 14.2368 1.33337 14.013 1.33337 13.7368V13.4035C1.33337 13.1273 1.55723 12.9035 1.83337 12.9035H3.50004C3.77618 12.9035 4.00004 12.6796 4.00004 12.4035V10.7368C4.00004 10.4607 3.77618 10.2368 3.50004 10.2368H3.16671C2.89057 10.2368 2.66671 10.013 2.66671 9.73682V9.40348C2.66671 9.12734 2.89057 8.90348 3.16671 8.90348H3.64035C3.886 8.90348 4.09176 8.72385 4.15564 8.48666C4.33306 7.82783 4.67286 7.24733 5.17504 6.74515C5.67722 6.24297 6.25772 5.90317 6.91655 5.72574C7.15374 5.66187 7.33337 5.4561 7.33337 5.21046V2.73682C7.33337 2.46067 7.55723 2.23682 7.83337 2.23682H11.5C11.7762 2.23682 12 2.46067 12 2.73682V4.40348C12 4.67963 11.7762 4.90348 11.5 4.90348H9.06252C8.84392 4.90348 8.66671 5.0807 8.66671 5.2993C8.66671 5.49376 8.80864 5.65726 8.9975 5.70361C9.69193 5.87404 10.3011 6.22122 10.825 6.74515C11.3272 7.24733 11.667 7.82783 11.8444 8.48666C11.9083 8.72385 12.1141 8.90348 12.3597 8.90348H12.8334C13.1095 8.90348 13.3334 9.12734 13.3334 9.40348V9.73682C13.3334 10.013 13.1095 10.2368 12.8334 10.2368H12.5C12.2239 10.2368 12 10.4607 12 10.7368V12.4035C12 12.6796 12.2239 12.9035 12.5 12.9035H14.1667C14.4428 12.9035 14.6667 13.1273 14.6667 13.4035V13.7368C14.6667 14.013 14.4428 14.2368 14.1667 14.2368H1.83337ZM5.33337 12.4035C5.33337 12.6796 5.55723 12.9035 5.83337 12.9035H6.83337C7.10952 12.9035 7.33337 12.6796 7.33337 12.4035V10.7368C7.33337 10.4607 7.10952 10.2368 6.83337 10.2368H5.83337C5.55723 10.2368 5.33337 10.4607 5.33337 10.7368V12.4035ZM8.66671 12.4035C8.66671 12.6796 8.89057 12.9035 9.16671 12.9035H10.1667C10.4429 12.9035 10.6667 12.6796 10.6667 12.4035V10.7368C10.6667 10.4607 10.4429 10.2368 10.1667 10.2368H9.16671C8.89057 10.2368 8.66671 10.4607 8.66671 10.7368V12.4035ZM5.66907 8.30013C5.51392 8.58915 5.75457 8.90348 6.0826 8.90348H9.91748C10.2455 8.90348 10.4862 8.58915 10.331 8.30013C10.1576 7.97717 9.91953 7.69774 9.61671 7.46182C9.13893 7.08959 8.60004 6.90348 8.00004 6.90348C7.40004 6.90348 6.86115 7.08959 6.38337 7.46182C6.08055 7.69774 5.84245 7.97717 5.66907 8.30013Z" fill="#989898"/>
<path d="M5.66907 8.30013C5.51392 8.58915 5.75457 8.90348 6.0826 8.90348H9.91748C10.2455 8.90348 10.4862 8.58915 10.331 8.30013C10.1576 7.97717 9.91953 7.69774 9.61671 7.46182C9.13893 7.08959 8.60004 6.90348 8.00004 6.90348C7.40004 6.90348 6.86115 7.08959 6.38337 7.46182C6.08055 7.69774 5.84245 7.97717 5.66907 8.30013Z" fill="#989898"/>
</svg>
