<svg width="17" height="16" viewBox="0 0 17 16" fill="none" xmlns="http://www.w3.org/2000/svg">
<path fill-rule="evenodd" clip-rule="evenodd" d="M8.5 1C12.3661 1 15.5 4.1339 15.5 8C15.5 11.8661 12.3661 15 8.5 15C4.6339 15 1.5 11.8661 1.5 8C1.5 4.1339 4.6339 1 8.5 1ZM9.2 8H7.8C7.61435 8 7.4363 8.07375 7.30503 8.20503C7.17375 8.3363 7.1 8.51435 7.1 8.7C7.1 8.88565 7.17375 9.0637 7.30503 9.19497C7.4363 9.32625 7.61435 9.4 7.8 9.4H9.2C9.38565 9.4 9.5637 9.32625 9.69497 9.19497C9.82625 9.0637 9.9 8.88565 9.9 8.7C9.9 8.51435 9.82625 8.3363 9.69497 8.20503C9.5637 8.07375 9.38565 8 9.2 8ZM6.05 4.5C5.77152 4.5 5.50445 4.61062 5.30754 4.80754C5.11062 5.00445 5 5.27152 5 5.55C5 5.82848 5.11062 6.09555 5.30754 6.29246C5.50445 6.48938 5.77152 6.6 6.05 6.6C6.32848 6.6 6.59555 6.48938 6.79246 6.29246C6.98938 6.09555 7.1 5.82848 7.1 5.55C7.1 5.27152 6.98938 5.00445 6.79246 4.80754C6.59555 4.61062 6.32848 4.5 6.05 4.5ZM10.95 4.5C10.6715 4.5 10.4045 4.61062 10.2075 4.80754C10.0106 5.00445 9.9 5.27152 9.9 5.55C9.9 5.82848 10.0106 6.09555 10.2075 6.29246C10.4045 6.48938 10.6715 6.6 10.95 6.6C11.2285 6.6 11.4955 6.48938 11.6925 6.29246C11.8894 6.09555 12 5.82848 12 5.55C12 5.27152 11.8894 5.00445 11.6925 4.80754C11.4955 4.61062 11.2285 4.5 10.95 4.5Z" fill="#989898"/>
</svg>
