<svg width="17" height="16" viewBox="0 0 17 16" fill="none" xmlns="http://www.w3.org/2000/svg">
<path fill-rule="evenodd" clip-rule="evenodd" d="M8.5 1C12.3661 1 15.5 4.1339 15.5 8C15.5 11.8661 12.3661 15 8.5 15C4.6339 15 1.5 11.8661 1.5 8C1.5 4.1339 4.6339 1 8.5 1ZM10.5426 9.7997L10.53 9.7885C10.3986 9.65311 10.2414 9.54545 10.0677 9.47192C9.894 9.39838 9.70729 9.36046 9.51865 9.36039C9.33 9.36032 9.14327 9.39812 8.96949 9.47154C8.79572 9.54495 8.63845 9.6525 8.507 9.7878C8.50615 9.78883 8.50508 9.78966 8.50387 9.79022C8.50266 9.79079 8.50134 9.79109 8.5 9.79109C8.49866 9.79109 8.49734 9.79079 8.49613 9.79022C8.49492 9.78966 8.49385 9.78883 8.493 9.7878C8.24175 9.52893 7.90081 9.37623 7.54038 9.36112C7.17994 9.34602 6.82743 9.46966 6.5554 9.7066L6.47 9.7885C6.4588 9.7997 6.4448 9.8144 6.4294 9.8123L6.4133 9.8046L6.1732 9.5841C6.04209 9.46292 5.86964 9.39642 5.69112 9.39819C5.51261 9.39997 5.34151 9.46988 5.21284 9.59364C5.08416 9.71739 5.00764 9.88563 4.99891 10.0639C4.99019 10.2423 5.04992 10.4172 5.1659 10.5529L5.2268 10.6159L5.4676 10.8364C5.72664 11.0737 6.06398 11.2074 6.41528 11.2119C6.76657 11.2164 7.10724 11.0915 7.3723 10.8609L7.4647 10.7727C7.471 10.765 7.4801 10.7538 7.4885 10.7622C8.0415 11.3334 8.9585 11.3334 9.5115 10.7622L9.5199 10.7608L9.5395 10.7776C10.0505 11.304 10.8695 11.3551 11.44 10.9141L11.5324 10.8364L11.7732 10.6159C11.9045 10.4956 11.9849 10.3298 11.9982 10.1522C12.0116 9.97462 11.9567 9.79866 11.8448 9.66012C11.733 9.52158 11.5725 9.43088 11.3961 9.40648C11.2197 9.38208 11.0407 9.42583 10.8954 9.5288L10.8268 9.5841L10.5867 9.8046C10.5706 9.8186 10.5552 9.8116 10.5426 9.7997ZM6.05 5.2C5.77152 5.2 5.50445 5.31062 5.30754 5.50754C5.11062 5.70445 5 5.97152 5 6.25C5 6.52848 5.11062 6.79555 5.30754 6.99246C5.50445 7.18938 5.77152 7.3 6.05 7.3C6.32848 7.3 6.59555 7.18938 6.79246 6.99246C6.98938 6.79555 7.1 6.52848 7.1 6.25C7.1 5.97152 6.98938 5.70445 6.79246 5.50754C6.59555 5.31062 6.32848 5.2 6.05 5.2ZM10.95 5.2C10.6715 5.2 10.4045 5.31062 10.2075 5.50754C10.0106 5.70445 9.9 5.97152 9.9 6.25C9.9 6.52848 10.0106 6.79555 10.2075 6.99246C10.4045 7.18938 10.6715 7.3 10.95 7.3C11.2285 7.3 11.4955 7.18938 11.6925 6.99246C11.8894 6.79555 12 6.52848 12 6.25C12 5.97152 11.8894 5.70445 11.6925 5.50754C11.4955 5.31062 11.2285 5.2 10.95 5.2Z" fill="#989898"/>
</svg>
