<svg width="17" height="16" viewBox="0 0 17 16" fill="none" xmlns="http://www.w3.org/2000/svg">
<path fill-rule="evenodd" clip-rule="evenodd" d="M8.5 1C12.3661 1 15.5 4.1339 15.5 8C15.5 11.8661 12.3661 15 8.5 15C4.6339 15 1.5 11.8661 1.5 8C1.5 4.1339 4.6339 1 8.5 1ZM9.8888 9.575C9.5178 9.9026 9.0327 10.1 8.5 10.1C7.98841 10.1009 7.49425 9.91412 7.1112 9.575C6.97196 9.4521 6.7896 9.38954 6.60424 9.4011C6.41888 9.41265 6.2457 9.49736 6.1228 9.6366C5.9999 9.77584 5.93734 9.9582 5.9489 10.1436C5.96045 10.3289 6.04516 10.5021 6.1844 10.625C6.8011 11.1689 7.6124 11.5 8.5 11.5C9.35287 11.5012 10.1766 11.1899 10.8156 10.625C10.9548 10.5021 11.0396 10.3289 11.0511 10.1436C11.0627 9.9582 11.0001 9.77584 10.8772 9.6366C10.7543 9.49736 10.5811 9.41265 10.3958 9.4011C10.2104 9.38954 10.028 9.4521 9.8888 9.575ZM6.05 5.2C5.2891 5.2 4.6794 5.676 4.3742 6.2864C4.29397 6.4461 4.27786 6.63043 4.32917 6.80163C4.38048 6.97282 4.49533 7.11791 4.65017 7.20715C4.80502 7.29638 4.98813 7.32302 5.16198 7.28158C5.33583 7.24015 5.48725 7.13379 5.5852 6.9843L5.6258 6.9136C5.7392 6.6868 5.9128 6.6 6.05 6.6C6.169 6.6 6.3174 6.6665 6.4287 6.8352L6.4742 6.9136C6.55823 7.07809 6.70387 7.2027 6.87938 7.26028C7.05489 7.31785 7.24604 7.30372 7.41118 7.22097C7.57632 7.13822 7.70205 6.99355 7.76099 6.81849C7.81992 6.64343 7.80727 6.45217 7.7258 6.2864C7.4199 5.676 6.8109 5.2 6.05 5.2ZM10.95 5.2C10.1891 5.2 9.5801 5.676 9.2742 6.2864C9.19397 6.4461 9.17786 6.63043 9.22917 6.80163C9.28048 6.97282 9.39533 7.11791 9.55017 7.20715C9.70502 7.29638 9.88813 7.32302 10.062 7.28158C10.2358 7.24015 10.3872 7.13379 10.4852 6.9843L10.5258 6.9136C10.6392 6.6868 10.8128 6.6 10.95 6.6C11.069 6.6 11.2174 6.6665 11.3287 6.8352L11.3742 6.9136C11.4149 6.99651 11.4717 7.07053 11.5412 7.1314C11.6107 7.19228 11.6915 7.23879 11.7791 7.26826C11.8666 7.29774 11.9592 7.30959 12.0513 7.30314C12.1435 7.29668 12.2334 7.27205 12.316 7.23067C12.3986 7.18928 12.4722 7.13195 12.5325 7.06199C12.5929 6.99203 12.6388 6.91082 12.6676 6.82304C12.6964 6.73526 12.7075 6.64265 12.7003 6.55055C12.6932 6.45844 12.6678 6.36867 12.6258 6.2864C12.3206 5.676 11.7109 5.2 10.95 5.2Z" fill="#989898"/>
</svg>
