<svg width="16" height="16" viewBox="0 0 16 16" fill="none" xmlns="http://www.w3.org/2000/svg">
<path fill-rule="evenodd" clip-rule="evenodd" d="M8 1C11.8661 1 15 4.1339 15 8C15 11.8661 11.8661 15 8 15C4.1339 15 1 11.8661 1 8C1 4.1339 4.1339 1 8 1ZM9.3888 9.575C9.0178 9.9026 8.5327 10.1 8 10.1C7.48841 10.1009 6.99425 9.91412 6.6112 9.575C6.47196 9.4521 6.2896 9.38954 6.10424 9.4011C5.91888 9.41265 5.7457 9.49736 5.6228 9.6366C5.4999 9.77584 5.43734 9.9582 5.4489 10.1436C5.46045 10.3289 5.54516 10.5021 5.6844 10.625C6.3011 11.1689 7.1124 11.5 8 11.5C8.85287 11.5012 9.67663 11.1899 10.3156 10.625C10.4548 10.5021 10.5396 10.3289 10.5511 10.1436C10.5627 9.9582 10.5001 9.77584 10.3772 9.6366C10.2543 9.49736 10.0811 9.41265 9.89576 9.4011C9.7104 9.38954 9.52804 9.4521 9.3888 9.575ZM5.55 5.2C4.7891 5.2 4.1794 5.676 3.8742 6.2864C3.79397 6.4461 3.77786 6.63043 3.82917 6.80163C3.88048 6.97282 3.99533 7.11791 4.15017 7.20715C4.30502 7.29638 4.48813 7.32302 4.66198 7.28158C4.83583 7.24015 4.98725 7.13379 5.0852 6.9843L5.1258 6.9136C5.2392 6.6868 5.4128 6.6 5.55 6.6C5.669 6.6 5.8174 6.6665 5.9287 6.8352L5.9742 6.9136C6.05823 7.07809 6.20387 7.2027 6.37938 7.26028C6.55489 7.31785 6.74604 7.30372 6.91118 7.22097C7.07632 7.13822 7.20205 6.99355 7.26099 6.81849C7.31992 6.64343 7.30727 6.45217 7.2258 6.2864C6.9199 5.676 6.3109 5.2 5.55 5.2ZM10.45 5.2C9.6891 5.2 9.0801 5.676 8.7742 6.2864C8.69397 6.4461 8.67786 6.63043 8.72917 6.80163C8.78048 6.97282 8.89533 7.11791 9.05017 7.20715C9.20502 7.29638 9.38813 7.32302 9.56198 7.28158C9.73583 7.24015 9.88725 7.13379 9.9852 6.9843L10.0258 6.9136C10.1392 6.6868 10.3128 6.6 10.45 6.6C10.569 6.6 10.7174 6.6665 10.8287 6.8352L10.8742 6.9136C10.9149 6.99651 10.9717 7.07053 11.0412 7.1314C11.1107 7.19228 11.1915 7.23879 11.2791 7.26826C11.3666 7.29774 11.4592 7.30959 11.5513 7.30314C11.6435 7.29668 11.7334 7.27205 11.816 7.23067C11.8986 7.18928 11.9722 7.13195 12.0325 7.06199C12.0929 6.99203 12.1388 6.91082 12.1676 6.82304C12.1964 6.73526 12.2075 6.64265 12.2003 6.55055C12.1932 6.45844 12.1678 6.36867 12.1258 6.2864C11.8206 5.676 11.2109 5.2 10.45 5.2Z" fill="#1AA3DD"/>
</svg>
