<svg width="25" height="24" viewBox="0 0 25 24" fill="none" xmlns="http://www.w3.org/2000/svg">
<g id="icon / 24px / solid / guide">
<path id="Exclude" fill-rule="evenodd" clip-rule="evenodd" d="M14.2833 2.03356C13.4365 1.18673 12.0635 1.18673 11.2167 2.03357L2.78332 10.4669C1.93648 11.3137 1.93648 12.6867 2.78332 13.5336L11.2167 21.9669C12.0635 22.8137 13.4365 22.8137 14.2833 21.9669L22.7167 13.5336C23.5635 12.6867 23.5635 11.3137 22.7167 10.4669L14.2833 2.03356ZM17.9429 11.4699C17.9394 11.4747 17.9358 11.4795 17.9323 11.4841H17.9333C17.9121 11.5093 17.8909 11.5326 17.8676 11.5558L15.246 14.1774C15.0581 14.3643 14.8126 14.4582 14.5672 14.4582C14.3217 14.4582 14.0762 14.3643 13.8883 14.1774C13.5135 13.8026 13.5135 13.1954 13.8883 12.8206L14.8723 11.8366H12.3353C11.6372 11.8366 11.0695 12.4044 11.0695 13.1025L11.0695 15.1904C11.0695 15.7208 10.6401 16.1501 10.1097 16.1501C9.57937 16.1501 9.15001 15.7208 9.15001 15.1904V13.1025C9.15001 11.3457 10.5785 9.91716 12.3353 9.91716H14.8733L13.8893 8.93318C13.5145 8.55939 13.5145 7.95122 13.8893 7.57641C14.2651 7.20161 14.8723 7.20161 15.2471 7.57641L17.8697 10.199C17.8764 10.205 17.882 10.2116 17.8878 10.2182C17.8898 10.2206 17.8918 10.2229 17.8939 10.2253L17.894 10.2253C17.9071 10.2395 17.9202 10.2536 17.9323 10.2687C17.9423 10.2812 17.9509 10.293 17.9599 10.3053C17.9618 10.3079 17.9637 10.3105 17.9656 10.3132C17.9737 10.3233 17.9818 10.3334 17.9889 10.3445C17.9939 10.3526 17.9987 10.3607 18.0035 10.3687C18.0083 10.3768 18.0131 10.3849 18.0182 10.393C18.0252 10.4041 18.0313 10.4142 18.0374 10.4253C18.0414 10.4334 18.0452 10.4417 18.049 10.4501C18.0528 10.4584 18.0566 10.4667 18.0606 10.4748C18.0667 10.4869 18.0727 10.4991 18.0778 10.5112C18.0813 10.5199 18.0844 10.5289 18.0876 10.5381C18.09 10.5449 18.0924 10.5518 18.095 10.5587C18.1 10.5718 18.1051 10.5849 18.1091 10.5991C18.1125 10.6099 18.1149 10.6206 18.1174 10.6314C18.1186 10.6368 18.1199 10.6422 18.1212 10.6476C18.1227 10.6546 18.1245 10.6617 18.1263 10.6688C18.128 10.6759 18.1298 10.6829 18.1313 10.69C18.1341 10.7024 18.1359 10.7153 18.1377 10.7283C18.1386 10.7344 18.1394 10.7405 18.1404 10.7466C18.1409 10.7526 18.1419 10.7587 18.1429 10.7648C18.1439 10.7708 18.145 10.7769 18.1455 10.7829C18.1515 10.8456 18.1515 10.9092 18.1455 10.9729L18.1394 11.0133C18.1379 11.0219 18.1366 11.0305 18.1354 11.039C18.1341 11.0476 18.1328 11.0562 18.1313 11.0648C18.1293 11.0756 18.1264 11.0864 18.1235 11.0972C18.122 11.1025 18.1205 11.1079 18.1192 11.1133C18.1172 11.1204 18.1154 11.1274 18.1136 11.1345C18.1119 11.1416 18.1101 11.1487 18.1081 11.1557C18.104 11.1719 18.098 11.1881 18.0919 11.2032C18.0905 11.2072 18.0891 11.2112 18.0878 11.215C18.0844 11.2249 18.0811 11.2345 18.0768 11.2446C18.0707 11.2588 18.0636 11.2739 18.0566 11.2881C18.0537 11.2938 18.051 11.2995 18.0483 11.3052C18.0444 11.3135 18.0406 11.3217 18.0364 11.3295C18.0323 11.3366 18.028 11.3434 18.0237 11.3502C18.0194 11.357 18.0151 11.3638 18.0111 11.3709C18.004 11.384 17.9959 11.3972 17.9879 11.4093C17.9778 11.4255 17.9656 11.4406 17.9535 11.4558L17.9535 11.4558C17.95 11.4603 17.9464 11.4651 17.9429 11.4699Z" fill="#1AA3DD"/>
</g>
</svg>
