<svg width="24" height="27" viewBox="0 0 24 27" fill="none" xmlns="http://www.w3.org/2000/svg">
<path fill-rule="evenodd" clip-rule="evenodd" d="M9 0C4.02944 0 0 4.02944 0 9V15C0 19.9706 4.02944 24 9 24H10.4832L11.9987 26.625C12.2874 27.125 13.0091 27.125 13.2978 26.625L14.8133 24H15C19.9706 24 24 19.9706 24 15V9C24 4.02944 19.9706 0 15 0H9Z" fill="#67C575"/>
<path fill-rule="evenodd" clip-rule="evenodd" d="M7.33333 5C6.04467 5 5 6.04467 5 7.33333V16.6667C5 17.9553 6.04467 19 7.33333 19H16.6667C17.9553 19 19 17.9553 19 16.6667V7.33333C19 6.04467 17.9553 5 16.6667 5H7.33333ZM12.3611 7.91659C12.9134 7.91659 13.3611 8.3643 13.3611 8.91659V10.6387H15.0835C15.6358 10.6387 16.0835 11.0864 16.0835 11.6387V12.3609C16.0835 12.9132 15.6358 13.3609 15.0835 13.3609H13.3611V15.0833C13.3611 15.6355 12.9134 16.0833 12.3611 16.0833H11.6389C11.0866 16.0833 10.6389 15.6355 10.6389 15.0833V13.3609H8.91683C8.36454 13.3609 7.91683 12.9132 7.91683 12.3609V11.6387C7.91683 11.0864 8.36454 10.6387 8.91683 10.6387H10.6389V8.91658C10.6389 8.3643 11.0866 7.91659 11.6389 7.91659H12.3611Z" fill="white"/>
</svg>
