<svg width="40" height="44" viewBox="0 0 40 44" fill="none" xmlns="http://www.w3.org/2000/svg">
<mask id="path-1-inside-1_13852_25964" fill="white">
<path fill-rule="evenodd" clip-rule="evenodd" d="M14 0C6.26801 0 0 6.26801 0 14V26C0 33.732 6.26801 40 14 40H17.6575L19.6257 43.4091C20.0806 44.197 21.2178 44.197 21.6727 43.4091L23.6409 40H26C33.732 40 40 33.732 40 26V14C40 6.26801 33.732 0 26 0H14Z"/>
</mask>
<path fill-rule="evenodd" clip-rule="evenodd" d="M14 0C6.26801 0 0 6.26801 0 14V26C0 33.732 6.26801 40 14 40H17.6575L19.6257 43.4091C20.0806 44.197 21.2178 44.197 21.6727 43.4091L23.6409 40H26C33.732 40 40 33.732 40 26V14C40 6.26801 33.732 0 26 0H14Z" fill="white" fill-opacity="0.9"/>
<path d="M17.6575 40L19.3895 39C19.0323 38.3812 18.372 38 17.6575 38V40ZM19.6257 43.4091L21.3578 42.4091L21.3578 42.4091L19.6257 43.4091ZM21.6727 43.4091L19.9406 42.4091L19.9406 42.4091L21.6727 43.4091ZM23.6409 40V38C22.9264 38 22.2661 38.3812 21.9089 39L23.6409 40ZM2 14C2 7.37258 7.37258 2 14 2V-2C5.16344 -2 -2 5.16345 -2 14H2ZM2 26V14H-2V26H2ZM14 38C7.37258 38 2 32.6274 2 26H-2C-2 34.8366 5.16345 42 14 42V38ZM17.6575 38H14V42H17.6575V38ZM21.3578 42.4091L19.3895 39L15.9254 41L17.8937 44.4091L21.3578 42.4091ZM19.9406 42.4091C20.2555 41.8636 21.0428 41.8636 21.3578 42.4091L17.8937 44.4091C19.1183 46.5303 22.1801 46.5303 23.4047 44.4091L19.9406 42.4091ZM21.9089 39L19.9406 42.4091L23.4047 44.4091L25.373 41L21.9089 39ZM26 38H23.6409V42H26V38ZM38 26C38 32.6274 32.6274 38 26 38V42C34.8366 42 42 34.8366 42 26H38ZM38 14V26H42V14H38ZM26 2C32.6274 2 38 7.37258 38 14H42C42 5.16344 34.8366 -2 26 -2V2ZM14 2H26V-2H14V2Z" fill="#1AA3DD" mask="url(#path-1-inside-1_13852_25964)"/>
<path fill-rule="evenodd" clip-rule="evenodd" d="M9.3335 18.1647C9.3335 12.2737 14.1091 7.49805 20.0002 7.49805C25.8912 7.49805 30.6668 12.2737 30.6668 18.1647C30.6668 21.9869 28.6946 25.2021 26.5502 27.5748C24.399 29.9551 21.9955 31.5768 20.9501 32.2278C20.3637 32.5929 19.6366 32.5929 19.0502 32.2278C18.0048 31.5768 15.6012 29.9551 13.4502 27.5748C11.3058 25.2021 9.3335 21.9869 9.3335 18.1647ZM20.0002 22.5408C22.417 22.5408 24.3762 20.5816 24.3762 18.1647C24.3762 15.7479 22.417 13.7887 20.0002 13.7887C17.5833 13.7887 15.6241 15.7479 15.6241 18.1647C15.6241 20.5815 17.5833 22.5408 20.0002 22.5408Z" fill="#1AA3DD"/>
</svg>
