<svg width="16" height="16" viewBox="0 0 16 16" fill="none" xmlns="http://www.w3.org/2000/svg">
<g clip-path="url(#clip0_15182_6004)">
<path fill-rule="evenodd" clip-rule="evenodd" d="M8.00011 14.2293C5.94889 14.2293 4.12924 13.2378 2.99422 11.708C3.25228 11.6969 3.48211 11.6814 3.67454 11.6654C4.14393 11.6265 4.63502 11.4287 4.93945 10.9974C5.30528 10.4792 5.52841 9.88081 5.65296 9.46642C5.77844 9.04897 5.73295 8.62395 5.62587 8.24841C5.54211 7.95452 5.44673 7.57643 5.39169 7.21734C5.33412 6.84196 5.33083 6.54641 5.38472 6.38398C5.40248 6.3305 5.45864 6.2553 5.59856 6.1718C5.73509 6.09031 5.91755 6.02147 6.12296 5.96585C6.53252 5.85498 6.97201 5.81259 7.16623 5.79856C7.23606 5.79351 7.32931 5.78614 7.42667 5.76154C7.6976 5.69302 8.34006 5.47244 8.98531 4.82531C9.322 4.48763 9.47511 4.03411 9.49035 3.5913C9.50418 3.18791 9.50881 2.60723 9.46697 1.94464C12.1994 2.60417 14.2293 5.06509 14.2293 8.00011C14.2293 8.1292 14.2253 8.25736 14.2176 8.38446C12.8382 8.12527 11.517 7.94785 10.6807 7.84732C10.0444 7.77081 9.30919 7.88179 8.80891 8.41267C8.63216 8.60025 8.48359 8.79642 8.35888 8.99026C7.6922 10.0268 8.26534 11.2267 9.11503 11.882L9.82382 12.4285C9.99475 12.5604 10.1007 12.7664 10.1134 12.992C10.1261 13.2168 10.1464 13.5061 10.1784 13.8378C9.50035 14.0909 8.76639 14.2293 8.00011 14.2293ZM8.00011 0.493164C3.85414 0.493164 0.493164 3.85414 0.493164 8.00011C0.493164 12.1461 3.85414 15.5071 8.00011 15.5071C12.1461 15.5071 15.5071 12.1461 15.5071 8.00011C15.5071 3.85414 12.1461 0.493164 8.00011 0.493164Z" fill="#656565"/>
</g>
<defs>
<clipPath id="clip0_15182_6004">
<rect width="16" height="16" fill="white"/>
</clipPath>
</defs>
</svg>
