<svg width="16" height="16" viewBox="0 0 16 16" fill="none" xmlns="http://www.w3.org/2000/svg">
<path fill-rule="evenodd" clip-rule="evenodd" d="M1.42871 13.2857V2.57143C1.42871 1.15127 2.57998 0 4.00014 0H12.0001C13.4203 0 14.5716 1.15127 14.5716 2.57143V11.4286C14.5716 11.9019 14.1878 12.2857 13.7144 12.2857H13.4287V14.2857H13.7144C14.1878 14.2857 14.5716 14.6695 14.5716 15.1429C14.5716 15.6162 14.1878 16 13.7144 16H4.143C2.64393 16 1.42871 14.7848 1.42871 13.2857ZM11.7144 12.2857H4.143C3.59071 12.2857 3.143 12.7335 3.143 13.2857C3.143 13.8379 3.59071 14.2857 4.143 14.2857H11.7144V12.2857ZM12.3552 5.45403C12.2571 5.26426 12.0613 5.14509 11.8476 5.14509H9.20183C8.88624 5.14509 8.6304 5.40093 8.6304 5.71651C8.6304 6.03211 8.88624 6.28794 9.20183 6.28794H10.7426L8.57017 9.35489C8.44668 9.52923 8.43076 9.7579 8.52889 9.94767C8.62702 10.1374 8.82282 10.2566 9.03647 10.2566H12.0129C12.3286 10.2566 12.5844 10.0008 12.5844 9.68519C12.5844 9.3696 12.3286 9.11376 12.0129 9.11376H10.1415L12.314 6.04681C12.4374 5.87248 12.4533 5.64381 12.3552 5.45403ZM6.64456 3.00498C6.50432 2.58427 6.11061 2.3005 5.66714 2.3005C5.22368 2.3005 4.82997 2.58427 4.68974 3.00498L3.91661 5.32435C3.91363 5.33265 3.91083 5.34104 3.90822 5.34951L3.47143 6.65991C3.37163 6.9593 3.53343 7.28291 3.83283 7.38271C4.13223 7.4825 4.45584 7.3207 4.55564 7.0213L4.86636 6.08914H6.46793L6.77865 7.0213C6.87846 7.3207 7.20207 7.4825 7.50146 7.38271C7.80086 7.28291 7.96266 6.9593 7.86287 6.65991L7.42607 5.34952C7.42347 5.34104 7.42067 5.33265 7.41768 5.32435L6.64456 3.00498ZM5.2473 4.94629L5.66714 3.68678L6.08698 4.94629H5.2473Z" fill="#656565"/>
</svg>
