<svg width="24" height="25" viewBox="0 0 24 25" fill="none" xmlns="http://www.w3.org/2000/svg">
<path d="M12.3108 15.5107L19.2288 8.59375C19.3408 8.48154 19.4739 8.39228 19.6204 8.33154C19.7668 8.27081 19.9237 8.23975 20.0823 8.23975C20.2408 8.23975 20.3977 8.27081 20.5442 8.33154C20.6906 8.39228 20.8238 8.48154 20.9358 8.59375C21.1558 8.82345 21.2786 9.12922 21.2786 9.44727C21.2786 9.76531 21.1558 10.0711 20.9358 10.3008L13.1648 18.0698C13.0532 18.1824 12.9205 18.2715 12.7742 18.3325C12.6278 18.3935 12.4708 18.4253 12.3123 18.4253C12.1537 18.4253 11.9969 18.3935 11.8506 18.3325C11.7043 18.2715 11.5713 18.1824 11.4597 18.0698L3.68677 10.2969C3.46041 10.0705 3.33325 9.76348 3.33325 9.44336C3.33325 9.12323 3.46041 8.81621 3.68677 8.58984C3.91313 8.36348 4.22016 8.23633 4.54028 8.23633C4.86041 8.23633 5.16744 8.36348 5.3938 8.58984L12.3108 15.5107Z" fill="#292929"/>
</svg>
