<svg width="23" height="24" viewBox="0 0 23 24" fill="none" xmlns="http://www.w3.org/2000/svg">
<path d="M21.3899 6.03399H13.8395C13.5098 6.72639 13.0152 7.51771 12.4217 8.44091L14.1362 9.00142C15.9496 8.30902 17.4004 7.68256 18.4555 7.05611C18.8181 6.85828 19.1479 6.75937 19.4116 6.79234C19.6754 6.82531 19.9721 6.99016 20.3019 7.28691C21.225 8.04525 21.1261 8.73765 20.0381 9.29816C19.4446 9.56193 18.9171 9.79273 18.4225 9.99056C18.5873 11.1446 18.7522 12.1996 18.95 13.1228C19.016 13.0569 19.1808 12.925 19.4446 12.7272C19.7084 12.5294 19.8732 12.3645 19.9721 12.2656C20.3678 11.9029 20.6975 11.7051 21.0272 11.738C21.324 11.738 21.6537 11.9688 21.9834 12.3645C22.6098 13.1228 22.412 13.8152 21.4558 14.4087C21.225 14.5406 20.8953 14.7384 20.4997 14.9692C20.104 15.2 19.8073 15.3649 19.6424 15.4638C20.2029 17.2113 20.9283 18.5961 21.8515 19.6182C22.3131 20.0468 22.5439 20.4095 22.6098 20.7722C22.6428 21.1349 22.5109 21.5305 22.1153 22.0251C21.7526 22.4867 21.4229 22.7175 21.1261 22.7505C20.8294 22.7835 20.4667 22.5856 20.0711 22.19C18.983 20.97 18.1587 19.4204 17.5323 17.574C16.9388 15.7276 16.4442 13.5185 16.0815 10.8808C15.9167 10.9138 15.6859 11.0127 15.3891 11.1116C15.0924 11.2105 14.8945 11.2764 14.7627 11.3094V19.2885C14.8616 19.2885 15.0924 19.2225 15.4551 19.1566C15.8177 19.0907 16.0815 19.0247 16.3123 18.9917C17.1696 18.7939 17.6641 19.1566 17.7631 20.0468C17.829 20.8052 17.4993 21.2997 16.7409 21.4646C16.2464 21.5635 15.7518 21.6954 15.2243 21.8273C14.6967 21.9592 14.1032 22.0911 13.5098 22.2229C12.8833 22.3548 12.4217 22.4537 12.092 22.5527C11.6634 22.6516 11.3336 22.6186 11.1028 22.4537C10.872 22.2889 10.7072 21.9921 10.5753 21.5635C10.3445 20.6403 10.6742 20.0798 11.5974 19.9149C11.8612 19.882 12.026 19.849 12.1249 19.816V8.9025V8.93548C12.1249 8.93548 12.1249 8.93548 12.1249 8.96845C11.7952 9.3641 11.3336 9.46302 10.8061 9.29816C10.2786 9.10033 9.91587 8.77062 9.71804 8.30902C9.52021 7.84742 9.58615 7.41879 9.84993 7.02314L9.8829 6.99016L9.91587 6.95719H5.46473C5.46473 7.88039 5.43176 8.80359 5.39879 9.72679H8.43215C8.9597 9.72679 9.35536 9.95759 9.61913 10.4192C9.8829 10.8808 9.98181 11.6721 9.98181 12.8261C9.91587 15.9254 9.78398 18.1015 9.65209 19.4204C9.52021 20.7392 9.32238 21.5635 9.02564 21.9592C8.7289 22.3878 8.36621 22.6845 7.97056 22.8494C7.5749 23.0143 7.04736 23.0802 6.38793 23.0802C5.43176 23.0802 4.87125 22.6845 4.64045 21.9262C4.50856 21.4316 4.54153 21.0689 4.77233 20.8381C4.97016 20.6073 5.36582 20.5084 5.89336 20.5414H5.92633C6.22308 20.5414 6.45387 20.4425 6.61873 20.1787C6.91547 19.7501 7.14627 17.541 7.24519 13.5844C7.24519 13.1228 7.21221 12.8261 7.1133 12.6612C7.01439 12.4964 6.84953 12.4304 6.6517 12.4304H5.23393C4.87125 16.5519 4.04696 19.7171 2.72811 21.9592C2.39839 22.4537 2.06868 22.6845 1.77194 22.7175C1.47519 22.7505 1.11251 22.5527 0.683881 22.124C0.321195 21.7284 0.123366 21.3987 0.0903948 21.1349C0.0574234 20.8711 0.189313 20.5084 0.486055 20.0798C1.37628 18.6291 1.9368 16.9146 2.20057 14.8703C2.46434 12.8591 2.62919 10.2214 2.66216 6.99016H1.54114C0.61794 6.99016 0.156342 6.52857 0.156342 5.60537C0.156342 4.68217 0.61794 4.22057 1.54114 4.22057H4.11291V1.418C4.11291 0.494803 4.5745 0.0332031 5.53067 0.0332031C6.48684 0.0332031 6.94844 0.494803 6.94844 1.418V4.1876H9.25644C9.61912 4.1876 9.91587 4.28651 10.1467 4.51731C10.3775 4.74811 10.4764 5.04485 10.4764 5.40754V5.47348C10.4764 5.83617 10.5753 5.86914 10.7731 5.60537C11.5644 4.31948 12.1579 2.93468 12.5536 1.45097C12.7844 0.494803 13.4108 0.0991459 14.367 0.264003C15.3561 0.461831 15.7518 1.05532 15.488 2.01149C15.4551 2.14337 15.3561 2.37417 15.2902 2.67091C15.1913 2.96766 15.1253 3.19846 15.0924 3.33034H21.3899C22.2801 3.33034 22.7088 3.75897 22.7088 4.6492C22.7088 5.60537 22.2801 6.03399 21.3899 6.03399Z" fill="white" fill-opacity="0.95"/>
</svg>
