<svg width="295" height="24" viewBox="0 0 295 24" fill="none" xmlns="http://www.w3.org/2000/svg">
<path d="M0 12C0 10.8954 0.895431 10 2 10H273C274.105 10 275 10.8954 275 12C275 13.1046 274.105 14 273 14H2C0.895429 14 0 13.1046 0 12Z" fill="url(#paint0_linear_15182_14351)"/>
<path d="M0 12C0 10.8954 0.895431 10 2 10H211C212.105 10 213 10.8954 213 12C213 13.1046 212.105 14 211 14H2.00001C0.895436 14 0 13.1046 0 12Z" fill="url(#paint1_linear_15182_14351)"/>
<path d="M271 12C271 5.37258 276.373 0 283 0C289.627 0 295 5.37258 295 12C295 18.6274 289.627 24 283 24C276.373 24 271 18.6274 271 12Z" fill="url(#paint2_linear_15182_14351)"/>
<path d="M281.718 5.74276C281.943 5.2361 282.637 5.21143 282.909 5.66676L282.948 5.74276L283.643 7.3061C284.25 8.67071 285.258 9.81761 286.534 10.5934L286.749 10.7194L287.982 11.4128C288.08 11.4677 288.163 11.5462 288.223 11.6413C288.283 11.7363 288.318 11.8449 288.325 11.957C288.333 12.0691 288.312 12.1813 288.265 12.2833C288.217 12.3852 288.145 12.4737 288.055 12.5408L287.983 12.5874L286.749 13.2808C285.447 14.013 284.4 15.1253 283.748 16.4688L283.643 16.6941L282.948 18.2574C282.723 18.7641 282.029 18.7888 281.757 18.3334L281.718 18.2574L281.023 16.6941C280.417 15.3295 279.408 14.1826 278.132 13.4068L277.917 13.2808L276.684 12.5874C276.586 12.5325 276.503 12.454 276.443 12.3589C276.383 12.2639 276.348 12.1553 276.341 12.0432C276.334 11.9311 276.354 11.8189 276.402 11.7169C276.449 11.615 276.521 11.5264 276.611 11.4594L276.683 11.4128L277.917 10.7194C279.219 9.9872 280.266 8.87494 280.918 7.53143L281.023 7.3061L281.718 5.74276ZM287.814 5.4141C288.145 6.16583 288.709 6.79094 289.423 7.19676C289.53 7.25676 289.53 7.4101 289.423 7.4701C288.709 7.87599 288.144 8.50135 287.813 9.25343C287.8 9.28174 287.78 9.30579 287.754 9.32266C287.728 9.33953 287.697 9.3485 287.666 9.3485C287.635 9.3485 287.605 9.33953 287.579 9.32266C287.553 9.30579 287.532 9.28174 287.52 9.25343C287.189 8.5016 286.624 7.87648 285.91 7.47076C285.886 7.45701 285.866 7.43713 285.852 7.41312C285.838 7.38912 285.83 7.36186 285.83 7.3341C285.83 7.30634 285.838 7.27908 285.852 7.25507C285.866 7.23107 285.886 7.21118 285.91 7.19743C286.624 6.79137 287.189 6.16576 287.52 5.41343C287.532 5.38512 287.553 5.36108 287.579 5.34421C287.605 5.32734 287.635 5.31836 287.666 5.31836C287.697 5.31836 287.728 5.32734 287.754 5.34421C287.78 5.36108 287.8 5.38512 287.813 5.41343L287.814 5.4141Z" fill="#0C2F45"/>
<defs>
<linearGradient id="paint0_linear_15182_14351" x1="0" y1="12" x2="275" y2="12" gradientUnits="userSpaceOnUse">
<stop offset="0.69" stop-color="#BEE6F9"/>
<stop offset="0.905" stop-color="white"/>
</linearGradient>
<linearGradient id="paint1_linear_15182_14351" x1="0" y1="12" x2="213" y2="12" gradientUnits="userSpaceOnUse">
<stop offset="0.045" stop-color="#2292CF"/>
<stop offset="1" stop-color="#114A69"/>
</linearGradient>
<linearGradient id="paint2_linear_15182_14351" x1="276.584" y1="1.91552e-06" x2="289.416" y2="24" gradientUnits="userSpaceOnUse">
<stop offset="0.358417" stop-color="#E2F2FC"/>
<stop offset="0.76" stop-color="#0D84BC"/>
</linearGradient>
</defs>
</svg>
