<svg width="24" height="24" viewBox="0 0 24 24" fill="none" xmlns="http://www.w3.org/2000/svg">
<path d="M0 9C0 4.02944 4.02944 0 9 0H15C19.9706 0 24 4.02944 24 9V15C24 19.9706 19.9706 24 15 24H9C4.02944 24 0 19.9706 0 15V9Z" fill="black"/>
<path d="M7.33333 18.2857C6.96667 18.2857 6.65278 18.1556 6.39167 17.8954C6.13056 17.6353 6 17.3225 6 16.9571V7.65714C6 7.29179 6.13056 6.97902 6.39167 6.71884C6.65278 6.45866 6.96667 6.32857 7.33333 6.32857H8V5.66667C8 5.29848 8.29848 5 8.66667 5V5C9.03486 5 9.33333 5.29848 9.33333 5.66667V6.32857H14.6667V5.66667C14.6667 5.29848 14.9651 5 15.3333 5V5C15.7015 5 16 5.29848 16 5.66667V6.32857H16.6667C17.0333 6.32857 17.3472 6.45866 17.6083 6.71884C17.8694 6.97902 18 7.29179 18 7.65714V16.9571C18 17.3225 17.8694 17.6353 17.6083 17.8954C17.3472 18.1556 17.0333 18.2857 16.6667 18.2857H7.33333ZM7.33333 16.1C7.33333 16.5734 7.71709 16.9571 8.19048 16.9571H15.8095C16.2829 16.9571 16.6667 16.5734 16.6667 16.1V11.1714C16.6667 10.698 16.2829 10.3143 15.8095 10.3143H8.19047C7.71709 10.3143 7.33333 10.698 7.33333 11.1714V16.1ZM7.33333 8.32143C7.33333 8.6883 7.63074 8.98571 7.99762 8.98571H16.0024C16.3693 8.98571 16.6667 8.6883 16.6667 8.32143V8.32143C16.6667 7.95455 16.3693 7.65714 16.0024 7.65714H7.99762C7.63074 7.65714 7.33333 7.95455 7.33333 8.32143V8.32143Z" fill="white"/>
<path d="M7.33333 8.32143C7.33333 8.6883 7.63074 8.98571 7.99762 8.98571H16.0024C16.3693 8.98571 16.6667 8.6883 16.6667 8.32143V8.32143C16.6667 7.95455 16.3693 7.65714 16.0024 7.65714H7.99762C7.63074 7.65714 7.33333 7.95455 7.33333 8.32143V8.32143Z" fill="white"/>
</svg>
