<svg width="32" height="32" viewBox="0 0 32 32" fill="none" xmlns="http://www.w3.org/2000/svg">
<path fill-rule="evenodd" clip-rule="evenodd" d="M15.9999 4.24219C20.5407 4.24219 24.3275 7.71724 24.713 12.2411L24.9851 15.444C25.1098 16.8726 25.5634 18.2558 26.3173 19.4803L27.162 20.8465C28.0067 22.2184 27.5475 23.6356 25.9488 23.851C24.1178 24.0948 21.0679 24.3102 15.9942 24.3102C10.9205 24.3102 7.87062 24.0948 6.03955 23.851C4.44091 23.6356 3.97606 22.2184 4.8264 20.8465L5.67107 19.4803C6.42504 18.2558 6.88422 16.8782 7.00327 15.444L7.27538 12.2411C7.66087 7.71724 11.4477 4.24219 15.9885 4.24219H15.9999ZM15.9999 26.0336C14.1348 26.0336 12.5361 26.0052 11.1586 25.9542C12.0656 27.7059 13.891 28.902 15.9999 28.902C18.1087 28.902 19.9341 27.7059 20.8411 25.9542C19.4636 26.0052 17.8649 26.0336 15.9999 26.0336Z" fill="#0E597E"/>
</svg>
