<svg width="24" height="24" viewBox="0 0 24 24" fill="none" xmlns="http://www.w3.org/2000/svg">
<path d="M0 9C0 4.02944 4.02944 0 9 0H15C19.9706 0 24 4.02944 24 9V15C24 19.9706 19.9706 24 15 24H9C4.02944 24 0 19.9706 0 15V9Z" fill="#FAD200"/>
<path fill-rule="evenodd" clip-rule="evenodd" d="M12.0001 5.00952C11.5801 5.00952 11.2149 5.03996 10.8983 5.09474C9.79659 5.27126 9.29745 6.32431 9.38876 7.31041C9.50441 8.56433 9.68702 10.3661 9.88789 11.5409C10.0035 12.2043 10.4601 12.7887 11.1966 12.8739C11.4218 12.8983 11.6836 12.9165 12.0001 12.9165C12.3166 12.9165 12.5844 12.8983 12.8036 12.8739C13.5401 12.7887 13.9966 12.1983 14.1123 11.5409C14.3131 10.3661 14.4957 8.56433 14.6114 7.31041C14.7027 6.31823 14.1975 5.26518 13.1018 5.09474C12.7853 5.03996 12.4201 5.00952 12.0001 5.00952Z" fill="white"/>
<path d="M11.813 19.0095C13.1577 19.0095 14.2478 17.9194 14.2478 16.5747C14.2478 15.23 13.1577 14.1399 11.813 14.1399C10.4683 14.1399 9.37817 15.23 9.37817 16.5747C9.37817 17.9194 10.4683 19.0095 11.813 19.0095Z" fill="white"/>
</svg>
