<svg width="16" height="17" viewBox="0 0 16 17" fill="none" xmlns="http://www.w3.org/2000/svg">
<path d="M5.75 14.2368C4.70556 14.2368 3.81944 13.8729 3.09167 13.1452C2.36389 12.4174 2 11.5313 2 10.4868C2 9.98682 2.09444 9.50904 2.28333 9.05348C2.47222 8.59793 2.74444 8.19237 3.1 7.83682L7.6 3.33682C7.95556 2.98126 8.36111 2.70904 8.81667 2.52015C9.27222 2.33126 9.75 2.23682 10.25 2.23682C11.2944 2.23682 12.1806 2.60071 12.9083 3.32848C13.6361 4.05626 14 4.94237 14 5.98682C14 6.48682 13.9056 6.96459 13.7167 7.42015C13.5278 7.87571 13.2556 8.28126 12.9 8.63682L8.4 13.1368C8.04445 13.4924 7.63889 13.7646 7.18333 13.9535C6.72778 14.1424 6.25 14.2368 5.75 14.2368ZM10.1833 9.47015L11.9667 7.70348C12.1889 7.48126 12.3611 7.22015 12.4833 6.92015C12.6056 6.62015 12.6667 6.30904 12.6667 5.98682C12.6667 5.32015 12.4306 4.75071 11.9583 4.27848C11.4861 3.80626 10.9167 3.57015 10.25 3.57015C9.92778 3.57015 9.61667 3.63126 9.31667 3.75348C9.01667 3.87571 8.75556 4.04793 8.53333 4.27015L6.76667 6.05348L10.1833 9.47015ZM5.75 12.9035C6.07222 12.9035 6.38333 12.8424 6.68333 12.7201C6.98333 12.5979 7.24444 12.4257 7.46667 12.2035L9.23333 10.4202L5.81667 7.00348L4.03333 8.77015C3.81111 8.99237 3.63889 9.25348 3.51667 9.55348C3.39444 9.85348 3.33333 10.1646 3.33333 10.4868C3.33333 11.1535 3.56944 11.7229 4.04167 12.1952C4.51389 12.6674 5.08333 12.9035 5.75 12.9035Z" fill="#989898"/>
<path d="M5.75 12.9035C6.07222 12.9035 6.38333 12.8424 6.68333 12.7201C6.98333 12.5979 7.24444 12.4257 7.46667 12.2035L9.23333 10.4202L5.81667 7.00348L4.03333 8.77015C3.81111 8.99237 3.63889 9.25348 3.51667 9.55348C3.39444 9.85348 3.33333 10.1646 3.33333 10.4868C3.33333 11.1535 3.56944 11.7229 4.04167 12.1952C4.51389 12.6674 5.08333 12.9035 5.75 12.9035Z" fill="#989898"/>
</svg>
