<svg width="16" height="16" viewBox="0 0 16 16" fill="none" xmlns="http://www.w3.org/2000/svg">
<g clip-path="url(#clip0_15182_5996)">
<path fill-rule="evenodd" clip-rule="evenodd" d="M11.5139 0.8125C13.5428 0.8125 15.1875 2.45723 15.1875 4.48611V4.91171C15.1875 4.93579 15.1857 4.95969 15.1822 4.9832C15.0039 10.6492 10.3549 15.1875 4.64583 15.1875H4.48611C2.45723 15.1875 0.8125 13.5428 0.8125 11.5139V11.3322C0.8125 10.7443 1.17037 10.2158 1.71613 9.99749L3.68558 9.2097C4.33814 8.94865 5.08347 9.10164 5.58043 9.59863L6.5632 10.5814C6.60665 10.6248 6.65543 10.63 6.6852 10.6209C8.56558 10.0499 10.0499 8.56558 10.6209 6.6852C10.63 6.65543 10.6248 6.60665 10.5814 6.5632L9.59863 5.58043C9.10167 5.08347 8.94865 4.33814 9.2097 3.68558L9.99749 1.71613C10.2158 1.17037 10.7443 0.8125 11.3322 0.8125H11.5139Z" fill="#656565"/>
</g>
<defs>
<clipPath id="clip0_15182_5996">
<rect width="16" height="16" fill="white"/>
</clipPath>
</defs>
</svg>
