<svg width="16" height="16" viewBox="0 0 16 16" fill="none" xmlns="http://www.w3.org/2000/svg">
<path fill-rule="evenodd" clip-rule="evenodd" d="M5.17731 0C5.65071 0 6.03445 0.383755 6.03445 0.857143V3.80159C6.70538 3.77406 7.38444 3.75558 7.99897 3.75558C8.61404 3.75558 9.29376 3.77409 9.96527 3.80167V0.857143C9.96527 0.383755 10.349 0 10.8224 0C11.2958 0 11.6795 0.383755 11.6795 0.857143V3.88968C11.7748 3.89544 11.8682 3.9012 11.9595 3.90695C13.3144 3.99224 14.4579 4.93337 14.705 6.2284C15.0873 8.23247 14.7314 9.89318 13.8778 11.1654C13.1076 12.3131 11.9618 13.1011 10.6898 13.5483C10.6708 13.8471 10.6477 14.1399 10.6253 14.4232L10.625 14.4273C10.6035 14.7002 10.5827 14.9639 10.5661 15.2222C10.5487 15.4952 10.3401 15.7176 10.0686 15.7525C9.8848 15.7761 9.69562 15.8072 9.49113 15.8409L9.47276 15.8439C9.03243 15.9165 8.52583 16 7.99977 16C7.47374 16 6.96716 15.9165 6.52684 15.8439L6.50842 15.8409C6.30393 15.8072 6.11475 15.7761 5.9309 15.7525C5.65948 15.7176 5.45087 15.4952 5.4334 15.2222C5.41689 14.9639 5.39608 14.7002 5.37452 14.4273L5.37421 14.4233C5.35181 14.1398 5.32867 13.8469 5.30972 13.5479C4.03823 13.1006 2.89276 12.3127 2.12264 11.1653C1.26903 9.89347 0.912671 8.23331 1.29369 6.22979C1.5401 4.93407 2.68403 3.99221 4.03939 3.90689C4.13095 3.90113 4.22464 3.89535 4.32017 3.88958V0.857143C4.32017 0.383755 4.70393 0 5.17731 0Z" fill="#656565"/>
</svg>
