<svg width="24" height="27" viewBox="0 0 24 27" fill="none" xmlns="http://www.w3.org/2000/svg">
<path fill-rule="evenodd" clip-rule="evenodd" d="M9 0C4.02944 0 0 4.02944 0 9V15C0 19.9706 4.02944 24 9 24H10.4832L11.9987 26.625C12.2874 27.125 13.0091 27.125 13.2978 26.625L14.8133 24H15C19.9706 24 24 19.9706 24 15V9C24 4.02944 19.9706 0 15 0H9Z" fill="#67C575"/>
<path d="M17.9177 5.88276C17.8624 5.86434 17.806 5.85513 17.7485 5.85513C15.8903 5.85513 14.0506 5.57537 12.2765 5.02277C12.1729 4.99053 12.0659 4.99169 11.9622 5.02277C10.1824 5.59034 8.31622 5.87815 6.39938 5.87815C6.10581 5.87815 5.88477 6.11646 5.88477 6.41003V6.43421C5.88477 11.8025 5.8675 16.0414 11.8414 18.9461C11.915 18.9818 11.9784 18.999 12.0578 18.999C12.1372 18.999 12.219 18.9818 12.2927 18.9449C18.2861 15.9988 18.2861 11.7576 18.2861 6.38701C18.2861 6.16021 18.133 5.95529 17.9177 5.88161V5.88276ZM15.4506 10.9471L14.1611 12.2055L14.457 13.9335C14.4685 13.9772 14.4754 14.029 14.4754 14.0774C14.4754 14.371 14.2371 14.615 13.9436 14.615H13.9413C13.8572 14.615 13.772 14.5886 13.6949 14.5471L12.0992 13.7055L10.5048 14.5425C10.3263 14.6369 10.1087 14.6208 9.94525 14.5011C9.78177 14.3825 9.70003 14.181 9.73457 13.9818L10.0385 12.2055L8.74794 10.9471C8.60403 10.8067 8.55108 10.5949 8.6144 10.4026C8.67656 10.2103 8.84234 10.071 9.04266 10.0411L10.826 9.78206L11.6238 8.16685C11.7124 7.98495 11.8978 7.87098 12.0992 7.87098C12.3007 7.87098 12.4861 7.98495 12.5759 8.16685L13.3737 9.78206L15.157 10.0411C15.3573 10.071 15.5231 10.2103 15.5853 10.4026C15.6474 10.5949 15.5956 10.8067 15.4506 10.9471Z" fill="white"/>
</svg>
