<svg width="24" height="27" viewBox="0 0 24 27" fill="none" xmlns="http://www.w3.org/2000/svg">
<path fill-rule="evenodd" clip-rule="evenodd" d="M9 0C4.02944 0 0 4.02944 0 9V15C0 19.9706 4.02944 24 9 24H10.4832L11.9987 26.625C12.2874 27.125 13.0091 27.125 13.2978 26.625L14.8133 24H15C19.9706 24 24 19.9706 24 15V9C24 4.02944 19.9706 0 15 0H9Z" fill="#67C575"/>
<path d="M17.9179 5.88276C17.8627 5.86434 17.8063 5.85513 17.7487 5.85513C15.8906 5.85513 14.0509 5.57537 12.2768 5.02277C12.1732 4.99053 12.0661 4.99169 11.9625 5.02277C10.1827 5.59034 8.31646 5.87815 6.39962 5.87815C6.10605 5.87815 5.88501 6.11646 5.88501 6.41003V6.43421C5.88501 11.8025 5.86774 16.0414 11.8416 18.9461C11.9153 18.9818 11.9786 18.999 12.058 18.999C12.1375 18.999 12.2192 18.9818 12.2929 18.9449C18.2863 15.9988 18.2863 11.7576 18.2863 6.38701C18.2863 6.16021 18.1332 5.95529 17.9179 5.88161V5.88276ZM15.4508 10.9471L14.1614 12.2055L14.4573 13.9335C14.4688 13.9772 14.4757 14.029 14.4757 14.0774C14.4757 14.371 14.2374 14.615 13.9438 14.615H13.9415C13.8575 14.615 13.7723 14.5886 13.6951 14.5471L12.0995 13.7055L10.505 14.5425C10.3266 14.6369 10.109 14.6208 9.94549 14.5011C9.78201 14.3825 9.70027 14.181 9.73481 13.9818L10.0387 12.2055L8.74819 10.9471C8.60428 10.8067 8.55132 10.5949 8.61464 10.4026C8.67681 10.2103 8.84259 10.071 9.04291 10.0411L10.8262 9.78206L11.624 8.16685C11.7127 7.98495 11.898 7.87098 12.0995 7.87098C12.301 7.87098 12.4863 7.98495 12.5761 8.16685L13.3739 9.78206L15.1572 10.0411C15.3575 10.071 15.5233 10.2103 15.5855 10.4026C15.6477 10.5949 15.5959 10.8067 15.4508 10.9471Z" fill="white"/>
</svg>
