<svg width="16" height="17" viewBox="0 0 16 17" fill="none" xmlns="http://www.w3.org/2000/svg">
<path fill-rule="evenodd" clip-rule="evenodd" d="M8.99996 0.986816C8.56646 0.986816 8.18914 1.14409 7.88152 1.45171C7.57389 1.75933 7.41663 2.13665 7.41663 2.57015C7.41663 3.00365 7.57389 3.38097 7.88152 3.68859C8.04039 3.84747 8.21786 3.96624 8.41205 4.04395C8.27972 4.00594 8.14214 3.98682 7.99996 3.98682C7.81791 3.98682 7.62607 4.01602 7.42585 4.07063C7.22447 4.12555 6.92433 4.24009 6.53446 4.40718L4.20347 5.41039C3.92827 5.52883 3.74996 5.7997 3.74996 6.0993V8.40348C3.74996 8.8177 4.08575 9.15348 4.49996 9.15348H4.83329C5.24751 9.15348 5.58329 8.8177 5.58329 8.40348V6.97885C5.58329 6.87575 5.64659 6.78322 5.74268 6.74585L5.77582 6.73296C5.9596 6.66149 6.14991 6.82097 6.11169 7.01441L5.31927 11.0261C5.29232 11.1625 5.15918 11.2507 5.02302 11.2224L2.81104 10.7615C2.40323 10.6766 2.00433 10.9402 1.92263 11.3487L1.8526 11.6989C1.77152 12.1042 2.03376 12.4988 2.4389 12.581L6.07152 13.318C6.47079 13.399 6.86171 13.1465 6.952 12.7492L7.31535 11.1505C7.35835 10.9613 7.59107 10.891 7.73155 11.0248L8.33904 11.6034C8.38858 11.6506 8.41663 11.716 8.41663 11.7844V15.0701C8.41663 15.4844 8.75241 15.8201 9.16663 15.8201H9.49996C9.91417 15.8201 10.25 15.4844 10.25 15.0701V10.7844C10.25 10.5792 10.1658 10.3829 10.0172 10.2413L8.97186 9.24577C8.90977 9.18663 8.88231 9.0998 8.89913 9.01571L9.04505 8.28611C9.06455 8.1886 9.1382 8.11127 9.25268 8.07587C9.36948 8.03976 9.50139 8.05774 9.59765 8.1293C9.87399 8.33471 10.1751 8.51508 10.5004 8.67068C11.0186 8.91851 11.5665 9.07095 12.1428 9.12795C12.5814 9.17133 12.9166 8.81009 12.9166 8.40348V8.07015C12.9166 7.64828 12.5776 7.34071 12.2018 7.28953C11.7997 7.23478 11.4349 7.10679 11.1046 6.90641C10.6421 6.62574 10.2795 6.26988 10.0125 5.83856L9.34661 4.77312L9.34593 4.77201C9.20311 4.53868 9.01379 4.34951 8.78032 4.20683C8.70642 4.16167 8.63035 4.1234 8.55225 4.09208C8.69371 4.13291 8.84316 4.15348 8.99996 4.15348C9.43346 4.15348 9.81078 3.99621 10.1184 3.68859C10.426 3.38097 10.5833 3.00365 10.5833 2.57015C10.5833 2.13665 10.426 1.75933 10.1184 1.45171C9.81078 1.14409 9.43346 0.986816 8.99996 0.986816Z" fill="#989898"/>
</svg>
