<svg width="24" height="25" viewBox="0 0 24 25" fill="none" xmlns="http://www.w3.org/2000/svg">
<g id="rightIcon">
<path id="Vector" d="M16 12.2363C16 11.7059 16.2107 11.1972 16.5858 10.8221C16.9609 10.447 17.4696 10.2363 18 10.2363C18.5304 10.2363 19.0391 10.447 19.4142 10.8221C19.7893 11.1972 20 11.7059 20 12.2363C20 12.7668 19.7893 13.2755 19.4142 13.6505C19.0391 14.0256 18.5304 14.2363 18 14.2363C17.4696 14.2363 16.9609 14.0256 16.5858 13.6505C16.2107 13.2755 16 12.7668 16 12.2363ZM10 12.2363C10 11.7059 10.2107 11.1972 10.5858 10.8221C10.9609 10.447 11.4696 10.2363 12 10.2363C12.5304 10.2363 13.0391 10.447 13.4142 10.8221C13.7893 11.1972 14 11.7059 14 12.2363C14 12.7668 13.7893 13.2755 13.4142 13.6505C13.0391 14.0256 12.5304 14.2363 12 14.2363C11.4696 14.2363 10.9609 14.0256 10.5858 13.6505C10.2107 13.2755 10 12.7668 10 12.2363ZM4 12.2363C4 11.7059 4.21071 11.1972 4.58579 10.8221C4.96086 10.447 5.46957 10.2363 6 10.2363C6.53043 10.2363 7.03914 10.447 7.41421 10.8221C7.78929 11.1972 8 11.7059 8 12.2363C8 12.7668 7.78929 13.2755 7.41421 13.6505C7.03914 14.0256 6.53043 14.2363 6 14.2363C5.46957 14.2363 4.96086 14.0256 4.58579 13.6505C4.21071 13.2755 4 12.7668 4 12.2363Z" fill="#292929"/>
</g>
</svg>
