<svg width="24" height="24" viewBox="0 0 24 24" fill="none" xmlns="http://www.w3.org/2000/svg">
<path d="M0 9C0 4.02944 4.02944 0 9 0H15C19.9706 0 24 4.02944 24 9V15C24 19.9706 19.9706 24 15 24H9C4.02944 24 0 19.9706 0 15V9Z" fill="#292929"/>
<path fill-rule="evenodd" clip-rule="evenodd" d="M11.532 5.46345C11.7951 5.36502 12.0825 5.35219 12.3533 5.42679L12.468 5.46345L17.1347 7.21345C17.3713 7.30218 17.5778 7.45632 17.7302 7.65792C17.8826 7.85952 17.9745 8.10027 17.9953 8.35212L18 8.46212V12.0375C18 13.1177 17.7083 14.178 17.1557 15.1062C16.6032 16.0345 15.8103 16.7964 14.8607 17.3115L14.6833 17.4041L12.4473 18.5221C12.3242 18.5836 12.1897 18.619 12.0523 18.6261C11.9149 18.6332 11.7775 18.6119 11.6487 18.5635L11.5527 18.5221L9.31667 17.4041C8.35041 16.921 7.53252 16.1859 6.94934 15.2765C6.36616 14.3671 6.03932 13.3172 6.00333 12.2375L6 12.0375V8.46212C6 8.20954 6.07175 7.96215 6.20689 7.74877C6.34203 7.53538 6.535 7.36476 6.76333 7.25679L6.86533 7.21345L11.532 5.46345ZM14.2887 9.75279L11.2233 12.8181L10.0447 11.6395C9.91957 11.5144 9.74994 11.4443 9.5731 11.4443C9.39625 11.4444 9.22667 11.5147 9.10167 11.6398C8.97666 11.7649 8.90647 11.9345 8.90653 12.1114C8.90659 12.2882 8.97691 12.4578 9.102 12.5828L10.7047 14.1855C10.7728 14.2536 10.8536 14.3076 10.9426 14.3445C11.0316 14.3814 11.127 14.4004 11.2233 14.4004C11.3197 14.4004 11.4151 14.3814 11.504 14.3445C11.593 14.3076 11.6739 14.2536 11.742 14.1855L15.2313 10.6955C15.295 10.634 15.3458 10.5604 15.3807 10.4791C15.4157 10.3977 15.4341 10.3102 15.4348 10.2217C15.4356 10.1332 15.4187 10.0454 15.3852 9.96348C15.3517 9.88155 15.3022 9.80712 15.2396 9.74452C15.177 9.68193 15.1026 9.63242 15.0206 9.5989C14.9387 9.56538 14.8509 9.54852 14.7624 9.54929C14.6739 9.55005 14.5864 9.56845 14.5051 9.60338C14.4237 9.63832 14.3502 9.68911 14.2887 9.75279Z" fill="white"/>
</svg>
