<svg width="24" height="27" viewBox="0 0 24 27" fill="none" xmlns="http://www.w3.org/2000/svg">
<path fill-rule="evenodd" clip-rule="evenodd" d="M9 0C4.02944 0 0 4.02944 0 9V15C0 19.9706 4.02944 24 9 24H9.83494L11.3505 26.625C11.6392 27.125 12.3608 27.125 12.6495 26.625L14.1651 24H15C19.9706 24 24 19.9706 24 15V9C24 4.02944 19.9706 0 15 0H9Z" fill="#FAD200"/>
<path fill-rule="evenodd" clip-rule="evenodd" d="M11.9998 5.00977C11.5798 5.00977 11.2146 5.0402 10.8981 5.09498C9.79634 5.27151 9.29721 6.32456 9.38851 7.31065C9.50417 8.56457 9.68678 10.3663 9.88765 11.5411C10.0033 12.2046 10.4598 12.7889 11.1964 12.8742C11.4216 12.8985 11.6833 12.9168 11.9998 12.9168C12.3164 12.9168 12.5842 12.8985 12.8033 12.8742C13.5398 12.7889 13.9964 12.1985 14.112 11.5411C14.3129 10.3663 14.4955 8.56457 14.6112 7.31065C14.7025 6.31847 14.1972 5.26542 13.1016 5.09498C12.7851 5.0402 12.4198 5.00977 11.9998 5.00977Z" fill="white"/>
<path d="M11.8127 19.0092C13.1574 19.0092 14.2475 17.9191 14.2475 16.5744C14.2475 15.2297 13.1574 14.1396 11.8127 14.1396C10.468 14.1396 9.37793 15.2297 9.37793 16.5744C9.37793 17.9191 10.468 19.0092 11.8127 19.0092Z" fill="white"/>
</svg>
