<svg width="40" height="43" viewBox="0 0 40 43" fill="none" xmlns="http://www.w3.org/2000/svg">
<g filter="url(#filter0_d_10766_27877)">
<path fill-rule="evenodd" clip-rule="evenodd" d="M17 4C12.0294 4 8 8.02944 8 13V19C8 23.9706 12.0294 28 17 28H17.8349L19.3505 30.625C19.6392 31.125 20.3608 31.125 20.6495 30.625L22.1651 28H23C27.9706 28 32 23.9706 32 19V13C32 8.02944 27.9706 4 23 4H17Z" fill="#FAD200"/>
<path fill-rule="evenodd" clip-rule="evenodd" d="M20.0001 9.00977C19.5801 9.00977 19.2149 9.0402 18.8983 9.09498C17.7966 9.27151 17.2975 10.3246 17.3888 11.3106C17.5044 12.5646 17.687 14.3663 17.8879 15.5411C18.0035 16.2046 18.4601 16.7889 19.1966 16.8742C19.4218 16.8985 19.6836 16.9168 20.0001 16.9168C20.3166 16.9168 20.5844 16.8985 20.8036 16.8742C21.5401 16.7889 21.9966 16.1985 22.1123 15.5411C22.3131 14.3663 22.4957 12.5646 22.6114 11.3106C22.7027 10.3185 22.1975 9.26542 21.1018 9.09498C20.7853 9.0402 20.4201 9.00977 20.0001 9.00977Z" fill="white"/>
<path d="M19.813 23.0092C21.1577 23.0092 22.2478 21.9191 22.2478 20.5744C22.2478 19.2297 21.1577 18.1396 19.813 18.1396C18.4683 18.1396 17.3782 19.2297 17.3782 20.5744C17.3782 21.9191 18.4683 23.0092 19.813 23.0092Z" fill="white"/>
</g>
<defs>
<filter id="filter0_d_10766_27877" x="0" y="0" width="40" height="43" filterUnits="userSpaceOnUse" color-interpolation-filters="sRGB">
<feFlood flood-opacity="0" result="BackgroundImageFix"/>
<feColorMatrix in="SourceAlpha" type="matrix" values="0 0 0 0 0 0 0 0 0 0 0 0 0 0 0 0 0 0 127 0" result="hardAlpha"/>
<feOffset dy="4"/>
<feGaussianBlur stdDeviation="4"/>
<feComposite in2="hardAlpha" operator="out"/>
<feColorMatrix type="matrix" values="0 0 0 0 0 0 0 0 0 0 0 0 0 0 0 0 0 0 0.08 0"/>
<feBlend mode="normal" in2="BackgroundImageFix" result="effect1_dropShadow_10766_27877"/>
<feBlend mode="normal" in="SourceGraphic" in2="effect1_dropShadow_10766_27877" result="shape"/>
</filter>
</defs>
</svg>
