<svg width="16" height="20" viewBox="0 0 16 20" fill="none" xmlns="http://www.w3.org/2000/svg">
<path fill-rule="evenodd" clip-rule="evenodd" d="M0 8.62354C0 4.20525 3.58171 0.623535 8 0.623535C12.4183 0.623535 16 4.20525 16 8.62354C16 11.4902 14.5208 13.9016 12.9125 15.6811C11.2991 17.4663 9.49651 18.6826 8.71243 19.1709C8.27264 19.4447 7.72736 19.4447 7.28756 19.1709C6.50349 18.6826 4.70081 17.4663 3.0875 15.6811C1.47921 13.9016 0 11.4902 0 8.62354ZM8 11.9056C9.81264 11.9056 11.282 10.4362 11.282 8.62354C11.282 6.81089 9.81264 5.34149 8 5.34149C6.18736 5.34149 4.71796 6.81093 4.71796 8.62354C4.71796 10.4361 6.18736 11.9056 8 11.9056Z" fill="#989898"/>
</svg>
