<svg width="56" height="60" viewBox="0 0 56 60" fill="none" xmlns="http://www.w3.org/2000/svg">
<g filter="url(#filter0_d_10766_35897)">
<mask id="path-1-inside-1_10766_35897" fill="white">
<path fill-rule="evenodd" clip-rule="evenodd" d="M22 4C14.268 4 8 10.268 8 18V30C8 37.732 14.268 44 22 44H25.6575L27.6257 47.4091C28.0806 48.197 29.2178 48.197 29.6727 47.4091L31.6409 44H34C41.732 44 48 37.732 48 30V18C48 10.268 41.732 4 34 4H22Z"/>
</mask>
<path fill-rule="evenodd" clip-rule="evenodd" d="M22 4C14.268 4 8 10.268 8 18V30C8 37.732 14.268 44 22 44H25.6575L27.6257 47.4091C28.0806 48.197 29.2178 48.197 29.6727 47.4091L31.6409 44H34C41.732 44 48 37.732 48 30V18C48 10.268 41.732 4 34 4H22Z" fill="white" fill-opacity="0.9"/>
<path d="M25.6575 44L27.3895 43C27.0323 42.3812 26.372 42 25.6575 42V44ZM27.6257 47.4091L29.3578 46.4091H29.3578L27.6257 47.4091ZM29.6727 47.4091L27.9406 46.4091H27.9406L29.6727 47.4091ZM31.6409 44V42C30.9264 42 30.2661 42.3812 29.9089 43L31.6409 44ZM10 18C10 11.3726 15.3726 6 22 6V2C13.1634 2 6 9.16345 6 18H10ZM10 30V18H6V30H10ZM22 42C15.3726 42 10 36.6274 10 30H6C6 38.8366 13.1634 46 22 46V42ZM25.6575 42H22V46H25.6575V42ZM29.3578 46.4091L27.3895 43L23.9254 45L25.8937 48.4091L29.3578 46.4091ZM27.9406 46.4091C28.2555 45.8636 29.0428 45.8636 29.3578 46.4091L25.8937 48.4091C27.1183 50.5303 30.18 50.5303 31.4047 48.4091L27.9406 46.4091ZM29.9089 43L27.9406 46.4091L31.4047 48.4091L33.373 45L29.9089 43ZM34 42H31.6409V46H34V42ZM46 30C46 36.6274 40.6274 42 34 42V46C42.8366 46 50 38.8366 50 30H46ZM46 18V30H50V18H46ZM34 6C40.6274 6 46 11.3726 46 18H50C50 9.16344 42.8366 2 34 2V6ZM22 6H34V2H22V6Z" fill="#1AA3DD" mask="url(#path-1-inside-1_10766_35897)"/>
<path fill-rule="evenodd" clip-rule="evenodd" d="M17.3333 22.1647C17.3333 16.2737 22.1089 11.498 27.9999 11.498C33.891 11.498 38.6666 16.2737 38.6666 22.1647C38.6666 25.9869 36.6943 29.2021 34.5499 31.5748C32.3988 33.9551 29.9953 35.5768 28.9498 36.2278C28.3634 36.5929 27.6364 36.5929 27.05 36.2278C26.0046 35.5768 23.601 33.9551 21.4499 31.5748C19.3055 29.2021 17.3333 25.9869 17.3333 22.1647ZM27.9999 26.5408C30.4168 26.5408 32.376 24.5816 32.376 22.1647C32.376 19.7479 30.4168 17.7887 27.9999 17.7887C25.5831 17.7887 23.6239 19.7479 23.6239 22.1647C23.6239 24.5815 25.5831 26.5408 27.9999 26.5408Z" fill="#1AA3DD"/>
</g>
<defs>
<filter id="filter0_d_10766_35897" x="0" y="0" width="56" height="60" filterUnits="userSpaceOnUse" color-interpolation-filters="sRGB">
<feFlood flood-opacity="0" result="BackgroundImageFix"/>
<feColorMatrix in="SourceAlpha" type="matrix" values="0 0 0 0 0 0 0 0 0 0 0 0 0 0 0 0 0 0 127 0" result="hardAlpha"/>
<feOffset dy="4"/>
<feGaussianBlur stdDeviation="4"/>
<feComposite in2="hardAlpha" operator="out"/>
<feColorMatrix type="matrix" values="0 0 0 0 0 0 0 0 0 0 0 0 0 0 0 0 0 0 0.08 0"/>
<feBlend mode="normal" in2="BackgroundImageFix" result="effect1_dropShadow_10766_35897"/>
<feBlend mode="normal" in="SourceGraphic" in2="effect1_dropShadow_10766_35897" result="shape"/>
</filter>
</defs>
</svg>
