<svg width="24" height="24" viewBox="0 0 24 24" fill="none" xmlns="http://www.w3.org/2000/svg">
<path d="M10.1787 15.5223C8.44713 16.0085 6.71328 16.4978 4.91392 17.0046C4.41032 15.7001 3.87627 14.4108 3.41456 13.0949C3.02319 11.9837 2.71977 10.8409 2.77513 9.63818C2.86363 7.77756 3.55817 6.21338 5.081 5.0905C6.61868 3.95731 8.01282 4.18921 9.11403 5.75054C10.0584 7.09226 10.4297 8.61178 10.2491 10.2298C10.0553 11.9451 9.94453 13.651 10.1888 15.3658C10.1949 15.4084 10.1847 15.4507 10.1814 15.5219L10.1787 15.5223Z" fill="#989898"/>
<path d="M19.7467 13.2245C17.9769 12.9848 16.2018 12.7477 14.4024 12.5053C14.3728 12.0043 14.3863 11.5087 14.3055 11.0265C14.1115 9.86822 13.9203 8.70456 13.6401 7.56515C13.2603 6.01629 13.29 4.51054 13.9095 3.03711C14.0711 2.65731 14.2947 2.29097 14.5452 1.96235C15.2025 1.10038 16.0779 0.809462 17.123 1.12193C18.7662 1.61756 19.8355 2.74351 20.5063 4.28158C21.0692 5.57723 21.0719 6.92944 20.9022 8.3059C20.6975 9.95172 20.2369 11.5356 19.814 13.1302C19.8059 13.1599 19.779 13.1841 19.7467 13.2272V13.2245Z" fill="#989898"/>
<path d="M19.5365 14.727C19.4665 15.4462 19.4019 16.1411 19.3318 16.8388C19.2106 18.0428 18.3513 18.991 17.1661 19.2361C15.4287 19.5944 13.8018 18.191 13.9526 16.424C14.0199 15.6401 14.1735 14.8643 14.2947 14.0293C16.0456 14.2636 17.7695 14.4926 19.5339 14.727H19.5365Z" fill="#989898"/>
<path d="M11.1957 19.298C11.4528 20.8367 10.5675 22.1726 9.23075 22.4903C7.8049 22.8318 6.37319 22.0556 5.97924 20.6999C5.78571 20.0365 5.65997 19.3525 5.49766 18.6792C5.45594 18.5028 5.51222 18.4212 5.6874 18.3715C7.21218 17.9423 8.73353 17.5082 10.2541 17.0687C10.4266 17.0194 10.5223 17.06 10.572 17.2352C10.7942 17.9842 11.0214 18.7299 11.1931 19.2984L11.1957 19.298Z" fill="#989898"/>
</svg>
